<svg width="234" height="33" viewBox="0 0 234 33" fill="none" xmlns="http://www.w3.org/2000/svg">
<rect width="33" height="33" rx="16.5" fill="#EDEDEC"/>
<path d="M19.9535 20.721V13.0466H12.2791M19.9535 13.0466L12.2791 20.721" stroke="black" stroke-width="1.53488" stroke-linecap="round" stroke-linejoin="round"/>
<rect x="36" width="198" height="33" rx="16.5" fill="#EDEDEC"/>
<path d="M52.0676 16L54.3648 10.0879H55.8175L58.1148 16H56.679L56.2483 14.8767H53.9341L53.5034 16H52.0676ZM54.3733 13.6774H55.8006L55.0912 11.7855L54.3733 13.6774ZM58.4478 16V11.7771H59.7653V12.5625C59.9399 12.2979 60.1623 12.098 60.4325 11.9629C60.7028 11.8277 60.9787 11.7602 61.2602 11.7602V13.0439C61.0012 13.0439 60.7563 13.0721 60.5254 13.1284C60.3002 13.1847 60.1172 13.272 59.9765 13.3902C59.8357 13.5028 59.7653 13.6492 59.7653 13.8294V16H58.4478ZM63.747 16.1014C63.2966 16.1014 62.894 16.0084 62.5393 15.8226C62.1902 15.6312 61.9171 15.3694 61.72 15.0372C61.5229 14.6993 61.4244 14.3165 61.4244 13.8885C61.4244 13.455 61.5229 13.0721 61.72 12.7399C61.9171 12.4077 62.1873 12.1487 62.5308 11.9629C62.8799 11.7714 63.2797 11.6757 63.7301 11.6757C64.1637 11.6757 64.5606 11.7855 64.921 12.0051C65.2813 12.2247 65.5404 12.5428 65.698 12.9595L64.448 13.3818C64.3861 13.2466 64.2819 13.1369 64.1355 13.0524C63.9948 12.9623 63.8371 12.9173 63.6626 12.9173C63.488 12.9173 63.3332 12.9595 63.198 13.0439C63.0685 13.1228 62.9644 13.2354 62.8855 13.3818C62.8123 13.5282 62.7757 13.6971 62.7757 13.8885C62.7757 14.08 62.8123 14.2489 62.8855 14.3953C62.9644 14.536 63.0713 14.6487 63.2065 14.7331C63.3472 14.8176 63.5049 14.8598 63.6794 14.8598C63.854 14.8598 64.0117 14.8148 64.1524 14.7247C64.2932 14.6346 64.3973 14.5163 64.4649 14.3699L65.7149 14.7922C65.5516 15.2145 65.2898 15.5383 64.9294 15.7635C64.5747 15.9887 64.1806 16.1014 63.747 16.1014ZM66.1191 16V10.0879H67.4366V12.2838C67.5774 12.0811 67.7463 11.9291 67.9434 11.8277C68.1404 11.7264 68.36 11.6757 68.6021 11.6757C68.9456 11.6757 69.2328 11.7461 69.4636 11.8869C69.6945 12.022 69.8662 12.2303 69.9788 12.5119C70.0971 12.7934 70.1562 13.1537 70.1562 13.5929V16H68.8386V13.8379C68.8386 13.6126 68.8133 13.4353 68.7626 13.3058C68.7119 13.1706 68.6387 13.0721 68.543 13.0102C68.4473 12.9482 68.3347 12.9144 68.2052 12.9088C67.9518 12.9032 67.7604 12.9736 67.6309 13.12C67.5014 13.2607 67.4366 13.4775 67.4366 13.7703V16H66.1191ZM70.8673 16V11.7771H72.1848V16H70.8673ZM71.5261 11.2365C71.329 11.2365 71.1544 11.1633 71.0024 11.0169C70.856 10.8649 70.7828 10.6904 70.7828 10.4933C70.7828 10.285 70.856 10.1104 71.0024 9.96965C71.1544 9.82325 71.329 9.75006 71.5261 9.75006C71.7288 9.75006 71.9033 9.82325 72.0497 9.96965C72.1961 10.1104 72.2693 10.285 72.2693 10.4933C72.2693 10.6904 72.1961 10.8649 72.0497 11.0169C71.9033 11.1633 71.7288 11.2365 71.5261 11.2365ZM74.7724 16.1014C74.2713 16.1014 73.8968 15.9831 73.6491 15.7466C73.407 15.5045 73.2859 15.161 73.2859 14.7162V12.8835H72.6271V11.7771H73.2859V10.4595H74.6035V11.7771H75.5663V12.8835H74.6035V14.3868C74.6035 14.5558 74.6344 14.6796 74.6964 14.7585C74.7583 14.8373 74.854 14.8767 74.9835 14.8767C75.0342 14.8767 75.0933 14.8654 75.1609 14.8429C75.2285 14.8148 75.2904 14.781 75.3467 14.7416L75.8028 15.7044C75.6676 15.817 75.5043 15.9127 75.3129 15.9916C75.1271 16.0648 74.9469 16.1014 74.7724 16.1014ZM78.2127 16.1014C77.7736 16.1014 77.3851 16.0084 77.0472 15.8226C76.7094 15.6368 76.4447 15.3778 76.2533 15.0456C76.0619 14.7134 75.9661 14.3277 75.9661 13.8885C75.9661 13.4493 76.0619 13.0637 76.2533 12.7314C76.4447 12.3992 76.7094 12.1402 77.0472 11.9544C77.3907 11.7686 77.7848 11.6757 78.2296 11.6757C78.6294 11.6757 78.9898 11.7714 79.3107 11.9629C79.6317 12.1543 79.885 12.4415 80.0708 12.8244C80.2623 13.2016 80.358 13.6689 80.358 14.2264H77.3344C77.3625 14.4685 77.4611 14.6627 77.63 14.8091C77.8045 14.9499 78.01 15.0203 78.2465 15.0203C78.4549 15.0203 78.6294 14.9752 78.7702 14.8851C78.9109 14.7894 79.0095 14.6712 79.0658 14.5304L80.2398 14.9274C80.1271 15.1976 79.9667 15.4201 79.7583 15.5946C79.5556 15.7691 79.322 15.8986 79.0573 15.9831C78.7927 16.0619 78.5112 16.1014 78.2127 16.1014ZM77.3682 13.348H78.9813C78.9588 13.1847 78.9053 13.0552 78.8208 12.9595C78.7364 12.8581 78.6379 12.7849 78.5252 12.7399C78.4126 12.6948 78.3 12.6723 78.1874 12.6723C78.0804 12.6723 77.9678 12.6948 77.8496 12.7399C77.7313 12.7793 77.6272 12.8497 77.5371 12.951C77.4526 13.0468 77.3963 13.1791 77.3682 13.348ZM82.8459 16.1014C82.3955 16.1014 81.9929 16.0084 81.6381 15.8226C81.289 15.6312 81.016 15.3694 80.8189 15.0372C80.6218 14.6993 80.5233 14.3165 80.5233 13.8885C80.5233 13.455 80.6218 13.0721 80.8189 12.7399C81.016 12.4077 81.2862 12.1487 81.6297 11.9629C81.9788 11.7714 82.3786 11.6757 82.829 11.6757C83.2626 11.6757 83.6595 11.7855 84.0199 12.0051C84.3802 12.2247 84.6392 12.5428 84.7969 12.9595L83.5469 13.3818C83.485 13.2466 83.3808 13.1369 83.2344 13.0524C83.0936 12.9623 82.936 12.9173 82.7614 12.9173C82.5869 12.9173 82.4321 12.9595 82.2969 13.0439C82.1674 13.1228 82.0632 13.2354 81.9844 13.3818C81.9112 13.5282 81.8746 13.6971 81.8746 13.8885C81.8746 14.08 81.9112 14.2489 81.9844 14.3953C82.0632 14.536 82.1702 14.6487 82.3054 14.7331C82.4461 14.8176 82.6038 14.8598 82.7783 14.8598C82.9529 14.8598 83.1105 14.8148 83.2513 14.7247C83.3921 14.6346 83.4962 14.5163 83.5638 14.3699L84.8138 14.7922C84.6505 15.2145 84.3887 15.5383 84.0283 15.7635C83.6736 15.9887 83.2795 16.1014 82.8459 16.1014ZM87.0169 16.1014C86.5158 16.1014 86.1413 15.9831 85.8936 15.7466C85.6515 15.5045 85.5304 15.161 85.5304 14.7162V12.8835H84.8717V11.7771H85.5304V10.4595H86.848V11.7771H87.8108V12.8835H86.848V14.3868C86.848 14.5558 86.879 14.6796 86.9409 14.7585C87.0028 14.8373 87.0985 14.8767 87.228 14.8767C87.2787 14.8767 87.3378 14.8654 87.4054 14.8429C87.473 14.8148 87.5349 14.781 87.5912 14.7416L88.0473 15.7044C87.9122 15.817 87.7489 15.9127 87.5574 15.9916C87.3716 16.0648 87.1915 16.1014 87.0169 16.1014ZM90.0157 16.1014C89.6779 16.1014 89.3935 16.0338 89.1627 15.8986C88.9318 15.7579 88.7573 15.5467 88.639 15.2652C88.5264 14.9837 88.4701 14.6233 88.4701 14.1841V11.7771H89.7877V13.9392C89.7877 14.1588 89.813 14.3362 89.8637 14.4713C89.9144 14.6064 89.9876 14.705 90.0833 14.7669C90.179 14.8288 90.2916 14.8626 90.4211 14.8683C90.6745 14.8683 90.8659 14.7979 90.9954 14.6571C91.1249 14.5107 91.1897 14.2939 91.1897 14.0068V11.7771H92.5072V16H91.2657L91.215 15.4595C91.0799 15.6622 90.9082 15.8198 90.6998 15.9324C90.4971 16.045 90.2691 16.1014 90.0157 16.1014ZM93.2019 16V11.7771H94.5194V12.5625C94.694 12.2979 94.9164 12.098 95.1866 11.9629C95.4569 11.8277 95.7328 11.7602 96.0143 11.7602V13.0439C95.7553 13.0439 95.5104 13.0721 95.2795 13.1284C95.0543 13.1847 94.8713 13.272 94.7306 13.3902C94.5898 13.5028 94.5194 13.6492 94.5194 13.8294V16H93.2019ZM98.4251 16.1014C97.9859 16.1014 97.5974 16.0084 97.2596 15.8226C96.9217 15.6368 96.6571 15.3778 96.4657 15.0456C96.2742 14.7134 96.1785 14.3277 96.1785 13.8885C96.1785 13.4493 96.2742 13.0637 96.4657 12.7314C96.6571 12.3992 96.9217 12.1402 97.2596 11.9544C97.603 11.7686 97.9972 11.6757 98.442 11.6757C98.8418 11.6757 99.2021 11.7714 99.5231 11.9629C99.844 12.1543 100.097 12.4415 100.283 12.8244C100.475 13.2016 100.57 13.6689 100.57 14.2264H97.5467C97.5749 14.4685 97.6734 14.6627 97.8423 14.8091C98.0169 14.9499 98.2224 15.0203 98.4589 15.0203C98.6672 15.0203 98.8418 14.9752 98.9825 14.8851C99.1233 14.7894 99.2218 14.6712 99.2781 14.5304L100.452 14.9274C100.339 15.1976 100.179 15.4201 99.9707 15.5946C99.768 15.7691 99.5343 15.8986 99.2697 15.9831C99.005 16.0619 98.7235 16.1014 98.4251 16.1014ZM97.5805 13.348H99.1937C99.1712 13.1847 99.1177 13.0552 99.0332 12.9595C98.9487 12.8581 98.8502 12.7849 98.7376 12.7399C98.625 12.6948 98.5124 12.6723 98.3998 12.6723C98.2928 12.6723 98.1802 12.6948 98.0619 12.7399C97.9437 12.7793 97.8395 12.8497 97.7494 12.951C97.665 13.0468 97.6087 13.1791 97.5805 13.348ZM104.455 16.1098C104.106 16.1098 103.793 16.0422 103.517 15.9071C103.242 15.7663 103.025 15.5777 102.867 15.3412C102.715 15.0991 102.639 14.8204 102.639 14.5051C102.639 14.3136 102.676 14.1335 102.749 13.9645C102.822 13.79 102.923 13.6267 103.053 13.4747C103.182 13.3227 103.332 13.1875 103.501 13.0693L104.767 12.1994C104.835 12.1543 104.914 12.098 105.004 12.0304C105.094 11.9629 105.176 11.8784 105.249 11.7771C105.328 11.6757 105.367 11.5603 105.367 11.4308C105.367 11.2957 105.314 11.1915 105.207 11.1183C105.1 11.0451 104.97 11.0085 104.818 11.0085C104.661 11.0085 104.531 11.0479 104.43 11.1267C104.334 11.1999 104.286 11.3013 104.286 11.4308C104.286 11.5659 104.328 11.6842 104.413 11.7855C104.497 11.8812 104.587 11.9938 104.683 12.1233L105.849 13.5254L107.901 16H106.398L104.945 14.2686L103.686 12.7399C103.517 12.5259 103.385 12.3429 103.289 12.1909C103.194 12.0389 103.126 11.9009 103.087 11.7771C103.047 11.6532 103.028 11.5321 103.028 11.4139C103.028 11.138 103.104 10.8931 103.256 10.6791C103.413 10.4595 103.622 10.2878 103.881 10.1639C104.14 10.04 104.43 9.97809 104.751 9.97809C105.105 9.97809 105.421 10.0428 105.697 10.1723C105.972 10.2962 106.186 10.4708 106.338 10.696C106.496 10.9156 106.575 11.1718 106.575 11.4646C106.575 11.7011 106.516 11.9178 106.398 12.1149C106.279 12.312 106.099 12.5147 105.857 12.723C105.621 12.9257 105.319 13.1509 104.953 13.3987L104.362 13.8125C104.289 13.8632 104.224 13.9223 104.168 13.9899C104.117 14.0574 104.075 14.1335 104.041 14.2179C104.007 14.2967 103.99 14.3812 103.99 14.4713C103.99 14.629 104.041 14.7585 104.142 14.8598C104.249 14.9612 104.387 15.0118 104.556 15.0118C104.765 15.0118 104.979 14.9809 105.198 14.9189C105.418 14.8514 105.621 14.7556 105.806 14.6318C105.992 14.5023 106.139 14.3418 106.246 14.1504C106.358 13.9589 106.414 13.7337 106.414 13.4747H107.622C107.622 13.9814 107.487 14.4347 107.217 14.8345C106.947 15.2342 106.572 15.5467 106.093 15.772C105.621 15.9972 105.074 16.1098 104.455 16.1098ZM112.705 16.1014C112.119 16.1014 111.601 15.9718 111.151 15.7128C110.706 15.4482 110.354 15.0878 110.095 14.6318C109.842 14.1701 109.715 13.6408 109.715 13.0439C109.715 12.4471 109.842 11.9206 110.095 11.4646C110.354 11.0029 110.706 10.6425 111.151 10.3835C111.601 10.1189 112.119 9.98654 112.705 9.98654C113.133 9.98654 113.524 10.0626 113.879 10.2146C114.239 10.361 114.549 10.5693 114.808 10.8396C115.072 11.1098 115.275 11.4223 115.416 11.7771L114.141 12.2078C114.056 12.0107 113.941 11.839 113.794 11.6926C113.654 11.5462 113.49 11.4336 113.304 11.3548C113.124 11.2759 112.924 11.2365 112.705 11.2365C112.395 11.2365 112.119 11.3125 111.877 11.4646C111.635 11.6166 111.446 11.8306 111.311 12.1065C111.176 12.3767 111.109 12.6892 111.109 13.0439C111.109 13.3987 111.176 13.714 111.311 13.9899C111.452 14.2602 111.643 14.4741 111.886 14.6318C112.133 14.7838 112.415 14.8598 112.73 14.8598C112.961 14.8598 113.167 14.8176 113.347 14.7331C113.527 14.6487 113.682 14.5304 113.811 14.3784C113.946 14.2264 114.062 14.0518 114.158 13.8547L115.433 14.2855C115.298 14.6458 115.098 14.964 114.833 15.2399C114.569 15.5101 114.256 15.7213 113.896 15.8733C113.535 16.0253 113.138 16.1014 112.705 16.1014ZM117.904 16.1014C117.459 16.1014 117.068 16.0084 116.73 15.8226C116.392 15.6312 116.125 15.3694 115.927 15.0372C115.736 14.705 115.64 14.3221 115.64 13.8885C115.64 13.455 115.733 13.0721 115.919 12.7399C116.11 12.4077 116.375 12.1487 116.713 11.9629C117.056 11.7714 117.445 11.6757 117.878 11.6757C118.323 11.6757 118.715 11.7714 119.052 11.9629C119.396 12.1487 119.661 12.4077 119.846 12.7399C120.038 13.0721 120.133 13.455 120.133 13.8885C120.133 14.3221 120.038 14.705 119.846 15.0372C119.661 15.3694 119.399 15.6312 119.061 15.8226C118.723 16.0084 118.337 16.1014 117.904 16.1014ZM117.904 14.8851C118.073 14.8851 118.222 14.8429 118.351 14.7585C118.487 14.674 118.591 14.5586 118.664 14.4122C118.743 14.2602 118.782 14.0856 118.782 13.8885C118.782 13.6915 118.743 13.5197 118.664 13.3733C118.591 13.2213 118.487 13.1031 118.351 13.0186C118.216 12.9341 118.061 12.8919 117.887 12.8919C117.712 12.8919 117.558 12.9341 117.422 13.0186C117.287 13.1031 117.18 13.2213 117.101 13.3733C117.028 13.5197 116.992 13.6915 116.992 13.8885C116.992 14.0856 117.028 14.2602 117.101 14.4122C117.18 14.5586 117.287 14.674 117.422 14.7585C117.563 14.8429 117.724 14.8851 117.904 14.8851ZM122.296 16.1014C121.902 16.1014 121.561 16.0141 121.274 15.8395C120.992 15.6593 120.773 15.4032 120.615 15.071C120.463 14.7388 120.387 14.3446 120.387 13.8885C120.387 13.4268 120.463 13.0327 120.615 12.7061C120.773 12.3739 120.992 12.1205 121.274 11.946C121.561 11.7658 121.902 11.6757 122.296 11.6757C122.561 11.6757 122.791 11.7292 122.988 11.8362C123.191 11.9375 123.36 12.0839 123.495 12.2754V10.0879H124.813V16H123.554L123.521 15.4679C123.391 15.6706 123.222 15.8283 123.014 15.9409C122.805 16.0479 122.566 16.1014 122.296 16.1014ZM122.642 14.8851C122.8 14.8851 122.938 14.8485 123.056 14.7753C123.18 14.7022 123.278 14.598 123.352 14.4629C123.43 14.3221 123.478 14.1672 123.495 13.9983V13.7787C123.478 13.6098 123.43 13.4578 123.352 13.3227C123.278 13.1875 123.18 13.0834 123.056 13.0102C122.932 12.9313 122.791 12.8919 122.634 12.8919C122.465 12.8919 122.313 12.9341 122.178 13.0186C122.048 13.1031 121.944 13.2213 121.865 13.3733C121.792 13.5197 121.755 13.6915 121.755 13.8885C121.755 14.0856 121.795 14.2602 121.874 14.4122C121.952 14.5586 122.057 14.674 122.186 14.7585C122.321 14.8429 122.473 14.8851 122.642 14.8851ZM127.529 16.1014C127.09 16.1014 126.701 16.0084 126.364 15.8226C126.026 15.6368 125.761 15.3778 125.57 15.0456C125.378 14.7134 125.282 14.3277 125.282 13.8885C125.282 13.4493 125.378 13.0637 125.57 12.7314C125.761 12.3992 126.026 12.1402 126.364 11.9544C126.707 11.7686 127.101 11.6757 127.546 11.6757C127.946 11.6757 128.306 11.7714 128.627 11.9629C128.948 12.1543 129.201 12.4415 129.387 12.8244C129.579 13.2016 129.674 13.6689 129.674 14.2264H126.651C126.679 14.4685 126.777 14.6627 126.946 14.8091C127.121 14.9499 127.326 15.0203 127.563 15.0203C127.771 15.0203 127.946 14.9752 128.086 14.8851C128.227 14.7894 128.326 14.6712 128.382 14.5304L129.556 14.9274C129.443 15.1976 129.283 15.4201 129.075 15.5946C128.872 15.7691 128.638 15.8986 128.374 15.9831C128.109 16.0619 127.827 16.1014 127.529 16.1014ZM126.684 13.348H128.298C128.275 13.1847 128.222 13.0552 128.137 12.9595C128.053 12.8581 127.954 12.7849 127.842 12.7399C127.729 12.6948 127.616 12.6723 127.504 12.6723C127.397 12.6723 127.284 12.6948 127.166 12.7399C127.048 12.7793 126.943 12.8497 126.853 12.951C126.769 13.0468 126.713 13.1791 126.684 13.348Z" fill="black"/>
<path opacity="0.5" d="M53.902 24.072C53.67 24.072 53.464 24.048 53.284 24C53.104 23.948 52.948 23.878 52.816 23.79C52.684 23.698 52.576 23.598 52.492 23.49C52.408 23.378 52.346 23.26 52.306 23.136L52.792 22.968C52.852 23.144 52.972 23.298 53.152 23.43C53.336 23.558 53.56 23.622 53.824 23.622C54.148 23.622 54.402 23.558 54.586 23.43C54.77 23.302 54.862 23.132 54.862 22.92C54.862 22.724 54.78 22.566 54.616 22.446C54.452 22.322 54.236 22.226 53.968 22.158L53.506 22.038C53.318 21.99 53.144 21.92 52.984 21.828C52.828 21.732 52.702 21.612 52.606 21.468C52.514 21.32 52.468 21.144 52.468 20.94C52.468 20.56 52.59 20.264 52.834 20.052C53.082 19.836 53.438 19.728 53.902 19.728C54.178 19.728 54.416 19.774 54.616 19.866C54.816 19.954 54.978 20.068 55.102 20.208C55.23 20.344 55.32 20.492 55.372 20.652L54.892 20.82C54.816 20.62 54.688 20.464 54.508 20.352C54.328 20.236 54.11 20.178 53.854 20.178C53.586 20.178 53.372 20.244 53.212 20.376C53.056 20.504 52.978 20.68 52.978 20.904C52.978 21.096 53.04 21.244 53.164 21.348C53.288 21.448 53.45 21.522 53.65 21.57L54.112 21.684C54.52 21.78 54.832 21.94 55.048 22.164C55.268 22.384 55.378 22.622 55.378 22.878C55.378 23.098 55.322 23.3 55.21 23.484C55.098 23.664 54.932 23.808 54.712 23.916C54.496 24.02 54.226 24.072 53.902 24.072ZM57.1135 24.072C56.8215 24.072 56.5955 23.996 56.4355 23.844C56.2755 23.692 56.1955 23.478 56.1955 23.202V21.426H55.6735V21H56.1955V20.064H56.6755V21H57.5755V21.426H56.6755V23.154C56.6755 23.306 56.7155 23.424 56.7955 23.508C56.8795 23.588 56.9955 23.628 57.1435 23.628C57.1915 23.628 57.2375 23.622 57.2815 23.61C57.3295 23.594 57.3915 23.558 57.4675 23.502L57.6535 23.892C57.5495 23.96 57.4555 24.006 57.3715 24.03C57.2875 24.058 57.2015 24.072 57.1135 24.072ZM58.1331 24V21H58.6131V21.534C58.7331 21.346 58.8871 21.208 59.0751 21.12C59.2671 21.032 59.4671 20.988 59.6751 20.988V21.438C59.4991 21.438 59.3291 21.468 59.1651 21.528C59.0051 21.584 58.8731 21.678 58.7691 21.81C58.6651 21.942 58.6131 22.122 58.6131 22.35V24H58.1331ZM61.1265 24.072C60.8945 24.072 60.6905 24.026 60.5145 23.934C60.3425 23.838 60.2065 23.688 60.1065 23.484C60.0105 23.276 59.9625 23.008 59.9625 22.68V21H60.4425V22.536C60.4425 22.832 60.4765 23.058 60.5445 23.214C60.6125 23.37 60.7065 23.478 60.8265 23.538C60.9505 23.594 61.0885 23.622 61.2405 23.622C61.5005 23.622 61.7025 23.528 61.8465 23.34C61.9945 23.152 62.0685 22.89 62.0685 22.554V21H62.5485V24H62.0985L62.0745 23.55C61.9745 23.718 61.8445 23.848 61.6845 23.94C61.5245 24.028 61.3385 24.072 61.1265 24.072ZM64.6042 24.072C64.3082 24.072 64.0462 24.006 63.8182 23.874C63.5902 23.738 63.4122 23.552 63.2842 23.316C63.1562 23.08 63.0922 22.808 63.0922 22.5C63.0922 22.192 63.1542 21.92 63.2782 21.684C63.4062 21.448 63.5842 21.264 63.8122 21.132C64.0402 20.996 64.3002 20.928 64.5922 20.928C64.8802 20.928 65.1382 20.994 65.3662 21.126C65.5942 21.258 65.7682 21.444 65.8882 21.684L65.4502 21.882C65.3702 21.722 65.2542 21.598 65.1022 21.51C64.9502 21.418 64.7762 21.372 64.5802 21.372C64.3842 21.372 64.2102 21.42 64.0582 21.516C63.9102 21.612 63.7922 21.746 63.7042 21.918C63.6202 22.086 63.5782 22.28 63.5782 22.5C63.5782 22.72 63.6202 22.916 63.7042 23.088C63.7922 23.256 63.9122 23.388 64.0642 23.484C64.2202 23.58 64.3962 23.628 64.5922 23.628C64.7882 23.628 64.9622 23.578 65.1142 23.478C65.2702 23.378 65.3882 23.238 65.4682 23.058L65.9062 23.256C65.7862 23.512 65.6122 23.712 65.3842 23.856C65.1562 24 64.8962 24.072 64.6042 24.072ZM67.5203 24.072C67.2283 24.072 67.0023 23.996 66.8423 23.844C66.6823 23.692 66.6023 23.478 66.6023 23.202V21.426H66.0803V21H66.6023V20.064H67.0823V21H67.9823V21.426H67.0823V23.154C67.0823 23.306 67.1223 23.424 67.2023 23.508C67.2863 23.588 67.4023 23.628 67.5503 23.628C67.5983 23.628 67.6443 23.622 67.6883 23.61C67.7363 23.594 67.7983 23.558 67.8743 23.502L68.0603 23.892C67.9563 23.96 67.8623 24.006 67.7783 24.03C67.6943 24.058 67.6083 24.072 67.5203 24.072ZM69.6258 24.072C69.3938 24.072 69.1898 24.026 69.0138 23.934C68.8418 23.838 68.7058 23.688 68.6058 23.484C68.5098 23.276 68.4618 23.008 68.4618 22.68V21H68.9418V22.536C68.9418 22.832 68.9758 23.058 69.0438 23.214C69.1118 23.37 69.2058 23.478 69.3258 23.538C69.4498 23.594 69.5878 23.622 69.7398 23.622C69.9998 23.622 70.2018 23.528 70.3458 23.34C70.4938 23.152 70.5678 22.89 70.5678 22.554V21H71.0478V24H70.5978L70.5738 23.55C70.4738 23.718 70.3438 23.848 70.1838 23.94C70.0238 24.028 69.8378 24.072 69.6258 24.072ZM71.7655 24V21H72.2455V21.534C72.3655 21.346 72.5195 21.208 72.7075 21.12C72.8995 21.032 73.0995 20.988 73.3075 20.988V21.438C73.1315 21.438 72.9615 21.468 72.7975 21.528C72.6375 21.584 72.5055 21.678 72.4015 21.81C72.2975 21.942 72.2455 22.122 72.2455 22.35V24H71.7655ZM74.9869 24.072C74.6949 24.072 74.4369 24.006 74.2129 23.874C73.9889 23.738 73.8129 23.552 73.6849 23.316C73.5609 23.08 73.4989 22.808 73.4989 22.5C73.4989 22.192 73.5609 21.92 73.6849 21.684C73.8129 21.448 73.9869 21.264 74.2069 21.132C74.4309 20.996 74.6869 20.928 74.9749 20.928C75.2549 20.928 75.4969 20.998 75.7009 21.138C75.9049 21.274 76.0629 21.466 76.1749 21.714C76.2869 21.962 76.3429 22.254 76.3429 22.59H73.9849C74.0049 22.918 74.1089 23.174 74.2969 23.358C74.4849 23.542 74.7229 23.634 75.0109 23.634C75.2229 23.634 75.4009 23.584 75.5449 23.484C75.6929 23.384 75.8069 23.252 75.8869 23.088L76.3009 23.298C76.2249 23.454 76.1229 23.59 75.9949 23.706C75.8709 23.822 75.7229 23.912 75.5509 23.976C75.3829 24.04 75.1949 24.072 74.9869 24.072ZM74.0209 22.188H75.8269C75.8149 22.016 75.7689 21.868 75.6889 21.744C75.6129 21.62 75.5129 21.524 75.3889 21.456C75.2649 21.388 75.1249 21.354 74.9689 21.354C74.8169 21.354 74.6709 21.388 74.5309 21.456C74.3909 21.52 74.2749 21.616 74.1829 21.744C74.0909 21.868 74.0369 22.016 74.0209 22.188ZM78.3287 24V19.8H78.8567L80.3087 21.948L81.7607 19.8H82.2827V24H81.7787V20.616L80.3087 22.806L78.8387 20.628V24H78.3287ZM84.5189 24L82.7789 19.8H83.3129L84.8009 23.424L86.2889 19.8H86.8229L85.0829 24H84.5189ZM89.0931 24.072C88.6931 24.072 88.3391 23.98 88.0311 23.796C87.7231 23.608 87.4811 23.352 87.3051 23.028C87.1291 22.7 87.0411 22.324 87.0411 21.9C87.0411 21.476 87.1271 21.102 87.2991 20.778C87.4751 20.45 87.7151 20.194 88.0191 20.01C88.3271 19.822 88.6791 19.728 89.0751 19.728C89.3271 19.728 89.5691 19.774 89.8011 19.866C90.0331 19.954 90.2411 20.08 90.4251 20.244C90.6091 20.404 90.7511 20.59 90.8511 20.802L90.4131 21.024C90.3331 20.856 90.2231 20.71 90.0831 20.586C89.9431 20.462 89.7871 20.366 89.6151 20.298C89.4431 20.226 89.2631 20.19 89.0751 20.19C88.7831 20.19 88.5211 20.264 88.2891 20.412C88.0571 20.556 87.8751 20.756 87.7431 21.012C87.6151 21.268 87.5511 21.564 87.5511 21.9C87.5511 22.236 87.6171 22.534 87.7491 22.794C87.8811 23.054 88.0631 23.258 88.2951 23.406C88.5311 23.55 88.7971 23.622 89.0931 23.622C89.2851 23.622 89.4671 23.584 89.6391 23.508C89.8111 23.428 89.9651 23.32 90.1011 23.184C90.2411 23.048 90.3511 22.892 90.4311 22.716L90.8751 22.938C90.7711 23.158 90.6271 23.354 90.4431 23.526C90.2631 23.698 90.0551 23.832 89.8191 23.928C89.5871 24.024 89.3451 24.072 89.0931 24.072ZM91.2093 24.69L91.5513 23.424H92.0913L91.6233 24.69H91.2093ZM95.4792 24.072C95.2592 24.072 95.0632 24.02 94.8912 23.916C94.7192 23.812 94.5772 23.67 94.4652 23.49L94.4412 24H93.9852V19.8H94.4652V21.504C94.5772 21.324 94.7192 21.184 94.8912 21.084C95.0632 20.98 95.2592 20.928 95.4792 20.928C95.7472 20.928 95.9832 20.994 96.1872 21.126C96.3912 21.258 96.5492 21.442 96.6612 21.678C96.7772 21.914 96.8352 22.188 96.8352 22.5C96.8352 22.808 96.7772 23.082 96.6612 23.322C96.5492 23.558 96.3912 23.742 96.1872 23.874C95.9832 24.006 95.7472 24.072 95.4792 24.072ZM95.3712 23.634C95.5592 23.634 95.7252 23.586 95.8692 23.49C96.0172 23.394 96.1332 23.26 96.2172 23.088C96.3052 22.916 96.3492 22.72 96.3492 22.5C96.3492 22.28 96.3072 22.084 96.2232 21.912C96.1432 21.74 96.0292 21.606 95.8812 21.51C95.7332 21.414 95.5652 21.366 95.3772 21.366C95.2012 21.366 95.0432 21.414 94.9032 21.51C94.7672 21.606 94.6592 21.74 94.5792 21.912C94.5032 22.084 94.4652 22.28 94.4652 22.5C94.4652 22.72 94.5032 22.916 94.5792 23.088C94.6592 23.26 94.7672 23.394 94.9032 23.49C95.0392 23.586 95.1952 23.634 95.3712 23.634ZM97.4109 24V21H97.8909V24H97.4109ZM97.6569 20.304C97.5769 20.304 97.5069 20.274 97.4469 20.214C97.3869 20.154 97.3569 20.084 97.3569 20.004C97.3569 19.92 97.3869 19.85 97.4469 19.794C97.5069 19.734 97.5769 19.704 97.6569 19.704C97.7409 19.704 97.8109 19.734 97.8669 19.794C97.9269 19.85 97.9569 19.92 97.9569 20.004C97.9569 20.084 97.9269 20.154 97.8669 20.214C97.8109 20.274 97.7409 20.304 97.6569 20.304ZM100.149 24.072C99.9294 24.072 99.7334 24.02 99.5614 23.916C99.3894 23.812 99.2474 23.67 99.1354 23.49L99.1114 24H98.6554V19.8H99.1354V21.504C99.2474 21.324 99.3894 21.184 99.5614 21.084C99.7334 20.98 99.9294 20.928 100.149 20.928C100.417 20.928 100.653 20.994 100.857 21.126C101.061 21.258 101.219 21.442 101.331 21.678C101.447 21.914 101.505 22.188 101.505 22.5C101.505 22.808 101.447 23.082 101.331 23.322C101.219 23.558 101.061 23.742 100.857 23.874C100.653 24.006 100.417 24.072 100.149 24.072ZM100.041 23.634C100.229 23.634 100.395 23.586 100.539 23.49C100.687 23.394 100.803 23.26 100.887 23.088C100.975 22.916 101.019 22.72 101.019 22.5C101.019 22.28 100.977 22.084 100.893 21.912C100.813 21.74 100.699 21.606 100.551 21.51C100.403 21.414 100.235 21.366 100.047 21.366C99.8714 21.366 99.7134 21.414 99.5734 21.51C99.4374 21.606 99.3294 21.74 99.2494 21.912C99.1734 22.084 99.1354 22.28 99.1354 22.5C99.1354 22.72 99.1734 22.916 99.2494 23.088C99.3294 23.26 99.4374 23.394 99.5734 23.49C99.7094 23.586 99.8654 23.634 100.041 23.634ZM102.051 24V19.8H102.531V24H102.051ZM103.279 24V21H103.759V24H103.279ZM103.525 20.304C103.445 20.304 103.375 20.274 103.315 20.214C103.255 20.154 103.225 20.084 103.225 20.004C103.225 19.92 103.255 19.85 103.315 19.794C103.375 19.734 103.445 19.704 103.525 19.704C103.609 19.704 103.679 19.734 103.735 19.794C103.795 19.85 103.825 19.92 103.825 20.004C103.825 20.084 103.795 20.154 103.735 20.214C103.679 20.274 103.609 20.304 103.525 20.304ZM105.85 24.072C105.558 24.072 105.298 24.006 105.07 23.874C104.846 23.738 104.67 23.552 104.542 23.316C104.414 23.08 104.35 22.808 104.35 22.5C104.35 22.192 104.412 21.92 104.536 21.684C104.664 21.448 104.84 21.264 105.064 21.132C105.292 20.996 105.55 20.928 105.838 20.928C106.134 20.928 106.394 20.996 106.618 21.132C106.846 21.264 107.022 21.448 107.146 21.684C107.274 21.92 107.338 22.192 107.338 22.5C107.338 22.808 107.274 23.08 107.146 23.316C107.022 23.552 106.848 23.738 106.624 23.874C106.4 24.006 106.142 24.072 105.85 24.072ZM105.85 23.628C106.05 23.628 106.224 23.58 106.372 23.484C106.52 23.388 106.636 23.256 106.72 23.088C106.808 22.92 106.852 22.724 106.852 22.5C106.852 22.276 106.808 22.08 106.72 21.912C106.636 21.744 106.518 21.612 106.366 21.516C106.214 21.42 106.038 21.372 105.838 21.372C105.642 21.372 105.468 21.42 105.316 21.516C105.168 21.612 105.05 21.744 104.962 21.912C104.878 22.08 104.836 22.276 104.836 22.5C104.836 22.72 104.878 22.916 104.962 23.088C105.05 23.256 105.17 23.388 105.322 23.484C105.478 23.58 105.654 23.628 105.85 23.628ZM109.012 24.072C108.72 24.072 108.494 23.996 108.334 23.844C108.174 23.692 108.094 23.478 108.094 23.202V21.426H107.572V21H108.094V20.064H108.574V21H109.474V21.426H108.574V23.154C108.574 23.306 108.614 23.424 108.694 23.508C108.778 23.588 108.894 23.628 109.042 23.628C109.09 23.628 109.136 23.622 109.18 23.61C109.228 23.594 109.29 23.558 109.366 23.502L109.552 23.892C109.448 23.96 109.354 24.006 109.27 24.03C109.186 24.058 109.1 24.072 109.012 24.072ZM110.032 24V19.8H110.512V21.438C110.612 21.274 110.742 21.148 110.902 21.06C111.062 20.972 111.248 20.928 111.46 20.928C111.692 20.928 111.896 20.976 112.072 21.072C112.248 21.164 112.384 21.312 112.48 21.516C112.58 21.72 112.628 21.988 112.624 22.32V24H112.144V22.464C112.144 22.168 112.108 21.942 112.036 21.786C111.968 21.63 111.874 21.524 111.754 21.468C111.634 21.408 111.498 21.378 111.346 21.378C111.082 21.378 110.876 21.472 110.728 21.66C110.584 21.844 110.512 22.106 110.512 22.446V24H110.032ZM114.572 24.072C114.28 24.072 114.022 24.006 113.798 23.874C113.574 23.738 113.398 23.552 113.27 23.316C113.146 23.08 113.084 22.808 113.084 22.5C113.084 22.192 113.146 21.92 113.27 21.684C113.398 21.448 113.572 21.264 113.792 21.132C114.016 20.996 114.272 20.928 114.56 20.928C114.84 20.928 115.082 20.998 115.286 21.138C115.49 21.274 115.648 21.466 115.76 21.714C115.872 21.962 115.928 22.254 115.928 22.59H113.57C113.59 22.918 113.694 23.174 113.882 23.358C114.07 23.542 114.308 23.634 114.596 23.634C114.808 23.634 114.986 23.584 115.13 23.484C115.278 23.384 115.392 23.252 115.472 23.088L115.886 23.298C115.81 23.454 115.708 23.59 115.58 23.706C115.456 23.822 115.308 23.912 115.136 23.976C114.968 24.04 114.78 24.072 114.572 24.072ZM113.606 22.188H115.412C115.4 22.016 115.354 21.868 115.274 21.744C115.198 21.62 115.098 21.524 114.974 21.456C114.85 21.388 114.71 21.354 114.554 21.354C114.402 21.354 114.256 21.388 114.116 21.456C113.976 21.52 113.86 21.616 113.768 21.744C113.676 21.868 113.622 22.016 113.606 22.188ZM114.638 20.574L113.858 19.794H114.47L115.19 20.574H114.638ZM118.615 25.2V23.496C118.507 23.676 118.365 23.818 118.189 23.922C118.017 24.022 117.821 24.072 117.601 24.072C117.333 24.072 117.097 24.006 116.893 23.874C116.689 23.742 116.529 23.558 116.413 23.322C116.301 23.082 116.245 22.808 116.245 22.5C116.245 22.188 116.301 21.914 116.413 21.678C116.529 21.442 116.689 21.258 116.893 21.126C117.097 20.994 117.333 20.928 117.601 20.928C117.821 20.928 118.017 20.98 118.189 21.084C118.365 21.188 118.507 21.33 118.615 21.51L118.639 21H119.095V25.2H118.615ZM117.709 23.634C117.885 23.634 118.041 23.586 118.177 23.49C118.313 23.394 118.419 23.26 118.495 23.088C118.575 22.916 118.615 22.72 118.615 22.5C118.615 22.28 118.575 22.084 118.495 21.912C118.419 21.74 118.313 21.606 118.177 21.51C118.041 21.414 117.883 21.366 117.703 21.366C117.515 21.366 117.347 21.414 117.199 21.51C117.055 21.606 116.941 21.74 116.857 21.912C116.773 22.084 116.731 22.28 116.731 22.5C116.731 22.72 116.773 22.916 116.857 23.088C116.941 23.26 117.057 23.394 117.205 23.49C117.353 23.586 117.521 23.634 117.709 23.634ZM120.854 24.072C120.622 24.072 120.418 24.026 120.242 23.934C120.07 23.838 119.934 23.688 119.834 23.484C119.738 23.276 119.69 23.008 119.69 22.68V21H120.17V22.536C120.17 22.832 120.204 23.058 120.272 23.214C120.34 23.37 120.434 23.478 120.554 23.538C120.678 23.594 120.816 23.622 120.968 23.622C121.228 23.622 121.43 23.528 121.574 23.34C121.722 23.152 121.796 22.89 121.796 22.554V21H122.276V24H121.826L121.802 23.55C121.702 23.718 121.572 23.848 121.412 23.94C121.252 24.028 121.066 24.072 120.854 24.072ZM124.307 24.072C124.015 24.072 123.757 24.006 123.533 23.874C123.309 23.738 123.133 23.552 123.005 23.316C122.881 23.08 122.819 22.808 122.819 22.5C122.819 22.192 122.881 21.92 123.005 21.684C123.133 21.448 123.307 21.264 123.527 21.132C123.751 20.996 124.007 20.928 124.295 20.928C124.575 20.928 124.817 20.998 125.021 21.138C125.225 21.274 125.383 21.466 125.495 21.714C125.607 21.962 125.663 22.254 125.663 22.59H123.305C123.325 22.918 123.429 23.174 123.617 23.358C123.805 23.542 124.043 23.634 124.331 23.634C124.543 23.634 124.721 23.584 124.865 23.484C125.013 23.384 125.127 23.252 125.207 23.088L125.621 23.298C125.545 23.454 125.443 23.59 125.315 23.706C125.191 23.822 125.043 23.912 124.871 23.976C124.703 24.04 124.515 24.072 124.307 24.072ZM123.341 22.188H125.147C125.135 22.016 125.089 21.868 125.009 21.744C124.933 21.62 124.833 21.524 124.709 21.456C124.585 21.388 124.445 21.354 124.289 21.354C124.137 21.354 123.991 21.388 123.851 21.456C123.711 21.52 123.595 21.616 123.503 21.744C123.411 21.868 123.357 22.016 123.341 22.188ZM127.199 24.072C126.979 24.072 126.787 24.04 126.623 23.976C126.459 23.908 126.321 23.82 126.209 23.712C126.101 23.604 126.023 23.486 125.975 23.358L126.395 23.184C126.463 23.32 126.565 23.43 126.701 23.514C126.837 23.598 126.987 23.64 127.151 23.64C127.339 23.64 127.497 23.604 127.625 23.532C127.753 23.456 127.817 23.35 127.817 23.214C127.817 23.09 127.769 22.99 127.673 22.914C127.581 22.838 127.443 22.776 127.259 22.728L126.971 22.65C126.699 22.578 126.487 22.47 126.335 22.326C126.183 22.178 126.107 22.012 126.107 21.828C126.107 21.544 126.199 21.324 126.383 21.168C126.571 21.008 126.849 20.928 127.217 20.928C127.393 20.928 127.553 20.954 127.697 21.006C127.841 21.058 127.965 21.132 128.069 21.228C128.173 21.32 128.249 21.43 128.297 21.558L127.877 21.744C127.825 21.608 127.739 21.51 127.619 21.45C127.499 21.39 127.353 21.36 127.181 21.36C126.997 21.36 126.853 21.4 126.749 21.48C126.645 21.556 126.593 21.664 126.593 21.804C126.593 21.884 126.635 21.96 126.719 22.032C126.807 22.1 126.935 22.156 127.103 22.2L127.403 22.278C127.599 22.326 127.763 22.398 127.895 22.494C128.027 22.586 128.127 22.692 128.195 22.812C128.263 22.932 128.297 23.06 128.297 23.196C128.297 23.376 128.249 23.532 128.153 23.664C128.057 23.796 127.927 23.898 127.763 23.97C127.599 24.038 127.411 24.072 127.199 24.072ZM131.5 24.072C131.208 24.072 130.95 24.006 130.726 23.874C130.502 23.738 130.326 23.552 130.198 23.316C130.074 23.08 130.012 22.808 130.012 22.5C130.012 22.192 130.074 21.92 130.198 21.684C130.326 21.448 130.5 21.264 130.72 21.132C130.944 20.996 131.2 20.928 131.488 20.928C131.768 20.928 132.01 20.998 132.214 21.138C132.418 21.274 132.576 21.466 132.688 21.714C132.8 21.962 132.856 22.254 132.856 22.59H130.498C130.518 22.918 130.622 23.174 130.81 23.358C130.998 23.542 131.236 23.634 131.524 23.634C131.736 23.634 131.914 23.584 132.058 23.484C132.206 23.384 132.32 23.252 132.4 23.088L132.814 23.298C132.738 23.454 132.636 23.59 132.508 23.706C132.384 23.822 132.236 23.912 132.064 23.976C131.896 24.04 131.708 24.072 131.5 24.072ZM130.534 22.188H132.34C132.328 22.016 132.282 21.868 132.202 21.744C132.126 21.62 132.026 21.524 131.902 21.456C131.778 21.388 131.638 21.354 131.482 21.354C131.33 21.354 131.184 21.388 131.044 21.456C130.904 21.52 130.788 21.616 130.696 21.744C130.604 21.868 130.55 22.016 130.534 22.188ZM134.469 24.072C134.177 24.072 133.951 23.996 133.791 23.844C133.631 23.692 133.551 23.478 133.551 23.202V21.426H133.029V21H133.551V20.064H134.031V21H134.931V21.426H134.031V23.154C134.031 23.306 134.071 23.424 134.151 23.508C134.235 23.588 134.351 23.628 134.499 23.628C134.547 23.628 134.593 23.622 134.637 23.61C134.685 23.594 134.747 23.558 134.823 23.502L135.009 23.892C134.905 23.96 134.811 24.006 134.727 24.03C134.643 24.058 134.557 24.072 134.469 24.072ZM138.033 24.072C137.765 24.072 137.529 24.006 137.325 23.874C137.121 23.742 136.961 23.558 136.845 23.322C136.733 23.082 136.677 22.808 136.677 22.5C136.677 22.188 136.733 21.914 136.845 21.678C136.961 21.442 137.121 21.258 137.325 21.126C137.529 20.994 137.765 20.928 138.033 20.928C138.253 20.928 138.449 20.98 138.621 21.084C138.797 21.184 138.939 21.324 139.047 21.504V19.8H139.527V24H139.071L139.047 23.49C138.939 23.67 138.797 23.812 138.621 23.916C138.449 24.02 138.253 24.072 138.033 24.072ZM138.141 23.634C138.317 23.634 138.471 23.588 138.603 23.496C138.739 23.4 138.845 23.268 138.921 23.1C139.001 22.928 139.043 22.736 139.047 22.524V22.482C139.043 22.266 139.001 22.074 138.921 21.906C138.845 21.734 138.739 21.602 138.603 21.51C138.467 21.414 138.311 21.366 138.135 21.366C137.947 21.366 137.779 21.414 137.631 21.51C137.483 21.606 137.367 21.74 137.283 21.912C137.203 22.084 137.163 22.28 137.163 22.5C137.163 22.72 137.205 22.916 137.289 23.088C137.373 23.26 137.489 23.394 137.637 23.49C137.785 23.586 137.953 23.634 138.141 23.634ZM141.561 24.072C141.269 24.072 141.011 24.006 140.787 23.874C140.563 23.738 140.387 23.552 140.259 23.316C140.135 23.08 140.073 22.808 140.073 22.5C140.073 22.192 140.135 21.92 140.259 21.684C140.387 21.448 140.561 21.264 140.781 21.132C141.005 20.996 141.261 20.928 141.549 20.928C141.829 20.928 142.071 20.998 142.275 21.138C142.479 21.274 142.637 21.466 142.749 21.714C142.861 21.962 142.917 22.254 142.917 22.59H140.559C140.579 22.918 140.683 23.174 140.871 23.358C141.059 23.542 141.297 23.634 141.585 23.634C141.797 23.634 141.975 23.584 142.119 23.484C142.267 23.384 142.381 23.252 142.461 23.088L142.875 23.298C142.799 23.454 142.697 23.59 142.569 23.706C142.445 23.822 142.297 23.912 142.125 23.976C141.957 24.04 141.769 24.072 141.561 24.072ZM140.595 22.188H142.401C142.389 22.016 142.343 21.868 142.263 21.744C142.187 21.62 142.087 21.524 141.963 21.456C141.839 21.388 141.699 21.354 141.543 21.354C141.391 21.354 141.245 21.388 141.105 21.456C140.965 21.52 140.849 21.616 140.757 21.744C140.665 21.868 140.611 22.016 140.595 22.188ZM141.147 20.574L141.849 19.8H142.467L141.693 20.574H141.147ZM144.536 24.072C144.244 24.072 144.018 23.996 143.858 23.844C143.698 23.692 143.618 23.478 143.618 23.202V21.426H143.096V21H143.618V20.064H144.098V21H144.998V21.426H144.098V23.154C144.098 23.306 144.138 23.424 144.218 23.508C144.302 23.588 144.418 23.628 144.566 23.628C144.614 23.628 144.66 23.622 144.704 23.61C144.752 23.594 144.814 23.558 144.89 23.502L145.076 23.892C144.972 23.96 144.878 24.006 144.794 24.03C144.71 24.058 144.624 24.072 144.536 24.072ZM146.486 24.072C146.134 24.072 145.858 23.992 145.658 23.832C145.462 23.668 145.364 23.442 145.364 23.154C145.364 22.85 145.464 22.618 145.664 22.458C145.868 22.294 146.152 22.212 146.516 22.212H147.35C147.33 21.928 147.26 21.716 147.14 21.576C147.02 21.432 146.84 21.36 146.6 21.36C146.436 21.36 146.294 21.394 146.174 21.462C146.058 21.526 145.962 21.63 145.886 21.774L145.454 21.606C145.53 21.466 145.622 21.346 145.73 21.246C145.838 21.142 145.964 21.064 146.108 21.012C146.252 20.956 146.416 20.928 146.6 20.928C146.88 20.928 147.11 20.984 147.29 21.096C147.474 21.204 147.612 21.366 147.704 21.582C147.796 21.794 147.84 22.058 147.836 22.374L147.83 24H147.386L147.362 23.598C147.274 23.75 147.156 23.868 147.008 23.952C146.86 24.032 146.686 24.072 146.486 24.072ZM146.51 23.652C146.682 23.652 146.832 23.616 146.96 23.544C147.088 23.468 147.186 23.362 147.254 23.226C147.326 23.09 147.362 22.926 147.362 22.734V22.614H146.624C146.344 22.614 146.144 22.66 146.024 22.752C145.908 22.844 145.85 22.976 145.85 23.148C145.85 23.304 145.908 23.428 146.024 23.52C146.14 23.608 146.302 23.652 146.51 23.652ZM148.507 24V21H148.987V24H148.507ZM148.753 20.304C148.673 20.304 148.603 20.274 148.543 20.214C148.483 20.154 148.453 20.084 148.453 20.004C148.453 19.92 148.483 19.85 148.543 19.794C148.603 19.734 148.673 19.704 148.753 19.704C148.837 19.704 148.907 19.734 148.963 19.794C149.023 19.85 149.053 19.92 149.053 20.004C149.053 20.084 149.023 20.154 148.963 20.214C148.907 20.274 148.837 20.304 148.753 20.304ZM149.751 24V19.8H150.231V24H149.751ZM152 24.072C151.78 24.072 151.588 24.04 151.424 23.976C151.26 23.908 151.122 23.82 151.01 23.712C150.902 23.604 150.824 23.486 150.776 23.358L151.196 23.184C151.264 23.32 151.366 23.43 151.502 23.514C151.638 23.598 151.788 23.64 151.952 23.64C152.14 23.64 152.298 23.604 152.426 23.532C152.554 23.456 152.618 23.35 152.618 23.214C152.618 23.09 152.57 22.99 152.474 22.914C152.382 22.838 152.244 22.776 152.06 22.728L151.772 22.65C151.5 22.578 151.288 22.47 151.136 22.326C150.984 22.178 150.908 22.012 150.908 21.828C150.908 21.544 151 21.324 151.184 21.168C151.372 21.008 151.65 20.928 152.018 20.928C152.194 20.928 152.354 20.954 152.498 21.006C152.642 21.058 152.766 21.132 152.87 21.228C152.974 21.32 153.05 21.43 153.098 21.558L152.678 21.744C152.626 21.608 152.54 21.51 152.42 21.45C152.3 21.39 152.154 21.36 151.982 21.36C151.798 21.36 151.654 21.4 151.55 21.48C151.446 21.556 151.394 21.664 151.394 21.804C151.394 21.884 151.436 21.96 151.52 22.032C151.608 22.1 151.736 22.156 151.904 22.2L152.204 22.278C152.4 22.326 152.564 22.398 152.696 22.494C152.828 22.586 152.928 22.692 152.996 22.812C153.064 22.932 153.098 23.06 153.098 23.196C153.098 23.376 153.05 23.532 152.954 23.664C152.858 23.796 152.728 23.898 152.564 23.97C152.4 24.038 152.212 24.072 152 24.072ZM156.169 24.072C155.901 24.072 155.665 24.006 155.461 23.874C155.257 23.742 155.097 23.558 154.981 23.322C154.869 23.082 154.813 22.808 154.813 22.5C154.813 22.188 154.869 21.914 154.981 21.678C155.097 21.442 155.257 21.258 155.461 21.126C155.665 20.994 155.901 20.928 156.169 20.928C156.389 20.928 156.585 20.98 156.757 21.084C156.933 21.184 157.075 21.324 157.183 21.504V19.8H157.663V24H157.207L157.183 23.49C157.075 23.67 156.933 23.812 156.757 23.916C156.585 24.02 156.389 24.072 156.169 24.072ZM156.277 23.634C156.453 23.634 156.607 23.588 156.739 23.496C156.875 23.4 156.981 23.268 157.057 23.1C157.137 22.928 157.179 22.736 157.183 22.524V22.482C157.179 22.266 157.137 22.074 157.057 21.906C156.981 21.734 156.875 21.602 156.739 21.51C156.603 21.414 156.447 21.366 156.271 21.366C156.083 21.366 155.915 21.414 155.767 21.51C155.619 21.606 155.503 21.74 155.419 21.912C155.339 22.084 155.299 22.28 155.299 22.5C155.299 22.72 155.341 22.916 155.425 23.088C155.509 23.26 155.625 23.394 155.773 23.49C155.921 23.586 156.089 23.634 156.277 23.634ZM158.371 21.108L158.323 19.704H158.803L158.755 21.108H158.371ZM159.494 24V21H159.974V24H159.494ZM159.74 20.304C159.66 20.304 159.59 20.274 159.53 20.214C159.47 20.154 159.44 20.084 159.44 20.004C159.44 19.92 159.47 19.85 159.53 19.794C159.59 19.734 159.66 19.704 159.74 19.704C159.824 19.704 159.894 19.734 159.95 19.794C160.01 19.85 160.04 19.92 160.04 20.004C160.04 20.084 160.01 20.154 159.95 20.214C159.894 20.274 159.824 20.304 159.74 20.304ZM160.739 24V21H161.189L161.213 21.42C161.305 21.26 161.423 21.138 161.567 21.054C161.711 20.97 161.879 20.928 162.071 20.928C162.311 20.928 162.515 20.984 162.683 21.096C162.855 21.208 162.979 21.378 163.055 21.606C163.139 21.386 163.261 21.218 163.421 21.102C163.585 20.986 163.779 20.928 164.003 20.928C164.339 20.928 164.603 21.04 164.795 21.264C164.991 21.488 165.087 21.828 165.083 22.284V24H164.603V22.464C164.603 22.168 164.571 21.942 164.507 21.786C164.447 21.63 164.365 21.524 164.261 21.468C164.157 21.408 164.037 21.378 163.901 21.378C163.665 21.378 163.481 21.472 163.349 21.66C163.217 21.844 163.151 22.106 163.151 22.446V24H162.671V22.464C162.671 22.168 162.639 21.942 162.575 21.786C162.515 21.63 162.431 21.524 162.323 21.468C162.219 21.408 162.099 21.378 161.963 21.378C161.731 21.378 161.549 21.472 161.417 21.66C161.285 21.844 161.219 22.106 161.219 22.446V24H160.739ZM165.752 25.2V21H166.202L166.226 21.51C166.338 21.33 166.48 21.188 166.652 21.084C166.828 20.98 167.026 20.928 167.246 20.928C167.514 20.928 167.75 20.994 167.954 21.126C168.158 21.258 168.316 21.442 168.428 21.678C168.544 21.914 168.602 22.188 168.602 22.5C168.602 22.808 168.544 23.082 168.428 23.322C168.316 23.558 168.158 23.742 167.954 23.874C167.75 24.006 167.514 24.072 167.246 24.072C167.026 24.072 166.83 24.022 166.658 23.922C166.486 23.818 166.344 23.676 166.232 23.496V25.2H165.752ZM167.138 23.634C167.326 23.634 167.492 23.586 167.636 23.49C167.784 23.394 167.9 23.26 167.984 23.088C168.072 22.916 168.116 22.72 168.116 22.5C168.116 22.28 168.074 22.084 167.99 21.912C167.91 21.74 167.796 21.606 167.648 21.51C167.5 21.414 167.332 21.366 167.144 21.366C166.968 21.366 166.81 21.414 166.67 21.51C166.534 21.606 166.426 21.74 166.346 21.912C166.27 22.084 166.232 22.28 166.232 22.5C166.232 22.72 166.27 22.916 166.346 23.088C166.426 23.26 166.534 23.394 166.67 23.49C166.806 23.586 166.962 23.634 167.138 23.634ZM169.147 24V19.8H169.627V24H169.147ZM171.659 24.072C171.367 24.072 171.109 24.006 170.885 23.874C170.661 23.738 170.485 23.552 170.357 23.316C170.233 23.08 170.171 22.808 170.171 22.5C170.171 22.192 170.233 21.92 170.357 21.684C170.485 21.448 170.659 21.264 170.879 21.132C171.103 20.996 171.359 20.928 171.647 20.928C171.927 20.928 172.169 20.998 172.373 21.138C172.577 21.274 172.735 21.466 172.847 21.714C172.959 21.962 173.015 22.254 173.015 22.59H170.657C170.677 22.918 170.781 23.174 170.969 23.358C171.157 23.542 171.395 23.634 171.683 23.634C171.895 23.634 172.073 23.584 172.217 23.484C172.365 23.384 172.479 23.252 172.559 23.088L172.973 23.298C172.897 23.454 172.795 23.59 172.667 23.706C172.543 23.822 172.395 23.912 172.223 23.976C172.055 24.04 171.867 24.072 171.659 24.072ZM170.693 22.188H172.499C172.487 22.016 172.441 21.868 172.361 21.744C172.285 21.62 172.185 21.524 172.061 21.456C171.937 21.388 171.797 21.354 171.641 21.354C171.489 21.354 171.343 21.388 171.203 21.456C171.063 21.52 170.947 21.616 170.855 21.744C170.763 21.868 170.709 22.016 170.693 22.188ZM171.245 20.574L171.947 19.8H172.565L171.791 20.574H171.245ZM173.507 24V21H173.957L173.981 21.42C174.073 21.26 174.191 21.138 174.335 21.054C174.479 20.97 174.647 20.928 174.839 20.928C175.079 20.928 175.283 20.984 175.451 21.096C175.623 21.208 175.747 21.378 175.823 21.606C175.907 21.386 176.029 21.218 176.189 21.102C176.353 20.986 176.547 20.928 176.771 20.928C177.107 20.928 177.371 21.04 177.563 21.264C177.759 21.488 177.855 21.828 177.851 22.284V24H177.371V22.464C177.371 22.168 177.339 21.942 177.275 21.786C177.215 21.63 177.133 21.524 177.029 21.468C176.925 21.408 176.805 21.378 176.669 21.378C176.433 21.378 176.249 21.472 176.117 21.66C175.985 21.844 175.919 22.106 175.919 22.446V24H175.439V22.464C175.439 22.168 175.407 21.942 175.343 21.786C175.283 21.63 175.199 21.524 175.091 21.468C174.987 21.408 174.867 21.378 174.731 21.378C174.499 21.378 174.317 21.472 174.185 21.66C174.053 21.844 173.987 22.106 173.987 22.446V24H173.507ZM179.804 24.072C179.512 24.072 179.254 24.006 179.03 23.874C178.806 23.738 178.63 23.552 178.502 23.316C178.378 23.08 178.316 22.808 178.316 22.5C178.316 22.192 178.378 21.92 178.502 21.684C178.63 21.448 178.804 21.264 179.024 21.132C179.248 20.996 179.504 20.928 179.792 20.928C180.072 20.928 180.314 20.998 180.518 21.138C180.722 21.274 180.88 21.466 180.992 21.714C181.104 21.962 181.16 22.254 181.16 22.59H178.802C178.822 22.918 178.926 23.174 179.114 23.358C179.302 23.542 179.54 23.634 179.828 23.634C180.04 23.634 180.218 23.584 180.362 23.484C180.51 23.384 180.624 23.252 180.704 23.088L181.118 23.298C181.042 23.454 180.94 23.59 180.812 23.706C180.688 23.822 180.54 23.912 180.368 23.976C180.2 24.04 180.012 24.072 179.804 24.072ZM178.838 22.188H180.644C180.632 22.016 180.586 21.868 180.506 21.744C180.43 21.62 180.33 21.524 180.206 21.456C180.082 21.388 179.942 21.354 179.786 21.354C179.634 21.354 179.488 21.388 179.348 21.456C179.208 21.52 179.092 21.616 179 21.744C178.908 21.868 178.854 22.016 178.838 22.188ZM181.645 24V21H182.095L182.119 21.45C182.219 21.282 182.349 21.154 182.509 21.066C182.669 20.974 182.855 20.928 183.067 20.928C183.303 20.928 183.507 20.976 183.679 21.072C183.855 21.164 183.991 21.312 184.087 21.516C184.187 21.72 184.235 21.988 184.231 22.32V24H183.751V22.464C183.751 22.168 183.717 21.942 183.649 21.786C183.581 21.63 183.487 21.524 183.367 21.468C183.247 21.408 183.111 21.378 182.959 21.378C182.695 21.378 182.489 21.472 182.341 21.66C182.197 21.844 182.125 22.106 182.125 22.446V24H181.645ZM185.999 24.072C185.707 24.072 185.481 23.996 185.321 23.844C185.161 23.692 185.081 23.478 185.081 23.202V21.426H184.559V21H185.081V20.064H185.561V21H186.461V21.426H185.561V23.154C185.561 23.306 185.601 23.424 185.681 23.508C185.765 23.588 185.881 23.628 186.029 23.628C186.077 23.628 186.123 23.622 186.167 23.61C186.215 23.594 186.277 23.558 186.353 23.502L186.539 23.892C186.435 23.96 186.341 24.006 186.257 24.03C186.173 24.058 186.087 24.072 185.999 24.072ZM187.949 24.072C187.597 24.072 187.321 23.992 187.121 23.832C186.925 23.668 186.827 23.442 186.827 23.154C186.827 22.85 186.927 22.618 187.127 22.458C187.331 22.294 187.615 22.212 187.979 22.212H188.813C188.793 21.928 188.723 21.716 188.603 21.576C188.483 21.432 188.303 21.36 188.063 21.36C187.899 21.36 187.757 21.394 187.637 21.462C187.521 21.526 187.425 21.63 187.349 21.774L186.917 21.606C186.993 21.466 187.085 21.346 187.193 21.246C187.301 21.142 187.427 21.064 187.571 21.012C187.715 20.956 187.879 20.928 188.063 20.928C188.343 20.928 188.573 20.984 188.753 21.096C188.937 21.204 189.075 21.366 189.167 21.582C189.259 21.794 189.303 22.058 189.299 22.374L189.293 24H188.849L188.825 23.598C188.737 23.75 188.619 23.868 188.471 23.952C188.323 24.032 188.149 24.072 187.949 24.072ZM187.973 23.652C188.145 23.652 188.295 23.616 188.423 23.544C188.551 23.468 188.649 23.362 188.717 23.226C188.789 23.09 188.825 22.926 188.825 22.734V22.614H188.087C187.807 22.614 187.607 22.66 187.487 22.752C187.371 22.844 187.313 22.976 187.313 23.148C187.313 23.304 187.371 23.428 187.487 23.52C187.603 23.608 187.765 23.652 187.973 23.652ZM191.068 24.072C190.776 24.072 190.55 23.996 190.39 23.844C190.23 23.692 190.15 23.478 190.15 23.202V21.426H189.628V21H190.15V20.064H190.63V21H191.53V21.426H190.63V23.154C190.63 23.306 190.67 23.424 190.75 23.508C190.834 23.588 190.95 23.628 191.098 23.628C191.146 23.628 191.192 23.622 191.236 23.61C191.284 23.594 191.346 23.558 191.422 23.502L191.608 23.892C191.504 23.96 191.41 24.006 191.326 24.03C191.242 24.058 191.156 24.072 191.068 24.072ZM192.117 24V21H192.597V24H192.117ZM192.363 20.304C192.283 20.304 192.213 20.274 192.153 20.214C192.093 20.154 192.063 20.084 192.063 20.004C192.063 19.92 192.093 19.85 192.153 19.794C192.213 19.734 192.283 19.704 192.363 19.704C192.447 19.704 192.517 19.734 192.573 19.794C192.633 19.85 192.663 19.92 192.663 20.004C192.663 20.084 192.633 20.154 192.573 20.214C192.517 20.274 192.447 20.304 192.363 20.304ZM194.688 24.072C194.396 24.072 194.136 24.006 193.908 23.874C193.684 23.738 193.508 23.552 193.38 23.316C193.252 23.08 193.188 22.808 193.188 22.5C193.188 22.192 193.25 21.92 193.374 21.684C193.502 21.448 193.678 21.264 193.902 21.132C194.13 20.996 194.388 20.928 194.676 20.928C194.972 20.928 195.232 20.996 195.456 21.132C195.684 21.264 195.86 21.448 195.984 21.684C196.112 21.92 196.176 22.192 196.176 22.5C196.176 22.808 196.112 23.08 195.984 23.316C195.86 23.552 195.686 23.738 195.462 23.874C195.238 24.006 194.98 24.072 194.688 24.072ZM194.688 23.628C194.888 23.628 195.062 23.58 195.21 23.484C195.358 23.388 195.474 23.256 195.558 23.088C195.646 22.92 195.69 22.724 195.69 22.5C195.69 22.276 195.646 22.08 195.558 21.912C195.474 21.744 195.356 21.612 195.204 21.516C195.052 21.42 194.876 21.372 194.676 21.372C194.48 21.372 194.306 21.42 194.154 21.516C194.006 21.612 193.888 21.744 193.8 21.912C193.716 22.08 193.674 22.276 193.674 22.5C193.674 22.72 193.716 22.916 193.8 23.088C193.888 23.256 194.008 23.388 194.16 23.484C194.316 23.58 194.492 23.628 194.688 23.628ZM196.722 24V21H197.172L197.196 21.45C197.296 21.282 197.426 21.154 197.586 21.066C197.746 20.974 197.932 20.928 198.144 20.928C198.38 20.928 198.584 20.976 198.756 21.072C198.932 21.164 199.068 21.312 199.164 21.516C199.264 21.72 199.312 21.988 199.308 22.32V24H198.828V22.464C198.828 22.168 198.794 21.942 198.726 21.786C198.658 21.63 198.564 21.524 198.444 21.468C198.324 21.408 198.188 21.378 198.036 21.378C197.772 21.378 197.566 21.472 197.418 21.66C197.274 21.844 197.202 22.106 197.202 22.446V24H196.722ZM200.152 24.084C200.06 24.084 199.98 24.052 199.912 23.988C199.848 23.92 199.816 23.842 199.816 23.754C199.816 23.662 199.848 23.584 199.912 23.52C199.98 23.452 200.06 23.418 200.152 23.418C200.244 23.418 200.322 23.452 200.386 23.52C200.45 23.584 200.482 23.662 200.482 23.754C200.482 23.842 200.45 23.92 200.386 23.988C200.322 24.052 200.244 24.084 200.152 24.084Z" fill="black"/>
</svg>
