<svg width="234" height="33" viewBox="0 0 234 33" fill="none" xmlns="http://www.w3.org/2000/svg">
<rect width="33" height="33" rx="16.5" fill="#EDEDEC"/>
<path d="M19.9535 20.721V13.0466H12.2791M19.9535 13.0466L12.2791 20.721" stroke="black" stroke-width="1.53488" stroke-linecap="round" stroke-linejoin="round"/>
<rect x="36" width="198" height="33" rx="16.5" fill="#EDEDEC"/>
<path d="M52.5743 16V10.0879H54.5084C55.1334 10.0879 55.6852 10.2146 56.1638 10.468C56.648 10.7213 57.0253 11.0704 57.2956 11.5152C57.5658 11.9544 57.701 12.464 57.701 13.0439C57.701 13.6183 57.5658 14.1278 57.2956 14.5726C57.0253 15.0175 56.648 15.3666 56.1638 15.6199C55.6852 15.8733 55.1334 16 54.5084 16H52.5743ZM53.9341 14.7162H54.5084C54.7674 14.7162 55.0067 14.6768 55.2263 14.598C55.4459 14.5135 55.6374 14.3981 55.8006 14.2517C55.9639 14.0997 56.0906 13.9223 56.1807 13.7196C56.2708 13.5113 56.3158 13.2861 56.3158 13.0439C56.3158 12.8018 56.2708 12.5794 56.1807 12.3767C56.0906 12.1684 55.9639 11.991 55.8006 11.8446C55.6374 11.6926 55.4459 11.5772 55.2263 11.4984C55.0067 11.4139 54.7674 11.3717 54.5084 11.3717H53.9341V14.7162ZM60.2438 16.1014C59.8046 16.1014 59.4161 16.0084 59.0783 15.8226C58.7405 15.6368 58.4758 15.3778 58.2844 15.0456C58.0929 14.7134 57.9972 14.3277 57.9972 13.8885C57.9972 13.4493 58.0929 13.0637 58.2844 12.7314C58.4758 12.3992 58.7405 12.1402 59.0783 11.9544C59.4218 11.7686 59.8159 11.6757 60.2607 11.6757C60.6605 11.6757 61.0208 11.7714 61.3418 11.9629C61.6627 12.1543 61.9161 12.4415 62.1019 12.8244C62.2934 13.2016 62.3891 13.6689 62.3891 14.2264H59.3655C59.3936 14.4685 59.4921 14.6627 59.6611 14.8091C59.8356 14.9499 60.0411 15.0203 60.2776 15.0203C60.4859 15.0203 60.6605 14.9752 60.8013 14.8851C60.942 14.7894 61.0406 14.6712 61.0969 14.5304L62.2708 14.9274C62.1582 15.1976 61.9978 15.4201 61.7894 15.5946C61.5867 15.7691 61.3531 15.8986 61.0884 15.9831C60.8238 16.0619 60.5422 16.1014 60.2438 16.1014ZM59.3992 13.348H61.0124C60.9899 13.1847 60.9364 13.0552 60.8519 12.9595C60.7675 12.8581 60.6689 12.7849 60.5563 12.7399C60.4437 12.6948 60.3311 12.6723 60.2185 12.6723C60.1115 12.6723 59.9989 12.6948 59.8807 12.7399C59.7624 12.7793 59.6582 12.8497 59.5682 12.951C59.4837 13.0468 59.4274 13.1791 59.3992 13.348ZM59.4921 11.2872L60.4296 10.0879H61.857L60.7675 11.2872H59.4921ZM62.7822 16V11.7771H64.0238L64.0744 12.3092C64.2096 12.1008 64.3757 11.9432 64.5727 11.8362C64.7754 11.7292 64.9978 11.6757 65.24 11.6757C65.5891 11.6757 65.8762 11.7489 66.1014 11.8953C66.3323 12.0361 66.5012 12.2528 66.6082 12.5456C66.7377 12.2641 66.9151 12.0501 67.1403 11.9038C67.3655 11.7517 67.6189 11.6757 67.9004 11.6757C68.4072 11.6757 68.7872 11.8306 69.0406 12.1402C69.2996 12.4499 69.4263 12.9313 69.4207 13.5845V16H68.1031V13.8379C68.1031 13.6126 68.0778 13.4353 68.0271 13.3058C67.982 13.1706 67.9145 13.0721 67.8244 13.0102C67.7343 12.9482 67.6273 12.9144 67.5034 12.9088C67.2613 12.9032 67.0755 12.9736 66.946 13.12C66.8221 13.2607 66.7602 13.4775 66.7602 13.7703V16H65.4427V13.8379C65.4427 13.6126 65.4173 13.4353 65.3666 13.3058C65.3216 13.1706 65.254 13.0721 65.1639 13.0102C65.0739 12.9482 64.9669 12.9144 64.843 12.9088C64.6009 12.9032 64.4151 12.9736 64.2856 13.12C64.1617 13.2607 64.0998 13.4775 64.0998 13.7703V16H62.7822ZM71.4043 16.1014C70.9088 16.1014 70.5231 15.9916 70.2472 15.772C69.9713 15.5467 69.8333 15.2258 69.8333 14.8091C69.8333 14.3643 69.9769 14.0321 70.2641 13.8125C70.5512 13.5929 70.9538 13.4831 71.4718 13.4831H72.5022C72.4741 13.2635 72.4065 13.0918 72.2995 12.9679C72.1982 12.8384 72.0321 12.7737 71.8012 12.7737C71.6436 12.7737 71.5056 12.8103 71.3874 12.8835C71.2691 12.9567 71.1678 13.0552 71.0833 13.1791L69.9262 12.799C70.0276 12.5907 70.1599 12.4021 70.3232 12.2331C70.4921 12.0642 70.6976 11.9291 70.9397 11.8277C71.1818 11.7264 71.4634 11.6757 71.7843 11.6757C72.2235 11.6757 72.5951 11.7574 72.8992 11.9206C73.2032 12.0839 73.4313 12.312 73.5833 12.6048C73.7353 12.8976 73.8113 13.2438 73.8113 13.6436L73.7944 16H72.5613L72.5444 15.5693C72.4262 15.7438 72.2714 15.8761 72.0799 15.9662C71.8885 16.0563 71.6633 16.1014 71.4043 16.1014ZM71.6999 15.1047C71.8631 15.1047 72.0039 15.071 72.1222 15.0034C72.246 14.9358 72.3417 14.8457 72.4093 14.7331C72.4825 14.6149 72.5191 14.4882 72.5191 14.3531V14.3362H71.9617C71.6858 14.3362 71.4859 14.3756 71.362 14.4544C71.2382 14.5276 71.1762 14.6346 71.1762 14.7753C71.1762 14.8767 71.2213 14.9583 71.3113 15.0203C71.4071 15.0766 71.5366 15.1047 71.6999 15.1047ZM74.4451 16V11.7771H75.7627V12.5625C75.9372 12.2979 76.1596 12.098 76.4299 11.9629C76.7001 11.8277 76.976 11.7602 77.2576 11.7602V13.0439C76.9986 13.0439 76.7536 13.0721 76.5228 13.1284C76.2976 13.1847 76.1146 13.272 75.9738 13.3902C75.833 13.5028 75.7627 13.6492 75.7627 13.8294V16H74.4451ZM77.6413 16V11.7771H78.9589V12.5625C79.1334 12.2979 79.3558 12.098 79.6261 11.9629C79.8964 11.8277 80.1723 11.7602 80.4538 11.7602V13.0439C80.1948 13.0439 79.9499 13.0721 79.719 13.1284C79.4938 13.1847 79.3108 13.272 79.17 13.3902C79.0293 13.5028 78.9589 13.6492 78.9589 13.8294V16H77.6413ZM82.1889 16.1014C81.6934 16.1014 81.3077 15.9916 81.0318 15.772C80.7559 15.5467 80.618 15.2258 80.618 14.8091C80.618 14.3643 80.7616 14.0321 81.0487 13.8125C81.3359 13.5929 81.7385 13.4831 82.2565 13.4831H83.2869C83.2587 13.2635 83.1911 13.0918 83.0842 12.9679C82.9828 12.8384 82.8167 12.7737 82.5859 12.7737C82.4282 12.7737 82.2903 12.8103 82.172 12.8835C82.0538 12.9567 81.9524 13.0552 81.868 13.1791L80.7109 12.799C80.8122 12.5907 80.9445 12.4021 81.1078 12.2331C81.2767 12.0642 81.4823 11.9291 81.7244 11.8277C81.9665 11.7264 82.248 11.6757 82.569 11.6757C83.0082 11.6757 83.3798 11.7574 83.6838 11.9206C83.9879 12.0839 84.2159 12.312 84.3679 12.6048C84.52 12.8976 84.596 13.2438 84.596 13.6436L84.5791 16H83.346L83.3291 15.5693C83.2109 15.7438 83.056 15.8761 82.8646 15.9662C82.6731 16.0563 82.4479 16.1014 82.1889 16.1014ZM82.4845 15.1047C82.6478 15.1047 82.7886 15.071 82.9068 15.0034C83.0307 14.9358 83.1264 14.8457 83.194 14.7331C83.2672 14.6149 83.3038 14.4882 83.3038 14.3531V14.3362H82.7463C82.4704 14.3362 82.2705 14.3756 82.1467 14.4544C82.0228 14.5276 81.9609 14.6346 81.9609 14.7753C81.9609 14.8767 82.0059 14.9583 82.096 15.0203C82.1917 15.0766 82.3212 15.1047 82.4845 15.1047ZM87.223 17.8074C86.8795 17.8074 86.5783 17.7849 86.3193 17.7398C86.0659 17.6948 85.8491 17.6357 85.6689 17.5625C85.4888 17.4893 85.3395 17.4076 85.2213 17.3176L85.7365 16.2703C85.8266 16.3097 85.9336 16.3575 86.0574 16.4138C86.1813 16.4758 86.3333 16.5293 86.5135 16.5743C86.6937 16.6194 86.9105 16.6419 87.1639 16.6419C87.3609 16.6419 87.5355 16.6025 87.6875 16.5236C87.8452 16.4504 87.9662 16.3322 88.0507 16.1689C88.1408 16.0113 88.1858 15.8114 88.1858 15.5693V15.1808C88.0507 15.3891 87.8733 15.5524 87.6537 15.6706C87.4397 15.7832 87.1948 15.8395 86.9189 15.8395C86.5248 15.8395 86.1841 15.7607 85.897 15.603C85.6154 15.4398 85.3958 15.2089 85.2382 14.9105C85.0862 14.6121 85.0102 14.2573 85.0102 13.8463C85.0102 13.3959 85.0862 13.0102 85.2382 12.6892C85.3958 12.3683 85.6154 12.1205 85.897 11.946C86.1841 11.7658 86.5248 11.6757 86.9189 11.6757C87.1948 11.6757 87.4397 11.7405 87.6537 11.87C87.8733 11.9938 88.0507 12.174 88.1858 12.4105V11.7771H89.5034V15.5186C89.5034 15.9916 89.4133 16.3998 89.2331 16.7432C89.0529 17.0867 88.7939 17.3485 88.4561 17.5287C88.1182 17.7145 87.7072 17.8074 87.223 17.8074ZM87.3074 14.7416C87.4763 14.7416 87.6199 14.7022 87.7382 14.6233C87.862 14.5389 87.9549 14.4263 88.0169 14.2855C88.0845 14.1447 88.1182 13.9843 88.1182 13.8041C88.1182 13.6126 88.0845 13.4465 88.0169 13.3058C87.9493 13.165 87.8536 13.0552 87.7297 12.9764C87.6115 12.8976 87.4679 12.8581 87.299 12.8581C87.1357 12.8581 86.9893 12.8976 86.8598 12.9764C86.7359 13.0552 86.6374 13.165 86.5642 13.3058C86.4966 13.4465 86.46 13.6126 86.4544 13.8041C86.46 13.9843 86.4966 14.1447 86.5642 14.2855C86.6374 14.4263 86.7387 14.5389 86.8682 14.6233C86.9977 14.7022 87.1441 14.7416 87.3074 14.7416ZM92.2263 16.1014C91.7871 16.1014 91.3986 16.0084 91.0608 15.8226C90.7229 15.6368 90.4583 15.3778 90.2668 15.0456C90.0754 14.7134 89.9797 14.3277 89.9797 13.8885C89.9797 13.4493 90.0754 13.0637 90.2668 12.7314C90.4583 12.3992 90.7229 12.1402 91.0608 11.9544C91.4042 11.7686 91.7984 11.6757 92.2432 11.6757C92.643 11.6757 93.0033 11.7714 93.3243 11.9629C93.6452 12.1543 93.8986 12.4415 94.0844 12.8244C94.2758 13.2016 94.3715 13.6689 94.3715 14.2264H91.3479C91.3761 14.4685 91.4746 14.6627 91.6435 14.8091C91.8181 14.9499 92.0236 15.0203 92.2601 15.0203C92.4684 15.0203 92.643 14.9752 92.7837 14.8851C92.9245 14.7894 93.023 14.6712 93.0793 14.5304L94.2533 14.9274C94.1407 15.1976 93.9802 15.4201 93.7719 15.5946C93.5692 15.7691 93.3355 15.8986 93.0709 15.9831C92.8062 16.0619 92.5247 16.1014 92.2263 16.1014ZM91.3817 13.348H92.9949C92.9723 13.1847 92.9189 13.0552 92.8344 12.9595C92.7499 12.8581 92.6514 12.7849 92.5388 12.7399C92.4262 12.6948 92.3136 12.6723 92.201 12.6723C92.094 12.6723 91.9814 12.6948 91.8631 12.7399C91.7449 12.7793 91.6407 12.8497 91.5506 12.951C91.4662 13.0468 91.4099 13.1791 91.3817 13.348ZM96.7106 16V10.0879H99.0332C99.4611 10.0879 99.8412 10.1723 100.173 10.3413C100.506 10.5046 100.765 10.7354 100.95 11.0338C101.142 11.3266 101.238 11.6645 101.238 12.0473C101.238 12.4358 101.136 12.7821 100.934 13.0862C100.736 13.3846 100.472 13.6126 100.14 13.7703L101.474 16H99.92L98.7883 14.0152C98.7545 14.0152 98.7179 14.0152 98.6785 14.0152C98.6447 14.0152 98.6109 14.0152 98.5771 14.0152H98.0704V16H96.7106ZM98.0704 12.7652H98.991C99.1486 12.7652 99.2894 12.7343 99.4133 12.6723C99.5371 12.6104 99.6329 12.5259 99.7004 12.419C99.7736 12.3063 99.8102 12.1825 99.8102 12.0473C99.8102 11.839 99.7314 11.6673 99.5737 11.5321C99.4217 11.397 99.219 11.3294 98.9656 11.3294H98.0704V12.7652ZM103.276 16.1014C102.78 16.1014 102.394 15.9916 102.118 15.772C101.843 15.5467 101.705 15.2258 101.705 14.8091C101.705 14.3643 101.848 14.0321 102.135 13.8125C102.422 13.5929 102.825 13.4831 103.343 13.4831H104.373C104.345 13.2635 104.278 13.0918 104.171 12.9679C104.069 12.8384 103.903 12.7737 103.672 12.7737C103.515 12.7737 103.377 12.8103 103.259 12.8835C103.14 12.9567 103.039 13.0552 102.955 13.1791L101.798 12.799C101.899 12.5907 102.031 12.4021 102.194 12.2331C102.363 12.0642 102.569 11.9291 102.811 11.8277C103.053 11.7264 103.335 11.6757 103.656 11.6757C104.095 11.6757 104.466 11.7574 104.77 11.9206C105.075 12.0839 105.303 12.312 105.455 12.6048C105.607 12.8976 105.683 13.2438 105.683 13.6436L105.666 16H104.433L104.416 15.5693C104.297 15.7438 104.143 15.8761 103.951 15.9662C103.76 16.0563 103.535 16.1014 103.276 16.1014ZM103.571 15.1047C103.734 15.1047 103.875 15.071 103.993 15.0034C104.117 14.9358 104.213 14.8457 104.281 14.7331C104.354 14.6149 104.39 14.4882 104.39 14.3531V14.3362H103.833C103.557 14.3362 103.357 14.3756 103.233 14.4544C103.109 14.5276 103.047 14.6346 103.047 14.7753C103.047 14.8767 103.093 14.9583 103.183 15.0203C103.278 15.0766 103.408 15.1047 103.571 15.1047ZM106.359 17.6892V11.7771H107.6L107.651 12.3176C107.786 12.1093 107.955 11.9516 108.158 11.8446C108.366 11.732 108.605 11.6757 108.875 11.6757C109.27 11.6757 109.61 11.7658 109.897 11.946C110.185 12.1205 110.404 12.3739 110.556 12.7061C110.708 13.0327 110.784 13.4268 110.784 13.8885C110.784 14.3446 110.708 14.7388 110.556 15.071C110.404 15.4032 110.185 15.6593 109.897 15.8395C109.61 16.0141 109.27 16.1014 108.875 16.1014C108.611 16.1014 108.377 16.0507 108.174 15.9493C107.977 15.8423 107.811 15.6903 107.676 15.4932V17.6892H106.359ZM108.538 14.8851C108.707 14.8851 108.856 14.8429 108.985 14.7585C109.115 14.674 109.219 14.5586 109.298 14.4122C109.377 14.2602 109.416 14.0856 109.416 13.8885C109.416 13.6915 109.379 13.5197 109.306 13.3733C109.233 13.2213 109.129 13.1031 108.994 13.0186C108.864 12.9341 108.715 12.8919 108.546 12.8919C108.377 12.8919 108.225 12.9341 108.09 13.0186C107.961 13.1031 107.859 13.2213 107.786 13.3733C107.713 13.5254 107.676 13.6971 107.676 13.8885C107.676 14.0856 107.713 14.2602 107.786 14.4122C107.859 14.5586 107.961 14.674 108.09 14.7585C108.22 14.8429 108.369 14.8851 108.538 14.8851ZM111.337 16V11.7771H112.655V16H111.337ZM111.996 11.2365C111.799 11.2365 111.624 11.1633 111.472 11.0169C111.326 10.8649 111.253 10.6904 111.253 10.4933C111.253 10.285 111.326 10.1104 111.472 9.96965C111.624 9.82325 111.799 9.75006 111.996 9.75006C112.199 9.75006 112.373 9.82325 112.52 9.96965C112.666 10.1104 112.739 10.285 112.739 10.4933C112.739 10.6904 112.666 10.8649 112.52 11.0169C112.373 11.1633 112.199 11.2365 111.996 11.2365ZM115.116 16.1014C114.721 16.1014 114.381 16.0141 114.094 15.8395C113.812 15.6593 113.593 15.4032 113.435 15.071C113.283 14.7388 113.207 14.3446 113.207 13.8885C113.207 13.4268 113.283 13.0327 113.435 12.7061C113.593 12.3739 113.812 12.1205 114.094 11.946C114.381 11.7658 114.721 11.6757 115.116 11.6757C115.38 11.6757 115.611 11.7292 115.808 11.8362C116.011 11.9375 116.18 12.0839 116.315 12.2754V10.0879H117.632V16H116.374L116.34 15.4679C116.211 15.6706 116.042 15.8283 115.833 15.9409C115.625 16.0479 115.386 16.1014 115.116 16.1014ZM115.462 14.8851C115.62 14.8851 115.757 14.8485 115.876 14.7753C116 14.7022 116.098 14.598 116.171 14.4629C116.25 14.3221 116.298 14.1672 116.315 13.9983V13.7787C116.298 13.6098 116.25 13.4578 116.171 13.3227C116.098 13.1875 116 13.0834 115.876 13.0102C115.752 12.9313 115.611 12.8919 115.453 12.8919C115.285 12.8919 115.132 12.9341 114.997 13.0186C114.868 13.1031 114.764 13.2213 114.685 13.3733C114.612 13.5197 114.575 13.6915 114.575 13.8885C114.575 14.0856 114.614 14.2602 114.693 14.4122C114.772 14.5586 114.876 14.674 115.006 14.7585C115.141 14.8429 115.293 14.8851 115.462 14.8851ZM120.349 16.1014C119.91 16.1014 119.521 16.0084 119.183 15.8226C118.845 15.6368 118.581 15.3778 118.389 15.0456C118.198 14.7134 118.102 14.3277 118.102 13.8885C118.102 13.4493 118.198 13.0637 118.389 12.7314C118.581 12.3992 118.845 12.1402 119.183 11.9544C119.527 11.7686 119.921 11.6757 120.366 11.6757C120.765 11.6757 121.126 11.7714 121.447 11.9629C121.768 12.1543 122.021 12.4415 122.207 12.8244C122.398 13.2016 122.494 13.6689 122.494 14.2264H119.47C119.499 14.4685 119.597 14.6627 119.766 14.8091C119.941 14.9499 120.146 15.0203 120.383 15.0203C120.591 15.0203 120.765 14.9752 120.906 14.8851C121.047 14.7894 121.145 14.6712 121.202 14.5304L122.376 14.9274C122.263 15.1976 122.103 15.4201 121.894 15.5946C121.692 15.7691 121.458 15.8986 121.193 15.9831C120.929 16.0619 120.647 16.1014 120.349 16.1014ZM119.504 13.348H121.117C121.095 13.1847 121.041 13.0552 120.957 12.9595C120.872 12.8581 120.774 12.7849 120.661 12.7399C120.549 12.6948 120.436 12.6723 120.323 12.6723C120.216 12.6723 120.104 12.6948 119.986 12.7399C119.867 12.7793 119.763 12.8497 119.673 12.951C119.589 13.0468 119.532 13.1791 119.504 13.348Z" fill="black"/>
<path opacity="0.5" d="M52.558 24V19.8H53.926C54.198 19.8 54.438 19.856 54.646 19.968C54.858 20.08 55.022 20.236 55.138 20.436C55.258 20.636 55.318 20.868 55.318 21.132C55.318 21.388 55.264 21.616 55.156 21.816C55.048 22.016 54.9 22.174 54.712 22.29C54.524 22.402 54.306 22.458 54.058 22.458H53.068V24H52.558ZM53.068 21.996H54.058C54.278 21.996 54.458 21.916 54.598 21.756C54.742 21.592 54.814 21.384 54.814 21.132C54.814 20.872 54.73 20.662 54.562 20.502C54.394 20.342 54.18 20.262 53.92 20.262H53.068V21.996ZM55.7512 24V21H56.2312V21.534C56.3512 21.346 56.5052 21.208 56.6932 21.12C56.8852 21.032 57.0852 20.988 57.2932 20.988V21.438C57.1172 21.438 56.9472 21.468 56.7832 21.528C56.6232 21.584 56.4912 21.678 56.3872 21.81C56.2832 21.942 56.2312 22.122 56.2312 22.35V24H55.7512ZM58.9725 24.072C58.6805 24.072 58.4225 24.006 58.1985 23.874C57.9745 23.738 57.7985 23.552 57.6705 23.316C57.5465 23.08 57.4845 22.808 57.4845 22.5C57.4845 22.192 57.5465 21.92 57.6705 21.684C57.7985 21.448 57.9725 21.264 58.1925 21.132C58.4165 20.996 58.6725 20.928 58.9605 20.928C59.2405 20.928 59.4825 20.998 59.6865 21.138C59.8905 21.274 60.0485 21.466 60.1605 21.714C60.2725 21.962 60.3285 22.254 60.3285 22.59H57.9705C57.9905 22.918 58.0945 23.174 58.2825 23.358C58.4705 23.542 58.7085 23.634 58.9965 23.634C59.2085 23.634 59.3865 23.584 59.5305 23.484C59.6785 23.384 59.7925 23.252 59.8725 23.088L60.2865 23.298C60.2105 23.454 60.1085 23.59 59.9805 23.706C59.8565 23.822 59.7085 23.912 59.5365 23.976C59.3685 24.04 59.1805 24.072 58.9725 24.072ZM58.0065 22.188H59.8125C59.8005 22.016 59.7545 21.868 59.6745 21.744C59.5985 21.62 59.4985 21.524 59.3745 21.456C59.2505 21.388 59.1105 21.354 58.9545 21.354C58.8025 21.354 58.6565 21.388 58.5165 21.456C58.3765 21.52 58.2605 21.616 58.1685 21.744C58.0765 21.868 58.0225 22.016 58.0065 22.188ZM58.5585 20.574L59.2605 19.8H59.8785L59.1045 20.574H58.5585ZM60.8198 24V21H61.2998V21.534C61.4198 21.346 61.5738 21.208 61.7618 21.12C61.9538 21.032 62.1538 20.988 62.3618 20.988V21.438C62.1858 21.438 62.0158 21.468 61.8518 21.528C61.6918 21.584 61.5598 21.678 61.4558 21.81C61.3518 21.942 61.2998 22.122 61.2998 22.35V24H60.8198ZM64.0411 24.072C63.7491 24.072 63.4911 24.006 63.2671 23.874C63.0431 23.738 62.8671 23.552 62.7391 23.316C62.6151 23.08 62.5531 22.808 62.5531 22.5C62.5531 22.192 62.6151 21.92 62.7391 21.684C62.8671 21.448 63.0411 21.264 63.2611 21.132C63.4851 20.996 63.7411 20.928 64.0291 20.928C64.3091 20.928 64.5511 20.998 64.7551 21.138C64.9591 21.274 65.1171 21.466 65.2291 21.714C65.3411 21.962 65.3971 22.254 65.3971 22.59H63.0391C63.0591 22.918 63.1631 23.174 63.3511 23.358C63.5391 23.542 63.7771 23.634 64.0651 23.634C64.2771 23.634 64.4551 23.584 64.5991 23.484C64.7471 23.384 64.8611 23.252 64.9411 23.088L65.3551 23.298C65.2791 23.454 65.1771 23.59 65.0491 23.706C64.9251 23.822 64.7771 23.912 64.6051 23.976C64.4371 24.04 64.2491 24.072 64.0411 24.072ZM63.0751 22.188H64.8811C64.8691 22.016 64.8231 21.868 64.7431 21.744C64.6671 21.62 64.5671 21.524 64.4431 21.456C64.3191 21.388 64.1791 21.354 64.0231 21.354C63.8711 21.354 63.7251 21.388 63.5851 21.456C63.4451 21.52 63.3291 21.616 63.2371 21.744C63.1451 21.868 63.0911 22.016 63.0751 22.188ZM68.0785 25.2V23.496C67.9705 23.676 67.8285 23.818 67.6525 23.922C67.4805 24.022 67.2845 24.072 67.0645 24.072C66.7965 24.072 66.5605 24.006 66.3565 23.874C66.1525 23.742 65.9925 23.558 65.8765 23.322C65.7645 23.082 65.7085 22.808 65.7085 22.5C65.7085 22.188 65.7645 21.914 65.8765 21.678C65.9925 21.442 66.1525 21.258 66.3565 21.126C66.5605 20.994 66.7965 20.928 67.0645 20.928C67.2845 20.928 67.4805 20.98 67.6525 21.084C67.8285 21.188 67.9705 21.33 68.0785 21.51L68.1025 21H68.5585V25.2H68.0785ZM67.1725 23.634C67.3485 23.634 67.5045 23.586 67.6405 23.49C67.7765 23.394 67.8825 23.26 67.9585 23.088C68.0385 22.916 68.0785 22.72 68.0785 22.5C68.0785 22.28 68.0385 22.084 67.9585 21.912C67.8825 21.74 67.7765 21.606 67.6405 21.51C67.5045 21.414 67.3465 21.366 67.1665 21.366C66.9785 21.366 66.8105 21.414 66.6625 21.51C66.5185 21.606 66.4045 21.74 66.3205 21.912C66.2365 22.084 66.1945 22.28 66.1945 22.5C66.1945 22.72 66.2365 22.916 66.3205 23.088C66.4045 23.26 66.5205 23.394 66.6685 23.49C66.8165 23.586 66.9845 23.634 67.1725 23.634ZM70.3173 24.072C70.0853 24.072 69.8813 24.026 69.7053 23.934C69.5333 23.838 69.3973 23.688 69.2973 23.484C69.2013 23.276 69.1533 23.008 69.1533 22.68V21H69.6333V22.536C69.6333 22.832 69.6673 23.058 69.7353 23.214C69.8033 23.37 69.8973 23.478 70.0173 23.538C70.1413 23.594 70.2793 23.622 70.4313 23.622C70.6913 23.622 70.8933 23.528 71.0373 23.34C71.1853 23.152 71.2593 22.89 71.2593 22.554V21H71.7393V24H71.2893L71.2653 23.55C71.1653 23.718 71.0353 23.848 70.8753 23.94C70.7153 24.028 70.5293 24.072 70.3173 24.072ZM72.487 24V21H72.967V24H72.487ZM72.733 20.304C72.653 20.304 72.583 20.274 72.523 20.214C72.463 20.154 72.433 20.084 72.433 20.004C72.433 19.92 72.463 19.85 72.523 19.794C72.583 19.734 72.653 19.704 72.733 19.704C72.817 19.704 72.887 19.734 72.943 19.794C73.003 19.85 73.033 19.92 73.033 20.004C73.033 20.084 73.003 20.154 72.943 20.214C72.887 20.274 72.817 20.304 72.733 20.304ZM74.7815 24.072C74.5615 24.072 74.3695 24.04 74.2055 23.976C74.0415 23.908 73.9035 23.82 73.7915 23.712C73.6835 23.604 73.6055 23.486 73.5575 23.358L73.9775 23.184C74.0455 23.32 74.1475 23.43 74.2835 23.514C74.4195 23.598 74.5695 23.64 74.7335 23.64C74.9215 23.64 75.0795 23.604 75.2075 23.532C75.3355 23.456 75.3995 23.35 75.3995 23.214C75.3995 23.09 75.3515 22.99 75.2555 22.914C75.1635 22.838 75.0255 22.776 74.8415 22.728L74.5535 22.65C74.2815 22.578 74.0695 22.47 73.9175 22.326C73.7655 22.178 73.6895 22.012 73.6895 21.828C73.6895 21.544 73.7815 21.324 73.9655 21.168C74.1535 21.008 74.4315 20.928 74.7995 20.928C74.9755 20.928 75.1355 20.954 75.2795 21.006C75.4235 21.058 75.5475 21.132 75.6515 21.228C75.7555 21.32 75.8315 21.43 75.8795 21.558L75.4595 21.744C75.4075 21.608 75.3215 21.51 75.2015 21.45C75.0815 21.39 74.9355 21.36 74.7635 21.36C74.5795 21.36 74.4355 21.4 74.3315 21.48C74.2275 21.556 74.1755 21.664 74.1755 21.804C74.1755 21.884 74.2175 21.96 74.3015 22.032C74.3895 22.1 74.5175 22.156 74.6855 22.2L74.9855 22.278C75.1815 22.326 75.3455 22.398 75.4775 22.494C75.6095 22.586 75.7095 22.692 75.7775 22.812C75.8455 22.932 75.8795 23.06 75.8795 23.196C75.8795 23.376 75.8315 23.532 75.7355 23.664C75.6395 23.796 75.5095 23.898 75.3455 23.97C75.1815 24.038 74.9935 24.072 74.7815 24.072ZM76.2264 24.69L76.5684 23.424H77.1084L76.6404 24.69H76.2264ZM79.0323 24V21H79.5123V24H79.0323ZM79.2783 20.304C79.1983 20.304 79.1283 20.274 79.0683 20.214C79.0083 20.154 78.9783 20.084 78.9783 20.004C78.9783 19.92 79.0083 19.85 79.0683 19.794C79.1283 19.734 79.1983 19.704 79.2783 19.704C79.3623 19.704 79.4323 19.734 79.4883 19.794C79.5483 19.85 79.5783 19.92 79.5783 20.004C79.5783 20.084 79.5483 20.154 79.4883 20.214C79.4323 20.274 79.3623 20.304 79.2783 20.304ZM80.2769 24V21H80.7269L80.7509 21.45C80.8509 21.282 80.9809 21.154 81.1409 21.066C81.3009 20.974 81.4869 20.928 81.6989 20.928C81.9349 20.928 82.1389 20.976 82.3109 21.072C82.4869 21.164 82.6229 21.312 82.7189 21.516C82.8189 21.72 82.8669 21.988 82.8629 22.32V24H82.3829V22.464C82.3829 22.168 82.3489 21.942 82.2809 21.786C82.2129 21.63 82.1189 21.524 81.9989 21.468C81.8789 21.408 81.7429 21.378 81.5909 21.378C81.3269 21.378 81.1209 21.472 80.9729 21.66C80.8289 21.844 80.7569 22.106 80.7569 22.446V24H80.2769ZM84.5526 24.072C84.3326 24.072 84.1406 24.04 83.9766 23.976C83.8126 23.908 83.6746 23.82 83.5626 23.712C83.4546 23.604 83.3766 23.486 83.3286 23.358L83.7486 23.184C83.8166 23.32 83.9186 23.43 84.0546 23.514C84.1906 23.598 84.3406 23.64 84.5046 23.64C84.6926 23.64 84.8506 23.604 84.9786 23.532C85.1066 23.456 85.1706 23.35 85.1706 23.214C85.1706 23.09 85.1226 22.99 85.0266 22.914C84.9346 22.838 84.7966 22.776 84.6126 22.728L84.3246 22.65C84.0526 22.578 83.8406 22.47 83.6886 22.326C83.5366 22.178 83.4606 22.012 83.4606 21.828C83.4606 21.544 83.5526 21.324 83.7366 21.168C83.9246 21.008 84.2026 20.928 84.5706 20.928C84.7466 20.928 84.9066 20.954 85.0506 21.006C85.1946 21.058 85.3186 21.132 85.4226 21.228C85.5266 21.32 85.6026 21.43 85.6506 21.558L85.2306 21.744C85.1786 21.608 85.0926 21.51 84.9726 21.45C84.8526 21.39 84.7066 21.36 84.5346 21.36C84.3506 21.36 84.2066 21.4 84.1026 21.48C83.9986 21.556 83.9466 21.664 83.9466 21.804C83.9466 21.884 83.9886 21.96 84.0726 22.032C84.1606 22.1 84.2886 22.156 84.4566 22.2L84.7566 22.278C84.9526 22.326 85.1166 22.398 85.2486 22.494C85.3806 22.586 85.4806 22.692 85.5486 22.812C85.6166 22.932 85.6506 23.06 85.6506 23.196C85.6506 23.376 85.6026 23.532 85.5066 23.664C85.4106 23.796 85.2806 23.898 85.1166 23.97C84.9526 24.038 84.7646 24.072 84.5526 24.072ZM87.3055 24.072C87.0135 24.072 86.7875 23.996 86.6275 23.844C86.4675 23.692 86.3875 23.478 86.3875 23.202V21.426H85.8655V21H86.3875V20.064H86.8675V21H87.7675V21.426H86.8675V23.154C86.8675 23.306 86.9075 23.424 86.9875 23.508C87.0715 23.588 87.1875 23.628 87.3355 23.628C87.3835 23.628 87.4295 23.622 87.4735 23.61C87.5215 23.594 87.5835 23.558 87.6595 23.502L87.8455 23.892C87.7415 23.96 87.6475 24.006 87.5635 24.03C87.4795 24.058 87.3935 24.072 87.3055 24.072ZM89.2555 24.072C88.9035 24.072 88.6275 23.992 88.4275 23.832C88.2315 23.668 88.1335 23.442 88.1335 23.154C88.1335 22.85 88.2335 22.618 88.4335 22.458C88.6375 22.294 88.9215 22.212 89.2855 22.212H90.1195C90.0995 21.928 90.0295 21.716 89.9095 21.576C89.7895 21.432 89.6095 21.36 89.3695 21.36C89.2055 21.36 89.0635 21.394 88.9435 21.462C88.8275 21.526 88.7315 21.63 88.6555 21.774L88.2235 21.606C88.2995 21.466 88.3915 21.346 88.4995 21.246C88.6075 21.142 88.7335 21.064 88.8775 21.012C89.0215 20.956 89.1855 20.928 89.3695 20.928C89.6495 20.928 89.8795 20.984 90.0595 21.096C90.2435 21.204 90.3815 21.366 90.4735 21.582C90.5655 21.794 90.6095 22.058 90.6055 22.374L90.5995 24H90.1555L90.1315 23.598C90.0435 23.75 89.9255 23.868 89.7775 23.952C89.6295 24.032 89.4555 24.072 89.2555 24.072ZM89.2795 23.652C89.4515 23.652 89.6015 23.616 89.7295 23.544C89.8575 23.468 89.9555 23.362 90.0235 23.226C90.0955 23.09 90.1315 22.926 90.1315 22.734V22.614H89.3935C89.1135 22.614 88.9135 22.66 88.7935 22.752C88.6775 22.844 88.6195 22.976 88.6195 23.148C88.6195 23.304 88.6775 23.428 88.7935 23.52C88.9095 23.608 89.0715 23.652 89.2795 23.652ZM91.2461 24V19.8H91.7261V24H91.2461ZM92.4445 24V19.8H92.9245V24H92.4445ZM94.5908 24.072C94.2388 24.072 93.9628 23.992 93.7628 23.832C93.5668 23.668 93.4688 23.442 93.4688 23.154C93.4688 22.85 93.5688 22.618 93.7688 22.458C93.9728 22.294 94.2568 22.212 94.6208 22.212H95.4548C95.4348 21.928 95.3648 21.716 95.2448 21.576C95.1248 21.432 94.9448 21.36 94.7048 21.36C94.5408 21.36 94.3988 21.394 94.2788 21.462C94.1628 21.526 94.0668 21.63 93.9908 21.774L93.5588 21.606C93.6348 21.466 93.7268 21.346 93.8348 21.246C93.9428 21.142 94.0688 21.064 94.2128 21.012C94.3568 20.956 94.5208 20.928 94.7048 20.928C94.9848 20.928 95.2148 20.984 95.3948 21.096C95.5788 21.204 95.7168 21.366 95.8088 21.582C95.9008 21.794 95.9448 22.058 95.9408 22.374L95.9348 24H95.4908L95.4668 23.598C95.3788 23.75 95.2608 23.868 95.1128 23.952C94.9648 24.032 94.7908 24.072 94.5908 24.072ZM94.6148 23.652C94.7868 23.652 94.9368 23.616 95.0648 23.544C95.1928 23.468 95.2908 23.362 95.3588 23.226C95.4308 23.09 95.4668 22.926 95.4668 22.734V22.614H94.7288C94.4488 22.614 94.2488 22.66 94.1288 22.752C94.0128 22.844 93.9548 22.976 93.9548 23.148C93.9548 23.304 94.0128 23.428 94.1288 23.52C94.2448 23.608 94.4068 23.652 94.6148 23.652ZM97.7094 24.072C97.4174 24.072 97.1914 23.996 97.0314 23.844C96.8714 23.692 96.7914 23.478 96.7914 23.202V21.426H96.2694V21H96.7914V20.064H97.2714V21H98.1714V21.426H97.2714V23.154C97.2714 23.306 97.3114 23.424 97.3914 23.508C97.4754 23.588 97.5914 23.628 97.7394 23.628C97.7874 23.628 97.8334 23.622 97.8774 23.61C97.9254 23.594 97.9874 23.558 98.0634 23.502L98.2494 23.892C98.1454 23.96 98.0514 24.006 97.9674 24.03C97.8834 24.058 97.7974 24.072 97.7094 24.072ZM98.759 24V21H99.239V24H98.759ZM99.005 20.304C98.925 20.304 98.855 20.274 98.795 20.214C98.735 20.154 98.705 20.084 98.705 20.004C98.705 19.92 98.735 19.85 98.795 19.794C98.855 19.734 98.925 19.704 99.005 19.704C99.089 19.704 99.159 19.734 99.215 19.794C99.275 19.85 99.305 19.92 99.305 20.004C99.305 20.084 99.275 20.154 99.215 20.214C99.159 20.274 99.089 20.304 99.005 20.304ZM101.33 24.072C101.038 24.072 100.778 24.006 100.55 23.874C100.326 23.738 100.15 23.552 100.022 23.316C99.8935 23.08 99.8295 22.808 99.8295 22.5C99.8295 22.192 99.8915 21.92 100.016 21.684C100.144 21.448 100.32 21.264 100.544 21.132C100.772 20.996 101.03 20.928 101.318 20.928C101.614 20.928 101.874 20.996 102.098 21.132C102.326 21.264 102.502 21.448 102.626 21.684C102.754 21.92 102.818 22.192 102.818 22.5C102.818 22.808 102.754 23.08 102.626 23.316C102.502 23.552 102.328 23.738 102.104 23.874C101.88 24.006 101.622 24.072 101.33 24.072ZM101.33 23.628C101.53 23.628 101.704 23.58 101.852 23.484C102 23.388 102.116 23.256 102.2 23.088C102.288 22.92 102.332 22.724 102.332 22.5C102.332 22.276 102.288 22.08 102.2 21.912C102.116 21.744 101.998 21.612 101.846 21.516C101.694 21.42 101.518 21.372 101.318 21.372C101.122 21.372 100.948 21.42 100.796 21.516C100.648 21.612 100.53 21.744 100.442 21.912C100.358 22.08 100.316 22.276 100.316 22.5C100.316 22.72 100.358 22.916 100.442 23.088C100.53 23.256 100.65 23.388 100.802 23.484C100.958 23.58 101.134 23.628 101.33 23.628ZM103.364 24V21H103.814L103.838 21.45C103.938 21.282 104.068 21.154 104.228 21.066C104.388 20.974 104.574 20.928 104.786 20.928C105.022 20.928 105.226 20.976 105.398 21.072C105.574 21.164 105.71 21.312 105.806 21.516C105.906 21.72 105.954 21.988 105.95 22.32V24H105.47V22.464C105.47 22.168 105.436 21.942 105.368 21.786C105.3 21.63 105.206 21.524 105.086 21.468C104.966 21.408 104.83 21.378 104.678 21.378C104.414 21.378 104.208 21.472 104.06 21.66C103.916 21.844 103.844 22.106 103.844 22.446V24H103.364ZM106.41 24.69L106.752 23.424H107.292L106.824 24.69H106.41ZM110.524 24.072C110.228 24.072 109.966 24.006 109.738 23.874C109.51 23.738 109.332 23.552 109.204 23.316C109.076 23.08 109.012 22.808 109.012 22.5C109.012 22.192 109.074 21.92 109.198 21.684C109.326 21.448 109.504 21.264 109.732 21.132C109.96 20.996 110.22 20.928 110.512 20.928C110.8 20.928 111.058 20.994 111.286 21.126C111.514 21.258 111.688 21.444 111.808 21.684L111.37 21.882C111.29 21.722 111.174 21.598 111.022 21.51C110.87 21.418 110.696 21.372 110.5 21.372C110.304 21.372 110.13 21.42 109.978 21.516C109.83 21.612 109.712 21.746 109.624 21.918C109.54 22.086 109.498 22.28 109.498 22.5C109.498 22.72 109.54 22.916 109.624 23.088C109.712 23.256 109.832 23.388 109.984 23.484C110.14 23.58 110.316 23.628 110.512 23.628C110.708 23.628 110.882 23.578 111.034 23.478C111.19 23.378 111.308 23.238 111.388 23.058L111.826 23.256C111.706 23.512 111.532 23.712 111.304 23.856C111.076 24 110.816 24.072 110.524 24.072ZM113.638 24.072C113.346 24.072 113.086 24.006 112.858 23.874C112.634 23.738 112.458 23.552 112.33 23.316C112.202 23.08 112.138 22.808 112.138 22.5C112.138 22.192 112.2 21.92 112.324 21.684C112.452 21.448 112.628 21.264 112.852 21.132C113.08 20.996 113.338 20.928 113.626 20.928C113.922 20.928 114.182 20.996 114.406 21.132C114.634 21.264 114.81 21.448 114.934 21.684C115.062 21.92 115.126 22.192 115.126 22.5C115.126 22.808 115.062 23.08 114.934 23.316C114.81 23.552 114.636 23.738 114.412 23.874C114.188 24.006 113.93 24.072 113.638 24.072ZM113.638 23.628C113.838 23.628 114.012 23.58 114.16 23.484C114.308 23.388 114.424 23.256 114.508 23.088C114.596 22.92 114.64 22.724 114.64 22.5C114.64 22.276 114.596 22.08 114.508 21.912C114.424 21.744 114.306 21.612 114.154 21.516C114.002 21.42 113.826 21.372 113.626 21.372C113.43 21.372 113.256 21.42 113.104 21.516C112.956 21.612 112.838 21.744 112.75 21.912C112.666 22.08 112.624 22.276 112.624 22.5C112.624 22.72 112.666 22.916 112.75 23.088C112.838 23.256 112.958 23.388 113.11 23.484C113.266 23.58 113.442 23.628 113.638 23.628ZM115.672 24V21H116.122L116.146 21.42C116.238 21.26 116.356 21.138 116.5 21.054C116.644 20.97 116.812 20.928 117.004 20.928C117.244 20.928 117.448 20.984 117.616 21.096C117.788 21.208 117.912 21.378 117.988 21.606C118.072 21.386 118.194 21.218 118.354 21.102C118.518 20.986 118.712 20.928 118.936 20.928C119.272 20.928 119.536 21.04 119.728 21.264C119.924 21.488 120.02 21.828 120.016 22.284V24H119.536V22.464C119.536 22.168 119.504 21.942 119.44 21.786C119.38 21.63 119.298 21.524 119.194 21.468C119.09 21.408 118.97 21.378 118.834 21.378C118.598 21.378 118.414 21.472 118.282 21.66C118.15 21.844 118.084 22.106 118.084 22.446V24H117.604V22.464C117.604 22.168 117.572 21.942 117.508 21.786C117.448 21.63 117.364 21.524 117.256 21.468C117.152 21.408 117.032 21.378 116.896 21.378C116.664 21.378 116.482 21.472 116.35 21.66C116.218 21.844 116.152 22.106 116.152 22.446V24H115.672ZM120.686 25.2V21H121.136L121.16 21.51C121.272 21.33 121.414 21.188 121.586 21.084C121.762 20.98 121.96 20.928 122.18 20.928C122.448 20.928 122.684 20.994 122.888 21.126C123.092 21.258 123.25 21.442 123.362 21.678C123.478 21.914 123.536 22.188 123.536 22.5C123.536 22.808 123.478 23.082 123.362 23.322C123.25 23.558 123.092 23.742 122.888 23.874C122.684 24.006 122.448 24.072 122.18 24.072C121.96 24.072 121.764 24.022 121.592 23.922C121.42 23.818 121.278 23.676 121.166 23.496V25.2H120.686ZM122.072 23.634C122.26 23.634 122.426 23.586 122.57 23.49C122.718 23.394 122.834 23.26 122.918 23.088C123.006 22.916 123.05 22.72 123.05 22.5C123.05 22.28 123.008 22.084 122.924 21.912C122.844 21.74 122.73 21.606 122.582 21.51C122.434 21.414 122.266 21.366 122.078 21.366C121.902 21.366 121.744 21.414 121.604 21.51C121.468 21.606 121.36 21.74 121.28 21.912C121.204 22.084 121.166 22.28 121.166 22.5C121.166 22.72 121.204 22.916 121.28 23.088C121.36 23.26 121.468 23.394 121.604 23.49C121.74 23.586 121.896 23.634 122.072 23.634ZM124.111 24V21H124.591V24H124.111ZM124.357 20.304C124.277 20.304 124.207 20.274 124.147 20.214C124.087 20.154 124.057 20.084 124.057 20.004C124.057 19.92 124.087 19.85 124.147 19.794C124.207 19.734 124.277 19.704 124.357 19.704C124.441 19.704 124.511 19.734 124.567 19.794C124.627 19.85 124.657 19.92 124.657 20.004C124.657 20.084 124.627 20.154 124.567 20.214C124.511 20.274 124.441 20.304 124.357 20.304ZM125.355 24V19.8H125.835V24H125.355ZM127.502 24.072C127.15 24.072 126.874 23.992 126.674 23.832C126.478 23.668 126.38 23.442 126.38 23.154C126.38 22.85 126.48 22.618 126.68 22.458C126.884 22.294 127.168 22.212 127.532 22.212H128.366C128.346 21.928 128.276 21.716 128.156 21.576C128.036 21.432 127.856 21.36 127.616 21.36C127.452 21.36 127.31 21.394 127.19 21.462C127.074 21.526 126.978 21.63 126.902 21.774L126.47 21.606C126.546 21.466 126.638 21.346 126.746 21.246C126.854 21.142 126.98 21.064 127.124 21.012C127.268 20.956 127.432 20.928 127.616 20.928C127.896 20.928 128.126 20.984 128.306 21.096C128.49 21.204 128.628 21.366 128.72 21.582C128.812 21.794 128.856 22.058 128.852 22.374L128.846 24H128.402L128.378 23.598C128.29 23.75 128.172 23.868 128.024 23.952C127.876 24.032 127.702 24.072 127.502 24.072ZM127.526 23.652C127.698 23.652 127.848 23.616 127.976 23.544C128.104 23.468 128.202 23.362 128.27 23.226C128.342 23.09 128.378 22.926 128.378 22.734V22.614H127.64C127.36 22.614 127.16 22.66 127.04 22.752C126.924 22.844 126.866 22.976 126.866 23.148C126.866 23.304 126.924 23.428 127.04 23.52C127.156 23.608 127.318 23.652 127.526 23.652ZM130.62 24.072C130.328 24.072 130.102 23.996 129.942 23.844C129.782 23.692 129.702 23.478 129.702 23.202V21.426H129.18V21H129.702V20.064H130.182V21H131.082V21.426H130.182V23.154C130.182 23.306 130.222 23.424 130.302 23.508C130.386 23.588 130.502 23.628 130.65 23.628C130.698 23.628 130.744 23.622 130.788 23.61C130.836 23.594 130.898 23.558 130.974 23.502L131.16 23.892C131.056 23.96 130.962 24.006 130.878 24.03C130.794 24.058 130.708 24.072 130.62 24.072ZM131.67 24V21H132.15V24H131.67ZM131.916 20.304C131.836 20.304 131.766 20.274 131.706 20.214C131.646 20.154 131.616 20.084 131.616 20.004C131.616 19.92 131.646 19.85 131.706 19.794C131.766 19.734 131.836 19.704 131.916 19.704C132 19.704 132.07 19.734 132.126 19.794C132.186 19.85 132.216 19.92 132.216 20.004C132.216 20.084 132.186 20.154 132.126 20.214C132.07 20.274 132 20.304 131.916 20.304ZM134.24 24.072C133.948 24.072 133.688 24.006 133.46 23.874C133.236 23.738 133.06 23.552 132.932 23.316C132.804 23.08 132.74 22.808 132.74 22.5C132.74 22.192 132.802 21.92 132.926 21.684C133.054 21.448 133.23 21.264 133.454 21.132C133.682 20.996 133.94 20.928 134.228 20.928C134.524 20.928 134.784 20.996 135.008 21.132C135.236 21.264 135.412 21.448 135.536 21.684C135.664 21.92 135.728 22.192 135.728 22.5C135.728 22.808 135.664 23.08 135.536 23.316C135.412 23.552 135.238 23.738 135.014 23.874C134.79 24.006 134.532 24.072 134.24 24.072ZM134.24 23.628C134.44 23.628 134.614 23.58 134.762 23.484C134.91 23.388 135.026 23.256 135.11 23.088C135.198 22.92 135.242 22.724 135.242 22.5C135.242 22.276 135.198 22.08 135.11 21.912C135.026 21.744 134.908 21.612 134.756 21.516C134.604 21.42 134.428 21.372 134.228 21.372C134.032 21.372 133.858 21.42 133.706 21.516C133.558 21.612 133.44 21.744 133.352 21.912C133.268 22.08 133.226 22.276 133.226 22.5C133.226 22.72 133.268 22.916 133.352 23.088C133.44 23.256 133.56 23.388 133.712 23.484C133.868 23.58 134.044 23.628 134.24 23.628ZM136.275 24V21H136.725L136.749 21.45C136.849 21.282 136.979 21.154 137.139 21.066C137.299 20.974 137.485 20.928 137.697 20.928C137.933 20.928 138.137 20.976 138.309 21.072C138.485 21.164 138.621 21.312 138.717 21.516C138.817 21.72 138.865 21.988 138.861 22.32V24H138.381V22.464C138.381 22.168 138.347 21.942 138.279 21.786C138.211 21.63 138.117 21.524 137.997 21.468C137.877 21.408 137.741 21.378 137.589 21.378C137.325 21.378 137.119 21.472 136.971 21.66C136.827 21.844 136.755 22.106 136.755 22.446V24H136.275ZM142.177 24.072C141.885 24.072 141.627 24.006 141.403 23.874C141.179 23.738 141.003 23.552 140.875 23.316C140.751 23.08 140.689 22.808 140.689 22.5C140.689 22.192 140.751 21.92 140.875 21.684C141.003 21.448 141.177 21.264 141.397 21.132C141.621 20.996 141.877 20.928 142.165 20.928C142.445 20.928 142.687 20.998 142.891 21.138C143.095 21.274 143.253 21.466 143.365 21.714C143.477 21.962 143.533 22.254 143.533 22.59H141.175C141.195 22.918 141.299 23.174 141.487 23.358C141.675 23.542 141.913 23.634 142.201 23.634C142.413 23.634 142.591 23.584 142.735 23.484C142.883 23.384 142.997 23.252 143.077 23.088L143.491 23.298C143.415 23.454 143.313 23.59 143.185 23.706C143.061 23.822 142.913 23.912 142.741 23.976C142.573 24.04 142.385 24.072 142.177 24.072ZM141.211 22.188H143.017C143.005 22.016 142.959 21.868 142.879 21.744C142.803 21.62 142.703 21.524 142.579 21.456C142.455 21.388 142.315 21.354 142.159 21.354C142.007 21.354 141.861 21.388 141.721 21.456C141.581 21.52 141.465 21.616 141.373 21.744C141.281 21.868 141.227 22.016 141.211 22.188ZM145.146 24.072C144.854 24.072 144.628 23.996 144.468 23.844C144.308 23.692 144.228 23.478 144.228 23.202V21.426H143.706V21H144.228V20.064H144.708V21H145.608V21.426H144.708V23.154C144.708 23.306 144.748 23.424 144.828 23.508C144.912 23.588 145.028 23.628 145.176 23.628C145.224 23.628 145.27 23.622 145.314 23.61C145.362 23.594 145.424 23.558 145.5 23.502L145.686 23.892C145.582 23.96 145.488 24.006 145.404 24.03C145.32 24.058 145.234 24.072 145.146 24.072ZM147.528 24V19.8H148.008V24H147.528ZM149.675 24.072C149.323 24.072 149.047 23.992 148.847 23.832C148.651 23.668 148.553 23.442 148.553 23.154C148.553 22.85 148.653 22.618 148.853 22.458C149.057 22.294 149.341 22.212 149.705 22.212H150.539C150.519 21.928 150.449 21.716 150.329 21.576C150.209 21.432 150.029 21.36 149.789 21.36C149.625 21.36 149.483 21.394 149.363 21.462C149.247 21.526 149.151 21.63 149.075 21.774L148.643 21.606C148.719 21.466 148.811 21.346 148.919 21.246C149.027 21.142 149.153 21.064 149.297 21.012C149.441 20.956 149.605 20.928 149.789 20.928C150.069 20.928 150.299 20.984 150.479 21.096C150.663 21.204 150.801 21.366 150.893 21.582C150.985 21.794 151.029 22.058 151.025 22.374L151.019 24H150.575L150.551 23.598C150.463 23.75 150.345 23.868 150.197 23.952C150.049 24.032 149.875 24.072 149.675 24.072ZM149.699 23.652C149.871 23.652 150.021 23.616 150.149 23.544C150.277 23.468 150.375 23.362 150.443 23.226C150.515 23.09 150.551 22.926 150.551 22.734V22.614H149.813C149.533 22.614 149.333 22.66 149.213 22.752C149.097 22.844 149.039 22.976 149.039 23.148C149.039 23.304 149.097 23.428 149.213 23.52C149.329 23.608 149.491 23.652 149.699 23.652ZM151.665 24V21H152.115L152.139 21.45C152.239 21.282 152.369 21.154 152.529 21.066C152.689 20.974 152.875 20.928 153.087 20.928C153.323 20.928 153.527 20.976 153.699 21.072C153.875 21.164 154.011 21.312 154.107 21.516C154.207 21.72 154.255 21.988 154.251 22.32V24H153.771V22.464C153.771 22.168 153.737 21.942 153.669 21.786C153.601 21.63 153.507 21.524 153.387 21.468C153.267 21.408 153.131 21.378 152.979 21.378C152.715 21.378 152.509 21.472 152.361 21.66C152.217 21.844 152.145 22.106 152.145 22.446V24H151.665ZM156.229 24.072C155.933 24.072 155.671 24.006 155.443 23.874C155.215 23.738 155.037 23.552 154.909 23.316C154.781 23.08 154.717 22.808 154.717 22.5C154.717 22.192 154.779 21.92 154.903 21.684C155.031 21.448 155.209 21.264 155.437 21.132C155.665 20.996 155.925 20.928 156.217 20.928C156.505 20.928 156.763 20.994 156.991 21.126C157.219 21.258 157.393 21.444 157.513 21.684L157.075 21.882C156.995 21.722 156.879 21.598 156.727 21.51C156.575 21.418 156.401 21.372 156.205 21.372C156.009 21.372 155.835 21.42 155.683 21.516C155.535 21.612 155.417 21.746 155.329 21.918C155.245 22.086 155.203 22.28 155.203 22.5C155.203 22.72 155.245 22.916 155.329 23.088C155.417 23.256 155.537 23.388 155.689 23.484C155.845 23.58 156.021 23.628 156.217 23.628C156.413 23.628 156.587 23.578 156.739 23.478C156.895 23.378 157.013 23.238 157.093 23.058L157.531 23.256C157.411 23.512 157.237 23.712 157.009 23.856C156.781 24 156.521 24.072 156.229 24.072ZM159.331 24.072C159.039 24.072 158.781 24.006 158.557 23.874C158.333 23.738 158.157 23.552 158.029 23.316C157.905 23.08 157.843 22.808 157.843 22.5C157.843 22.192 157.905 21.92 158.029 21.684C158.157 21.448 158.331 21.264 158.551 21.132C158.775 20.996 159.031 20.928 159.319 20.928C159.599 20.928 159.841 20.998 160.045 21.138C160.249 21.274 160.407 21.466 160.519 21.714C160.631 21.962 160.687 22.254 160.687 22.59H158.329C158.349 22.918 158.453 23.174 158.641 23.358C158.829 23.542 159.067 23.634 159.355 23.634C159.567 23.634 159.745 23.584 159.889 23.484C160.037 23.384 160.151 23.252 160.231 23.088L160.645 23.298C160.569 23.454 160.467 23.59 160.339 23.706C160.215 23.822 160.067 23.912 159.895 23.976C159.727 24.04 159.539 24.072 159.331 24.072ZM158.365 22.188H160.171C160.159 22.016 160.113 21.868 160.033 21.744C159.957 21.62 159.857 21.524 159.733 21.456C159.609 21.388 159.469 21.354 159.313 21.354C159.161 21.354 159.015 21.388 158.875 21.456C158.735 21.52 158.619 21.616 158.527 21.744C158.435 21.868 158.381 22.016 158.365 22.188ZM161.172 24V21H161.622L161.646 21.42C161.738 21.26 161.856 21.138 162 21.054C162.144 20.97 162.312 20.928 162.504 20.928C162.744 20.928 162.948 20.984 163.116 21.096C163.288 21.208 163.412 21.378 163.488 21.606C163.572 21.386 163.694 21.218 163.854 21.102C164.018 20.986 164.212 20.928 164.436 20.928C164.772 20.928 165.036 21.04 165.228 21.264C165.424 21.488 165.52 21.828 165.516 22.284V24H165.036V22.464C165.036 22.168 165.004 21.942 164.94 21.786C164.88 21.63 164.798 21.524 164.694 21.468C164.59 21.408 164.47 21.378 164.334 21.378C164.098 21.378 163.914 21.472 163.782 21.66C163.65 21.844 163.584 22.106 163.584 22.446V24H163.104V22.464C163.104 22.168 163.072 21.942 163.008 21.786C162.948 21.63 162.864 21.524 162.756 21.468C162.652 21.408 162.532 21.378 162.396 21.378C162.164 21.378 161.982 21.472 161.85 21.66C161.718 21.844 161.652 22.106 161.652 22.446V24H161.172ZM167.47 24.072C167.178 24.072 166.92 24.006 166.696 23.874C166.472 23.738 166.296 23.552 166.168 23.316C166.044 23.08 165.982 22.808 165.982 22.5C165.982 22.192 166.044 21.92 166.168 21.684C166.296 21.448 166.47 21.264 166.69 21.132C166.914 20.996 167.17 20.928 167.458 20.928C167.738 20.928 167.98 20.998 168.184 21.138C168.388 21.274 168.546 21.466 168.658 21.714C168.77 21.962 168.826 22.254 168.826 22.59H166.468C166.488 22.918 166.592 23.174 166.78 23.358C166.968 23.542 167.206 23.634 167.494 23.634C167.706 23.634 167.884 23.584 168.028 23.484C168.176 23.384 168.29 23.252 168.37 23.088L168.784 23.298C168.708 23.454 168.606 23.59 168.478 23.706C168.354 23.822 168.206 23.912 168.034 23.976C167.866 24.04 167.678 24.072 167.47 24.072ZM166.504 22.188H168.31C168.298 22.016 168.252 21.868 168.172 21.744C168.096 21.62 167.996 21.524 167.872 21.456C167.748 21.388 167.608 21.354 167.452 21.354C167.3 21.354 167.154 21.388 167.014 21.456C166.874 21.52 166.758 21.616 166.666 21.744C166.574 21.868 166.52 22.016 166.504 22.188ZM169.311 24V21H169.761L169.785 21.45C169.885 21.282 170.015 21.154 170.175 21.066C170.335 20.974 170.521 20.928 170.733 20.928C170.969 20.928 171.173 20.976 171.345 21.072C171.521 21.164 171.657 21.312 171.753 21.516C171.853 21.72 171.901 21.988 171.897 22.32V24H171.417V22.464C171.417 22.168 171.383 21.942 171.315 21.786C171.247 21.63 171.153 21.524 171.033 21.468C170.913 21.408 170.777 21.378 170.625 21.378C170.361 21.378 170.155 21.472 170.007 21.66C169.863 21.844 169.791 22.106 169.791 22.446V24H169.311ZM173.665 24.072C173.373 24.072 173.147 23.996 172.987 23.844C172.827 23.692 172.747 23.478 172.747 23.202V21.426H172.225V21H172.747V20.064H173.227V21H174.127V21.426H173.227V23.154C173.227 23.306 173.267 23.424 173.347 23.508C173.431 23.588 173.547 23.628 173.695 23.628C173.743 23.628 173.789 23.622 173.833 23.61C173.881 23.594 173.943 23.558 174.019 23.502L174.205 23.892C174.101 23.96 174.007 24.006 173.923 24.03C173.839 24.058 173.753 24.072 173.665 24.072ZM176.935 24L175.681 21H176.179L177.187 23.442L178.189 21H178.693L177.439 24H176.935ZM179.074 24V21H179.554V24H179.074ZM179.32 20.304C179.24 20.304 179.17 20.274 179.11 20.214C179.05 20.154 179.02 20.084 179.02 20.004C179.02 19.92 179.05 19.85 179.11 19.794C179.17 19.734 179.24 19.704 179.32 19.704C179.404 19.704 179.474 19.734 179.53 19.794C179.59 19.85 179.62 19.92 179.62 20.004C179.62 20.084 179.59 20.154 179.53 20.214C179.474 20.274 179.404 20.304 179.32 20.304ZM181.267 24.072C180.915 24.072 180.639 23.992 180.439 23.832C180.243 23.668 180.145 23.442 180.145 23.154C180.145 22.85 180.245 22.618 180.445 22.458C180.649 22.294 180.933 22.212 181.297 22.212H182.131C182.111 21.928 182.041 21.716 181.921 21.576C181.801 21.432 181.621 21.36 181.381 21.36C181.217 21.36 181.075 21.394 180.955 21.462C180.839 21.526 180.743 21.63 180.667 21.774L180.235 21.606C180.311 21.466 180.403 21.346 180.511 21.246C180.619 21.142 180.745 21.064 180.889 21.012C181.033 20.956 181.197 20.928 181.381 20.928C181.661 20.928 181.891 20.984 182.071 21.096C182.255 21.204 182.393 21.366 182.485 21.582C182.577 21.794 182.621 22.058 182.617 22.374L182.611 24H182.167L182.143 23.598C182.055 23.75 181.937 23.868 181.789 23.952C181.641 24.032 181.467 24.072 181.267 24.072ZM181.291 23.652C181.463 23.652 181.613 23.616 181.741 23.544C181.869 23.468 181.967 23.362 182.035 23.226C182.107 23.09 182.143 22.926 182.143 22.734V22.614H181.405C181.125 22.614 180.925 22.66 180.805 22.752C180.689 22.844 180.631 22.976 180.631 23.148C180.631 23.304 180.689 23.428 180.805 23.52C180.921 23.608 181.083 23.652 181.291 23.652ZM184.758 24V19.8H185.286L186.738 21.948L188.19 19.8H188.712V24H188.208V20.616L186.738 22.806L185.268 20.628V24H184.758ZM190.522 24.072C190.17 24.072 189.894 23.992 189.694 23.832C189.498 23.668 189.4 23.442 189.4 23.154C189.4 22.85 189.5 22.618 189.7 22.458C189.904 22.294 190.188 22.212 190.552 22.212H191.386C191.366 21.928 191.296 21.716 191.176 21.576C191.056 21.432 190.876 21.36 190.636 21.36C190.472 21.36 190.33 21.394 190.21 21.462C190.094 21.526 189.998 21.63 189.922 21.774L189.49 21.606C189.566 21.466 189.658 21.346 189.766 21.246C189.874 21.142 190 21.064 190.144 21.012C190.288 20.956 190.452 20.928 190.636 20.928C190.916 20.928 191.146 20.984 191.326 21.096C191.51 21.204 191.648 21.366 191.74 21.582C191.832 21.794 191.876 22.058 191.872 22.374L191.866 24H191.422L191.398 23.598C191.31 23.75 191.192 23.868 191.044 23.952C190.896 24.032 190.722 24.072 190.522 24.072ZM190.546 23.652C190.718 23.652 190.868 23.616 190.996 23.544C191.124 23.468 191.222 23.362 191.29 23.226C191.362 23.09 191.398 22.926 191.398 22.734V22.614H190.66C190.38 22.614 190.18 22.66 190.06 22.752C189.944 22.844 189.886 22.976 189.886 23.148C189.886 23.304 189.944 23.428 190.06 23.52C190.176 23.608 190.338 23.652 190.546 23.652ZM193.354 24L192.1 21H192.598L193.606 23.442L194.608 21H195.112L193.858 24H193.354ZM196.707 24.072C196.415 24.072 196.157 24.006 195.933 23.874C195.709 23.738 195.533 23.552 195.405 23.316C195.281 23.08 195.219 22.808 195.219 22.5C195.219 22.192 195.281 21.92 195.405 21.684C195.533 21.448 195.707 21.264 195.927 21.132C196.151 20.996 196.407 20.928 196.695 20.928C196.975 20.928 197.217 20.998 197.421 21.138C197.625 21.274 197.783 21.466 197.895 21.714C198.007 21.962 198.063 22.254 198.063 22.59H195.705C195.725 22.918 195.829 23.174 196.017 23.358C196.205 23.542 196.443 23.634 196.731 23.634C196.943 23.634 197.121 23.584 197.265 23.484C197.413 23.384 197.527 23.252 197.607 23.088L198.021 23.298C197.945 23.454 197.843 23.59 197.715 23.706C197.591 23.822 197.443 23.912 197.271 23.976C197.103 24.04 196.915 24.072 196.707 24.072ZM195.741 22.188H197.547C197.535 22.016 197.489 21.868 197.409 21.744C197.333 21.62 197.233 21.524 197.109 21.456C196.985 21.388 196.845 21.354 196.689 21.354C196.537 21.354 196.391 21.388 196.251 21.456C196.111 21.52 195.995 21.616 195.903 21.744C195.811 21.868 195.757 22.016 195.741 22.188ZM198.548 24V21H198.998L199.022 21.45C199.122 21.282 199.252 21.154 199.412 21.066C199.572 20.974 199.758 20.928 199.97 20.928C200.206 20.928 200.41 20.976 200.582 21.072C200.758 21.164 200.894 21.312 200.99 21.516C201.09 21.72 201.138 21.988 201.134 22.32V24H200.654V22.464C200.654 22.168 200.62 21.942 200.552 21.786C200.484 21.63 200.39 21.524 200.27 21.468C200.15 21.408 200.014 21.378 199.862 21.378C199.598 21.378 199.392 21.472 199.244 21.66C199.1 21.844 199.028 22.106 199.028 22.446V24H198.548ZM201.978 24.084C201.886 24.084 201.806 24.052 201.738 23.988C201.674 23.92 201.642 23.842 201.642 23.754C201.642 23.662 201.674 23.584 201.738 23.52C201.806 23.452 201.886 23.418 201.978 23.418C202.07 23.418 202.148 23.452 202.212 23.52C202.276 23.584 202.308 23.662 202.308 23.754C202.308 23.842 202.276 23.92 202.212 23.988C202.148 24.052 202.07 24.084 201.978 24.084Z" fill="black"/>
</svg>
