<svg width="89" height="20" viewBox="0 0 89 20" fill="none" xmlns="http://www.w3.org/2000/svg">
<rect x="0.166021" y="0.166021" width="88.668" height="19.668" rx="7.13891" fill="#EDEDEC"/>
<rect x="0.166021" y="0.166021" width="88.668" height="19.668" rx="7.13891" stroke="url(#paint0_radial_199_4420)" stroke-width="0.332042"/>
<path d="M7.06924 13.6409V5.73826H9.94805C10.8964 5.73826 11.6678 5.91137 12.2624 6.25757C12.8645 6.59626 13.3048 7.06289 13.5832 7.65747C13.8617 8.24452 14.001 8.91812 14.001 9.67828C14.001 10.5438 13.8354 11.2738 13.5042 11.8684C13.1806 12.4555 12.714 12.8995 12.1043 13.2006C11.5022 13.4941 10.7835 13.6409 9.94805 13.6409H7.06924ZM8.85297 12.0942H9.85773C10.4749 12.0942 10.949 11.9926 11.2802 11.7894C11.6189 11.5862 11.8522 11.304 11.9801 10.9427C12.1156 10.5814 12.1834 10.16 12.1834 9.67828C12.1834 8.8278 11.9877 8.21441 11.5963 7.8381C11.2125 7.45426 10.6329 7.26234 9.85773 7.26234H8.85297V12.0942ZM17.4496 13.7763C16.9077 13.7763 16.411 13.6634 15.9594 13.4377C15.5154 13.2043 15.1579 12.8694 14.8869 12.4329C14.6235 11.9964 14.4918 11.4658 14.4918 10.8411C14.4918 10.2465 14.6197 9.73096 14.8756 9.29443C15.139 8.85791 15.4965 8.51923 15.9481 8.27838C16.3997 8.03002 16.9077 7.90583 17.4722 7.90583C18.0743 7.90583 18.5974 8.03378 19.0414 8.28967C19.4855 8.53804 19.8317 8.88425 20.0801 9.3283C20.3284 9.76483 20.4526 10.2691 20.4526 10.8411C20.4526 11.4357 20.3209 11.955 20.0575 12.399C19.7941 12.8356 19.4366 13.1742 18.985 13.4151C18.5334 13.6559 18.0216 13.7763 17.4496 13.7763ZM17.4609 12.2636C17.7093 12.2636 17.9238 12.2033 18.1044 12.0829C18.285 11.9625 18.4243 11.7932 18.5221 11.5749C18.6275 11.3566 18.6802 11.1083 18.6802 10.8298C18.6802 10.5212 18.6237 10.2653 18.5108 10.0621C18.4055 9.85138 18.2587 9.69333 18.0705 9.58796C17.8899 9.48259 17.6867 9.42991 17.4609 9.42991C17.2276 9.42991 17.0169 9.48635 16.8287 9.59925C16.6481 9.71214 16.5051 9.87396 16.3997 10.0847C16.2943 10.2954 16.2416 10.5476 16.2416 10.8411C16.2416 11.1196 16.2906 11.3679 16.3884 11.5862C16.4938 11.7969 16.6368 11.9625 16.8174 12.0829C16.998 12.2033 17.2125 12.2636 17.4609 12.2636ZM23.6765 13.7763C23.1121 13.7763 22.6153 13.6559 22.1863 13.4151C21.7573 13.1742 21.4187 12.8356 21.1703 12.399C20.9294 11.955 20.809 11.4357 20.809 10.8411C20.809 10.2691 20.9257 9.76483 21.159 9.3283C21.3923 8.88425 21.7235 8.53804 22.1525 8.28967C22.5815 8.03378 23.0895 7.90583 23.6765 7.90583C24.3389 7.90583 24.9184 8.07894 25.4151 8.42515C25.9118 8.76383 26.2468 9.30572 26.4199 10.0508H24.5571C24.4819 9.83256 24.3652 9.67075 24.2071 9.56538C24.0566 9.45249 23.8685 9.39604 23.6427 9.39604C23.3943 9.39604 23.1911 9.46378 23.033 9.59925C22.8825 9.73472 22.7696 9.91159 22.6944 10.1299C22.6266 10.3481 22.5928 10.5852 22.5928 10.8411C22.5928 11.0895 22.6266 11.3265 22.6944 11.5523C22.7696 11.7706 22.8825 11.9475 23.033 12.0829C23.1911 12.2184 23.3943 12.2861 23.6427 12.2861C23.8685 12.2861 24.0566 12.2297 24.2071 12.1168C24.3652 12.0039 24.4819 11.8421 24.5571 11.6313H26.4199C26.3145 12.0905 26.1339 12.4781 25.878 12.7942C25.6221 13.1103 25.306 13.3549 24.9297 13.528C24.5609 13.6936 24.1432 13.7763 23.6765 13.7763ZM29.0195 13.7763C28.5529 13.7763 28.1578 13.6747 27.8341 13.4715C27.518 13.2608 27.2772 12.9748 27.1116 12.6135C26.9536 12.2447 26.8745 11.827 26.8745 11.3604V8.04131H28.6018V11.1459C28.6018 11.4921 28.6884 11.7743 28.8615 11.9926C29.0346 12.2109 29.2942 12.32 29.6404 12.32C29.9867 12.32 30.2463 12.2109 30.4194 11.9926C30.5925 11.7743 30.6791 11.4921 30.6791 11.1459V8.04131H32.4177V13.6409H30.6791V12.9409C30.4834 13.2194 30.2426 13.4301 29.9566 13.5731C29.6706 13.7086 29.3582 13.7763 29.0195 13.7763ZM33.0721 13.6409V8.04131H34.8107V8.67352C35.0063 8.42515 35.2397 8.23699 35.5106 8.10904C35.7891 7.97357 36.0901 7.90583 36.4138 7.90583C36.7675 7.90583 37.1175 7.99239 37.4637 8.16549C37.8099 8.3386 38.0846 8.60578 38.2878 8.96704C38.4684 8.68104 38.7168 8.43267 39.0329 8.22194C39.349 8.0112 39.7178 7.90583 40.1393 7.90583C40.5909 7.90583 40.986 7.99615 41.3247 8.17678C41.6634 8.35741 41.923 8.62836 42.1036 8.98962C42.2918 9.34336 42.3859 9.78364 42.3859 10.3105V13.6409H40.6586V10.5363C40.6586 10.1825 40.572 9.90783 40.3989 9.71214C40.2258 9.50893 39.9699 9.40733 39.6313 9.40733C39.285 9.40733 39.0254 9.50893 38.8523 9.71214C38.6867 9.91535 38.6039 10.1901 38.6039 10.5363V13.6409H36.8653V10.5363C36.8653 10.1976 36.7788 9.92664 36.6057 9.72343C36.4401 9.5127 36.1842 9.40733 35.838 9.40733C35.4993 9.40733 35.2434 9.50893 35.0703 9.71214C34.8972 9.90783 34.8107 10.1825 34.8107 10.5363V13.6409H33.0721ZM45.7044 13.7763C45.1851 13.7763 44.7072 13.6672 44.2707 13.4489C43.8342 13.2232 43.4842 12.892 43.2208 12.4555C42.9573 12.019 42.8256 11.4808 42.8256 10.8411C42.8256 10.2014 42.9536 9.66322 43.2095 9.2267C43.4654 8.79017 43.8116 8.46278 44.2481 8.24452C44.6846 8.01873 45.1701 7.90583 45.7044 7.90583C46.2614 7.90583 46.7506 8.02249 47.1721 8.25581C47.6011 8.48159 47.936 8.80899 48.1768 9.23799C48.4252 9.65946 48.5494 10.1637 48.5494 10.7508C48.5494 10.826 48.5456 10.9088 48.5381 10.9991C48.5381 11.0819 48.5306 11.1685 48.5155 11.2588H44.5642C44.5868 11.5297 44.6508 11.7442 44.7561 11.9023C44.869 12.0603 45.0045 12.177 45.1625 12.2523C45.3281 12.32 45.4899 12.3539 45.648 12.3539C45.8663 12.3539 46.0506 12.3087 46.2012 12.2184C46.3517 12.1281 46.4684 11.9888 46.5511 11.8007H48.4139C48.3311 12.1544 48.1655 12.4818 47.9172 12.7829C47.6688 13.0839 47.3565 13.3248 46.9801 13.5054C46.6114 13.686 46.1861 13.7763 45.7044 13.7763ZM44.5642 10.2879H46.7544C46.7544 9.97933 46.6528 9.73849 46.4495 9.56538C46.2463 9.39228 45.9904 9.30572 45.6819 9.30572C45.3808 9.30572 45.1324 9.39604 44.9368 9.57667C44.7411 9.74978 44.6169 9.98685 44.5642 10.2879ZM49.0361 13.6409V8.04131H50.7746V8.71867C50.9778 8.43267 51.2187 8.2257 51.4972 8.09775C51.7756 7.96981 52.088 7.90583 52.4342 7.90583C53.1341 7.90583 53.6647 8.13162 54.026 8.5832C54.3873 9.02725 54.5679 9.60678 54.5679 10.3218V13.6409H52.8406V10.5363C52.8406 10.1825 52.7541 9.9003 52.5809 9.68956C52.4078 9.4713 52.1482 9.36217 51.802 9.36217C51.4633 9.36217 51.2074 9.47507 51.0343 9.70085C50.8612 9.91912 50.7746 10.1976 50.7746 10.5363V13.6409H49.0361ZM57.435 13.6409C56.7727 13.6409 56.2722 13.4791 55.9336 13.1554C55.6024 12.8318 55.4368 12.3351 55.4368 11.6652V9.47507H54.8498V8.04131H55.4368V6.65271H57.1754V8.04131H58.3156V9.47507H57.1754V11.6878C57.1754 11.876 57.213 12.0039 57.2883 12.0716C57.3711 12.1318 57.5065 12.162 57.6947 12.162H58.3156V13.6409H57.435ZM60.5639 13.7763C60.2403 13.7763 59.9392 13.7124 59.6607 13.5844C59.3823 13.4489 59.1565 13.257 58.9834 13.0087C58.8178 12.7528 58.735 12.4442 58.735 12.0829C58.735 11.669 58.8441 11.3341 59.0624 11.0782C59.2807 10.8147 59.5704 10.6228 59.9317 10.5024C60.3005 10.382 60.7031 10.3218 61.1397 10.3218H62.4041C62.4041 10.1261 62.3702 9.95299 62.3025 9.80246C62.2347 9.65193 62.1331 9.53528 61.9977 9.45249C61.8622 9.36217 61.6928 9.31701 61.4896 9.31701C61.2789 9.31701 61.087 9.36217 60.9139 9.45249C60.7408 9.5428 60.6316 9.69709 60.5865 9.91535H58.9044C58.9345 9.50141 59.0737 9.14767 59.3221 8.85415C59.5704 8.55309 59.8865 8.31978 60.2704 8.1542C60.6617 7.98862 61.0795 7.90583 61.5235 7.90583C62.0428 7.90583 62.4982 8.00368 62.8895 8.19936C63.2884 8.38752 63.597 8.66223 63.8153 9.02349C64.0335 9.37722 64.1427 9.80622 64.1427 10.3105V11.7442C64.1427 11.9098 64.1652 12.0378 64.2104 12.1281C64.2631 12.2184 64.3948 12.2636 64.6055 12.2636V13.6409C64.2443 13.6409 63.9432 13.6183 63.7024 13.5731C63.4615 13.528 63.2583 13.4452 63.0927 13.3248C62.9272 13.1968 62.7766 13.0124 62.6412 12.7716C62.3928 13.1027 62.0993 13.3549 61.7606 13.528C61.4219 13.6936 61.023 13.7763 60.5639 13.7763ZM61.1735 12.4442C61.3918 12.4442 61.5912 12.399 61.7719 12.3087C61.96 12.2109 62.1106 12.0754 62.2235 11.9023C62.3363 11.7292 62.3928 11.5335 62.3928 11.3152V11.2475H61.3203C61.1698 11.2475 61.0305 11.2701 60.9026 11.3152C60.7746 11.3529 60.673 11.4168 60.5978 11.5072C60.5225 11.59 60.4849 11.7066 60.4849 11.8571C60.4849 12.0754 60.5564 12.2297 60.6994 12.32C60.8424 12.4028 61.0004 12.4442 61.1735 12.4442ZM67.0377 13.6409C66.3754 13.6409 65.8749 13.4791 65.5362 13.1554C65.205 12.8318 65.0395 12.3351 65.0395 11.6652V9.47507H64.4524V8.04131H65.0395V6.65271H66.778V8.04131H67.9183V9.47507H66.778V11.6878C66.778 11.876 66.8157 12.0039 66.8909 12.0716C66.9737 12.1318 67.1092 12.162 67.2973 12.162H67.9183V13.6409H67.0377ZM69.3763 7.54457C69.0828 7.54457 68.8306 7.4392 68.6199 7.22847C68.4092 7.01773 68.3038 6.7656 68.3038 6.47207C68.3038 6.17855 68.4092 5.92642 68.6199 5.71568C68.8306 5.50495 69.0828 5.39958 69.3763 5.39958C69.6849 5.39958 69.9408 5.50495 70.144 5.71568C70.3472 5.92642 70.4488 6.17855 70.4488 6.47207C70.4488 6.7656 70.3472 7.01773 70.144 7.22847C69.9408 7.4392 69.6849 7.54457 69.3763 7.54457ZM68.507 13.6409V8.04131H70.2456V13.6409H68.507ZM73.7425 13.7763C73.2006 13.7763 72.7038 13.6634 72.2523 13.4377C71.8082 13.2043 71.4507 12.8694 71.1798 12.4329C70.9163 11.9964 70.7846 11.4658 70.7846 10.8411C70.7846 10.2465 70.9126 9.73096 71.1685 9.29443C71.4319 8.85791 71.7894 8.51923 72.241 8.27838C72.6926 8.03002 73.2006 7.90583 73.765 7.90583C74.3672 7.90583 74.8902 8.03378 75.3343 8.28967C75.7783 8.53804 76.1245 8.88425 76.3729 9.3283C76.6213 9.76483 76.7455 10.2691 76.7455 10.8411C76.7455 11.4357 76.6137 11.955 76.3503 12.399C76.0869 12.8356 75.7294 13.1742 75.2778 13.4151C74.8263 13.6559 74.3145 13.7763 73.7425 13.7763ZM73.7538 12.2636C74.0021 12.2636 74.2166 12.2033 74.3973 12.0829C74.5779 11.9625 74.7171 11.7932 74.815 11.5749C74.9203 11.3566 74.973 11.1083 74.973 10.8298C74.973 10.5212 74.9166 10.2653 74.8037 10.0621C74.6983 9.85138 74.5515 9.69333 74.3634 9.58796C74.1828 9.48259 73.9795 9.42991 73.7538 9.42991C73.5204 9.42991 73.3097 9.48635 73.1215 9.59925C72.9409 9.71214 72.7979 9.87396 72.6926 10.0847C72.5872 10.2954 72.5345 10.5476 72.5345 10.8411C72.5345 11.1196 72.5834 11.3679 72.6813 11.5862C72.7866 11.7969 72.9296 11.9625 73.1103 12.0829C73.2909 12.2033 73.5054 12.2636 73.7538 12.2636ZM77.2486 13.6409V8.04131H78.9872V8.71867C79.1904 8.43267 79.4313 8.2257 79.7097 8.09775C79.9882 7.96981 80.3005 7.90583 80.6467 7.90583C81.3467 7.90583 81.8773 8.13162 82.2386 8.5832C82.5998 9.02725 82.7805 9.60678 82.7805 10.3218V13.6409H81.0532V10.5363C81.0532 10.1825 80.9666 9.9003 80.7935 9.68956C80.6204 9.4713 80.3608 9.36217 80.0145 9.36217C79.6759 9.36217 79.42 9.47507 79.2469 9.70085C79.0738 9.91912 78.9872 10.1976 78.9872 10.5363V13.6409H77.2486Z" fill="black"/>
<defs>
<radialGradient id="paint0_radial_199_4420" cx="0" cy="0" r="1" gradientUnits="userSpaceOnUse" gradientTransform="translate(44.5 10) scale(44.5 10)">
<stop stop-color="#4A4545"/>
<stop offset="0.3" stop-color="#4A4545"/>
<stop offset="1" stop-color="#4A4545"/>
</radialGradient>
</defs>
</svg>
