<svg width="234" height="33" viewBox="0 0 234 33" fill="none" xmlns="http://www.w3.org/2000/svg">
<rect width="33" height="33" rx="16.5" fill="#EDEDEC"/>
<path d="M19.9535 20.721V13.0466H12.2791M19.9535 13.0466L12.2791 20.721" stroke="black" stroke-width="1.53488" stroke-linecap="round" stroke-linejoin="round"/>
<rect x="36" width="198" height="33" rx="16.5" fill="#EDEDEC"/>
<path d="M52.5743 16V10.0879H56.4932V11.3379H53.9341V12.4781H56.0033V13.7196H53.9341V16H52.5743ZM58.9493 16.1014C58.5045 16.1014 58.1132 16.0084 57.7753 15.8226C57.4375 15.6312 57.17 15.3694 56.973 15.0372C56.7815 14.705 56.6858 14.3221 56.6858 13.8885C56.6858 13.455 56.7787 13.0721 56.9645 12.7399C57.156 12.4077 57.4206 12.1487 57.7584 11.9629C58.1019 11.7714 58.4904 11.6757 58.924 11.6757C59.3688 11.6757 59.7601 11.7714 60.0979 11.9629C60.4414 12.1487 60.706 12.4077 60.8919 12.7399C61.0833 13.0721 61.179 13.455 61.179 13.8885C61.179 14.3221 61.0833 14.705 60.8919 15.0372C60.706 15.3694 60.4442 15.6312 60.1064 15.8226C59.7686 16.0084 59.3829 16.1014 58.9493 16.1014ZM58.9493 14.8851C59.1182 14.8851 59.2674 14.8429 59.3969 14.7585C59.5321 14.674 59.6362 14.5586 59.7094 14.4122C59.7883 14.2602 59.8277 14.0856 59.8277 13.8885C59.8277 13.6915 59.7883 13.5197 59.7094 13.3733C59.6362 13.2213 59.5321 13.1031 59.3969 13.0186C59.2618 12.9341 59.107 12.8919 58.9324 12.8919C58.7579 12.8919 58.603 12.9341 58.4679 13.0186C58.3328 13.1031 58.2258 13.2213 58.1469 13.3733C58.0737 13.5197 58.0371 13.6915 58.0371 13.8885C58.0371 14.0856 58.0737 14.2602 58.1469 14.4122C58.2258 14.5586 58.3328 14.674 58.4679 14.7585C58.6087 14.8429 58.7691 14.8851 58.9493 14.8851ZM61.6522 16V11.7771H62.9698V12.5625C63.1443 12.2979 63.3668 12.098 63.637 11.9629C63.9073 11.8277 64.1832 11.7602 64.4647 11.7602V13.0439C64.2057 13.0439 63.9608 13.0721 63.7299 13.1284C63.5047 13.1847 63.3217 13.272 63.1809 13.3902C63.0402 13.5028 62.9698 13.6492 62.9698 13.8294V16H61.6522ZM64.8485 16V11.7771H66.09L66.1407 12.3092C66.2758 12.1008 66.4419 11.9432 66.639 11.8362C66.8417 11.7292 67.0641 11.6757 67.3062 11.6757C67.6553 11.6757 67.9425 11.7489 68.1677 11.8953C68.3986 12.0361 68.5675 12.2528 68.6745 12.5456C68.804 12.2641 68.9813 12.0501 69.2065 11.9038C69.4318 11.7517 69.6851 11.6757 69.9667 11.6757C70.4734 11.6757 70.8535 11.8306 71.1069 12.1402C71.3659 12.4499 71.4926 12.9313 71.4869 13.5845V16H70.1694V13.8379C70.1694 13.6126 70.144 13.4353 70.0934 13.3058C70.0483 13.1706 69.9808 13.0721 69.8907 13.0102C69.8006 12.9482 69.6936 12.9144 69.5697 12.9088C69.3276 12.9032 69.1418 12.9736 69.0123 13.12C68.8884 13.2607 68.8265 13.4775 68.8265 13.7703V16H67.5089V13.8379C67.5089 13.6126 67.4836 13.4353 67.4329 13.3058C67.3879 13.1706 67.3203 13.0721 67.2302 13.0102C67.1401 12.9482 67.0331 12.9144 66.9093 12.9088C66.6672 12.9032 66.4813 12.9736 66.3518 13.12C66.228 13.2607 66.166 13.4775 66.166 13.7703V16H64.8485ZM73.4705 16.1014C72.975 16.1014 72.5893 15.9916 72.3134 15.772C72.0375 15.5467 71.8996 15.2258 71.8996 14.8091C71.8996 14.3643 72.0432 14.0321 72.3303 13.8125C72.6175 13.5929 73.0201 13.4831 73.5381 13.4831H74.5685C74.5403 13.2635 74.4728 13.0918 74.3658 12.9679C74.2644 12.8384 74.0983 12.7737 73.8675 12.7737C73.7098 12.7737 73.5719 12.8103 73.4536 12.8835C73.3354 12.9567 73.234 13.0552 73.1496 13.1791L71.9925 12.799C72.0938 12.5907 72.2262 12.4021 72.3895 12.2331C72.5584 12.0642 72.7639 11.9291 73.006 11.8277C73.2481 11.7264 73.5296 11.6757 73.8506 11.6757C74.2898 11.6757 74.6614 11.7574 74.9654 11.9206C75.2695 12.0839 75.4975 12.312 75.6496 12.6048C75.8016 12.8976 75.8776 13.2438 75.8776 13.6436L75.8607 16H74.6276L74.6107 15.5693C74.4925 15.7438 74.3376 15.8761 74.1462 15.9662C73.9548 16.0563 73.7295 16.1014 73.4705 16.1014ZM73.7661 15.1047C73.9294 15.1047 74.0702 15.071 74.1884 15.0034C74.3123 14.9358 74.408 14.8457 74.4756 14.7331C74.5488 14.6149 74.5854 14.4882 74.5854 14.3531V14.3362H74.028C73.7521 14.3362 73.5522 14.3756 73.4283 14.4544C73.3044 14.5276 73.2425 14.6346 73.2425 14.7753C73.2425 14.8767 73.2875 14.9583 73.3776 15.0203C73.4733 15.0766 73.6028 15.1047 73.7661 15.1047ZM78.3272 16.1014C77.8261 16.1014 77.4517 15.9831 77.2039 15.7466C76.9618 15.5045 76.8408 15.161 76.8408 14.7162V12.8835H76.182V11.7771H76.8408V10.4595H78.1583V11.7771H79.1211V12.8835H78.1583V14.3868C78.1583 14.5558 78.1893 14.6796 78.2512 14.7585C78.3132 14.8373 78.4089 14.8767 78.5384 14.8767C78.589 14.8767 78.6482 14.8654 78.7157 14.8429C78.7833 14.8148 78.8452 14.781 78.9015 14.7416L79.3576 15.7044C79.2225 15.817 79.0592 15.9127 78.8678 15.9916C78.682 16.0648 78.5018 16.1014 78.3272 16.1014ZM83.3393 16.1014C82.9452 16.1014 82.6045 16.0141 82.3174 15.8395C82.0358 15.6593 81.8163 15.4032 81.6586 15.071C81.5066 14.7388 81.4306 14.3446 81.4306 13.8885C81.4306 13.4268 81.5066 13.0327 81.6586 12.7061C81.8163 12.3739 82.0358 12.1205 82.3174 11.946C82.6045 11.7658 82.9452 11.6757 83.3393 11.6757C83.604 11.6757 83.8348 11.7292 84.0319 11.8362C84.2346 11.9375 84.4035 12.0839 84.5386 12.2754V10.0879H85.8562V16H84.5978L84.564 15.4679C84.4345 15.6706 84.2656 15.8283 84.0572 15.9409C83.8489 16.0479 83.6096 16.1014 83.3393 16.1014ZM83.6856 14.8851C83.8433 14.8851 83.9812 14.8485 84.0995 14.7753C84.2233 14.7022 84.3219 14.598 84.3951 14.4629C84.4739 14.3221 84.5217 14.1672 84.5386 13.9983V13.7787C84.5217 13.6098 84.4739 13.4578 84.3951 13.3227C84.3219 13.1875 84.2233 13.0834 84.0995 13.0102C83.9756 12.9313 83.8348 12.8919 83.6772 12.8919C83.5082 12.8919 83.3562 12.9341 83.2211 13.0186C83.0916 13.1031 82.9874 13.2213 82.9086 13.3733C82.8354 13.5197 82.7988 13.6915 82.7988 13.8885C82.7988 14.0856 82.8382 14.2602 82.917 14.4122C82.9959 14.5586 83.1 14.674 83.2295 14.7585C83.3647 14.8429 83.5167 14.8851 83.6856 14.8851ZM88.5725 16.1014C88.1333 16.1014 87.7448 16.0084 87.4069 15.8226C87.0691 15.6368 86.8045 15.3778 86.613 15.0456C86.4216 14.7134 86.3259 14.3277 86.3259 13.8885C86.3259 13.4493 86.4216 13.0637 86.613 12.7314C86.8045 12.3992 87.0691 12.1402 87.4069 11.9544C87.7504 11.7686 88.1445 11.6757 88.5894 11.6757C88.9891 11.6757 89.3495 11.7714 89.6704 11.9629C89.9914 12.1543 90.2447 12.4415 90.4306 12.8244C90.622 13.2016 90.7177 13.6689 90.7177 14.2264H87.6941C87.7222 14.4685 87.8208 14.6627 87.9897 14.8091C88.1642 14.9499 88.3698 15.0203 88.6062 15.0203C88.8146 15.0203 88.9891 14.9752 89.1299 14.8851C89.2707 14.7894 89.3692 14.6712 89.4255 14.5304L90.5995 14.9274C90.4869 15.1976 90.3264 15.4201 90.1181 15.5946C89.9154 15.7691 89.6817 15.8986 89.4171 15.9831C89.1524 16.0619 88.8709 16.1014 88.5725 16.1014ZM87.7279 13.348H89.341C89.3185 13.1847 89.265 13.0552 89.1806 12.9595C89.0961 12.8581 88.9976 12.7849 88.885 12.7399C88.7723 12.6948 88.6597 12.6723 88.5471 12.6723C88.4401 12.6723 88.3275 12.6948 88.2093 12.7399C88.091 12.7793 87.9869 12.8497 87.8968 12.951C87.8123 13.0468 87.756 13.1791 87.7279 13.348ZM92.6904 16.1014C92.4145 16.1014 92.1555 16.0619 91.9134 15.9831C91.6769 15.9043 91.4686 15.7917 91.2884 15.6453C91.1139 15.4932 90.9844 15.3103 90.8999 15.0963L91.9894 14.6402C92.0626 14.781 92.164 14.888 92.2935 14.9612C92.423 15.0287 92.5553 15.0625 92.6904 15.0625C92.8256 15.0625 92.9325 15.04 93.0114 14.9949C93.0902 14.9443 93.1296 14.8767 93.1296 14.7922C93.1296 14.7022 93.0902 14.6318 93.0114 14.5811C92.9325 14.5304 92.8171 14.4854 92.6651 14.446L92.2935 14.3615C91.905 14.2602 91.6037 14.0912 91.3898 13.8547C91.1758 13.6183 91.0688 13.3452 91.0688 13.0355C91.0688 12.6019 91.218 12.2669 91.5164 12.0304C91.8149 11.794 92.2287 11.6757 92.758 11.6757C93.062 11.6757 93.3267 11.7179 93.5519 11.8024C93.7828 11.8812 93.9742 11.9938 94.1262 12.1402C94.2839 12.281 94.3965 12.4443 94.4641 12.6301L93.4168 13.0693C93.3773 12.9567 93.2957 12.8694 93.1718 12.8075C93.048 12.7455 92.9156 12.7146 92.7749 12.7146C92.651 12.7146 92.5553 12.7427 92.4877 12.799C92.4202 12.8553 92.3864 12.9257 92.3864 13.0102C92.3864 13.0777 92.4258 13.1369 92.5046 13.1875C92.5891 13.2326 92.7101 13.2748 92.8678 13.3142L93.3154 13.424C93.5801 13.4916 93.8025 13.5957 93.9826 13.7365C94.1628 13.8716 94.2979 14.0321 94.388 14.2179C94.4781 14.3981 94.5232 14.5924 94.5232 14.8007C94.5232 15.071 94.4443 15.3046 94.2867 15.5017C94.1347 15.6931 93.9207 15.8423 93.6448 15.9493C93.3689 16.0507 93.0508 16.1014 92.6904 16.1014ZM96.9293 16V10.0879H98.8634C99.4884 10.0879 100.04 10.2146 100.519 10.468C101.003 10.7213 101.38 11.0704 101.651 11.5152C101.921 11.9544 102.056 12.464 102.056 13.0439C102.056 13.6183 101.921 14.1278 101.651 14.5726C101.38 15.0175 101.003 15.3666 100.519 15.6199C100.04 15.8733 99.4884 16 98.8634 16H96.9293ZM98.2891 14.7162H98.8634C99.1224 14.7162 99.3617 14.6768 99.5813 14.598C99.8009 14.5135 99.9924 14.3981 100.156 14.2517C100.319 14.0997 100.446 13.9223 100.536 13.7196C100.626 13.5113 100.671 13.2861 100.671 13.0439C100.671 12.8018 100.626 12.5794 100.536 12.3767C100.446 12.1684 100.319 11.991 100.156 11.8446C99.9924 11.6926 99.8009 11.5772 99.5813 11.4984C99.3617 11.4139 99.1224 11.3717 98.8634 11.3717H98.2891V14.7162ZM104.616 16.1014C104.171 16.1014 103.78 16.0084 103.442 15.8226C103.104 15.6312 102.836 15.3694 102.639 15.0372C102.448 14.705 102.352 14.3221 102.352 13.8885C102.352 13.455 102.445 13.0721 102.631 12.7399C102.822 12.4077 103.087 12.1487 103.425 11.9629C103.768 11.7714 104.157 11.6757 104.59 11.6757C105.035 11.6757 105.427 11.7714 105.764 11.9629C106.108 12.1487 106.372 12.4077 106.558 12.7399C106.75 13.0721 106.845 13.455 106.845 13.8885C106.845 14.3221 106.75 14.705 106.558 15.0372C106.372 15.3694 106.111 15.6312 105.773 15.8226C105.435 16.0084 105.049 16.1014 104.616 16.1014ZM104.616 14.8851C104.785 14.8851 104.934 14.8429 105.063 14.7585C105.198 14.674 105.303 14.5586 105.376 14.4122C105.455 14.2602 105.494 14.0856 105.494 13.8885C105.494 13.6915 105.455 13.5197 105.376 13.3733C105.303 13.2213 105.198 13.1031 105.063 13.0186C104.928 12.9341 104.773 12.8919 104.599 12.8919C104.424 12.8919 104.269 12.9341 104.134 13.0186C103.999 13.1031 103.892 13.2213 103.813 13.3733C103.74 13.5197 103.704 13.6915 103.704 13.8885C103.704 14.0856 103.74 14.2602 103.813 14.4122C103.892 14.5586 103.999 14.674 104.134 14.7585C104.275 14.8429 104.436 14.8851 104.616 14.8851ZM107.319 16V11.7771H108.56L108.611 12.3176C108.752 12.1149 108.923 11.9572 109.126 11.8446C109.329 11.732 109.557 11.6757 109.81 11.6757C110.148 11.6757 110.432 11.7461 110.663 11.8869C110.894 12.022 111.066 12.2303 111.178 12.5119C111.297 12.7934 111.356 13.1537 111.356 13.5929V16H110.038V13.8379C110.038 13.6126 110.013 13.4353 109.962 13.3058C109.912 13.1706 109.838 13.0721 109.743 13.0102C109.653 12.9482 109.54 12.9144 109.405 12.9088C109.151 12.9032 108.96 12.9736 108.83 13.12C108.701 13.2607 108.636 13.4775 108.636 13.7703V16H107.319ZM111.991 16V11.7771H113.233L113.283 12.3176C113.424 12.1149 113.596 11.9572 113.799 11.8446C114.001 11.732 114.229 11.6757 114.483 11.6757C114.821 11.6757 115.105 11.7461 115.336 11.8869C115.567 12.022 115.738 12.2303 115.851 12.5119C115.969 12.7934 116.028 13.1537 116.028 13.5929V16H114.711V13.8379C114.711 13.6126 114.686 13.4353 114.635 13.3058C114.584 13.1706 114.511 13.0721 114.415 13.0102C114.325 12.9482 114.213 12.9144 114.077 12.9088C113.824 12.9032 113.633 12.9736 113.503 13.12C113.374 13.2607 113.309 13.4775 113.309 13.7703V16H111.991ZM118.691 16.1014C118.252 16.1014 117.863 16.0084 117.525 15.8226C117.188 15.6368 116.923 15.3778 116.731 15.0456C116.54 14.7134 116.444 14.3277 116.444 13.8885C116.444 13.4493 116.54 13.0637 116.731 12.7314C116.923 12.3992 117.188 12.1402 117.525 11.9544C117.869 11.7686 118.263 11.6757 118.708 11.6757C119.108 11.6757 119.468 11.7714 119.789 11.9629C120.11 12.1543 120.363 12.4415 120.549 12.8244C120.74 13.2016 120.836 13.6689 120.836 14.2264H117.813C117.841 14.4685 117.939 14.6627 118.108 14.8091C118.283 14.9499 118.488 15.0203 118.725 15.0203C118.933 15.0203 119.108 14.9752 119.248 14.8851C119.389 14.7894 119.488 14.6712 119.544 14.5304L120.718 14.9274C120.605 15.1976 120.445 15.4201 120.236 15.5946C120.034 15.7691 119.8 15.8986 119.535 15.9831C119.271 16.0619 118.989 16.1014 118.691 16.1014ZM117.846 13.348H119.459C119.437 13.1847 119.383 13.0552 119.299 12.9595C119.215 12.8581 119.116 12.7849 119.003 12.7399C118.891 12.6948 118.778 12.6723 118.666 12.6723C118.559 12.6723 118.446 12.6948 118.328 12.7399C118.209 12.7793 118.105 12.8497 118.015 12.951C117.931 13.0468 117.874 13.1791 117.846 13.348ZM117.939 11.2872L118.877 10.0879H120.304L119.215 11.2872H117.939ZM123.256 16.1014C122.817 16.1014 122.429 16.0084 122.091 15.8226C121.753 15.6368 121.488 15.3778 121.297 15.0456C121.105 14.7134 121.01 14.3277 121.01 13.8885C121.01 13.4493 121.105 13.0637 121.297 12.7314C121.488 12.3992 121.753 12.1402 122.091 11.9544C122.434 11.7686 122.828 11.6757 123.273 11.6757C123.673 11.6757 124.033 11.7714 124.354 11.9629C124.675 12.1543 124.929 12.4415 125.114 12.8244C125.306 13.2016 125.402 13.6689 125.402 14.2264H122.378C122.406 14.4685 122.505 14.6627 122.674 14.8091C122.848 14.9499 123.054 15.0203 123.29 15.0203C123.498 15.0203 123.673 14.9752 123.814 14.8851C123.954 14.7894 124.053 14.6712 124.109 14.5304L125.283 14.9274C125.171 15.1976 125.01 15.4201 124.802 15.5946C124.599 15.7691 124.366 15.8986 124.101 15.9831C123.836 16.0619 123.555 16.1014 123.256 16.1014ZM122.412 13.348H124.025C124.002 13.1847 123.949 13.0552 123.864 12.9595C123.78 12.8581 123.681 12.7849 123.569 12.7399C123.456 12.6948 123.344 12.6723 123.231 12.6723C123.124 12.6723 123.011 12.6948 122.893 12.7399C122.775 12.7793 122.671 12.8497 122.581 12.951C122.496 13.0468 122.44 13.1791 122.412 13.348ZM127.374 16.1014C127.098 16.1014 126.839 16.0619 126.597 15.9831C126.361 15.9043 126.152 15.7917 125.972 15.6453C125.798 15.4932 125.668 15.3103 125.584 15.0963L126.673 14.6402C126.746 14.781 126.848 14.888 126.977 14.9612C127.107 15.0287 127.239 15.0625 127.374 15.0625C127.509 15.0625 127.616 15.04 127.695 14.9949C127.774 14.9443 127.813 14.8767 127.813 14.7922C127.813 14.7022 127.774 14.6318 127.695 14.5811C127.616 14.5304 127.501 14.4854 127.349 14.446L126.977 14.3615C126.589 14.2602 126.288 14.0912 126.074 13.8547C125.86 13.6183 125.753 13.3452 125.753 13.0355C125.753 12.6019 125.902 12.2669 126.2 12.0304C126.499 11.794 126.913 11.6757 127.442 11.6757C127.746 11.6757 128.01 11.7179 128.236 11.8024C128.467 11.8812 128.658 11.9938 128.81 12.1402C128.968 12.281 129.08 12.4443 129.148 12.6301L128.101 13.0693C128.061 12.9567 127.98 12.8694 127.856 12.8075C127.732 12.7455 127.599 12.7146 127.459 12.7146C127.335 12.7146 127.239 12.7427 127.172 12.799C127.104 12.8553 127.07 12.9257 127.07 13.0102C127.07 13.0777 127.11 13.1369 127.188 13.1875C127.273 13.2326 127.394 13.2748 127.552 13.3142L127.999 13.424C128.264 13.4916 128.486 13.5957 128.666 13.7365C128.847 13.8716 128.982 14.0321 129.072 14.2179C129.162 14.3981 129.207 14.5924 129.207 14.8007C129.207 15.071 129.128 15.3046 128.971 15.5017C128.818 15.6931 128.605 15.8423 128.329 15.9493C128.053 16.0507 127.735 16.1014 127.374 16.1014Z" fill="black"/>
<path opacity="0.5" d="M54.328 24.072C53.928 24.072 53.574 23.98 53.266 23.796C52.958 23.608 52.716 23.352 52.54 23.028C52.364 22.7 52.276 22.324 52.276 21.9C52.276 21.476 52.362 21.102 52.534 20.778C52.71 20.45 52.95 20.194 53.254 20.01C53.562 19.822 53.914 19.728 54.31 19.728C54.562 19.728 54.804 19.774 55.036 19.866C55.268 19.954 55.476 20.08 55.66 20.244C55.844 20.404 55.986 20.59 56.086 20.802L55.648 21.024C55.568 20.856 55.458 20.71 55.318 20.586C55.178 20.462 55.022 20.366 54.85 20.298C54.678 20.226 54.498 20.19 54.31 20.19C54.018 20.19 53.756 20.264 53.524 20.412C53.292 20.556 53.11 20.756 52.978 21.012C52.85 21.268 52.786 21.564 52.786 21.9C52.786 22.236 52.852 22.534 52.984 22.794C53.116 23.054 53.298 23.258 53.53 23.406C53.766 23.55 54.032 23.622 54.328 23.622C54.52 23.622 54.702 23.584 54.874 23.508C55.046 23.428 55.2 23.32 55.336 23.184C55.476 23.048 55.586 22.892 55.666 22.716L56.11 22.938C56.006 23.158 55.862 23.354 55.678 23.526C55.498 23.698 55.29 23.832 55.054 23.928C54.822 24.024 54.58 24.072 54.328 24.072ZM57.9502 24.072C57.6582 24.072 57.3982 24.006 57.1702 23.874C56.9462 23.738 56.7702 23.552 56.6422 23.316C56.5142 23.08 56.4502 22.808 56.4502 22.5C56.4502 22.192 56.5122 21.92 56.6362 21.684C56.7642 21.448 56.9402 21.264 57.1642 21.132C57.3922 20.996 57.6502 20.928 57.9382 20.928C58.2342 20.928 58.4942 20.996 58.7182 21.132C58.9462 21.264 59.1222 21.448 59.2462 21.684C59.3742 21.92 59.4382 22.192 59.4382 22.5C59.4382 22.808 59.3742 23.08 59.2462 23.316C59.1222 23.552 58.9482 23.738 58.7242 23.874C58.5002 24.006 58.2422 24.072 57.9502 24.072ZM57.9502 23.628C58.1502 23.628 58.3242 23.58 58.4722 23.484C58.6202 23.388 58.7362 23.256 58.8202 23.088C58.9082 22.92 58.9522 22.724 58.9522 22.5C58.9522 22.276 58.9082 22.08 58.8202 21.912C58.7362 21.744 58.6182 21.612 58.4662 21.516C58.3142 21.42 58.1382 21.372 57.9382 21.372C57.7422 21.372 57.5682 21.42 57.4162 21.516C57.2682 21.612 57.1502 21.744 57.0622 21.912C56.9782 22.08 56.9362 22.276 56.9362 22.5C56.9362 22.72 56.9782 22.916 57.0622 23.088C57.1502 23.256 57.2702 23.388 57.4222 23.484C57.5782 23.58 57.7542 23.628 57.9502 23.628ZM59.9847 24V21H60.4347L60.4587 21.42C60.5507 21.26 60.6687 21.138 60.8127 21.054C60.9567 20.97 61.1247 20.928 61.3167 20.928C61.5567 20.928 61.7607 20.984 61.9287 21.096C62.1007 21.208 62.2247 21.378 62.3007 21.606C62.3847 21.386 62.5067 21.218 62.6667 21.102C62.8307 20.986 63.0247 20.928 63.2487 20.928C63.5847 20.928 63.8487 21.04 64.0407 21.264C64.2367 21.488 64.3327 21.828 64.3287 22.284V24H63.8487V22.464C63.8487 22.168 63.8167 21.942 63.7527 21.786C63.6927 21.63 63.6107 21.524 63.5067 21.468C63.4027 21.408 63.2827 21.378 63.1467 21.378C62.9107 21.378 62.7267 21.472 62.5947 21.66C62.4627 21.844 62.3967 22.106 62.3967 22.446V24H61.9167V22.464C61.9167 22.168 61.8847 21.942 61.8207 21.786C61.7607 21.63 61.6767 21.524 61.5687 21.468C61.4647 21.408 61.3447 21.378 61.2087 21.378C60.9767 21.378 60.7947 21.472 60.6627 21.66C60.5307 21.844 60.4647 22.106 60.4647 22.446V24H59.9847ZM64.9982 25.2V21H65.4482L65.4722 21.51C65.5842 21.33 65.7262 21.188 65.8982 21.084C66.0742 20.98 66.2722 20.928 66.4922 20.928C66.7602 20.928 66.9962 20.994 67.2002 21.126C67.4042 21.258 67.5622 21.442 67.6742 21.678C67.7902 21.914 67.8482 22.188 67.8482 22.5C67.8482 22.808 67.7902 23.082 67.6742 23.322C67.5622 23.558 67.4042 23.742 67.2002 23.874C66.9962 24.006 66.7602 24.072 66.4922 24.072C66.2722 24.072 66.0762 24.022 65.9042 23.922C65.7322 23.818 65.5902 23.676 65.4782 23.496V25.2H64.9982ZM66.3842 23.634C66.5722 23.634 66.7382 23.586 66.8822 23.49C67.0302 23.394 67.1462 23.26 67.2302 23.088C67.3182 22.916 67.3622 22.72 67.3622 22.5C67.3622 22.28 67.3202 22.084 67.2362 21.912C67.1562 21.74 67.0422 21.606 66.8942 21.51C66.7462 21.414 66.5782 21.366 66.3902 21.366C66.2142 21.366 66.0562 21.414 65.9162 21.51C65.7802 21.606 65.6722 21.74 65.5922 21.912C65.5162 22.084 65.4782 22.28 65.4782 22.5C65.4782 22.72 65.5162 22.916 65.5922 23.088C65.6722 23.26 65.7802 23.394 65.9162 23.49C66.0522 23.586 66.2082 23.634 66.3842 23.634ZM68.3931 24V21H68.8731V21.534C68.9931 21.346 69.1471 21.208 69.3351 21.12C69.5271 21.032 69.7271 20.988 69.9351 20.988V21.438C69.7591 21.438 69.5891 21.468 69.4251 21.528C69.2651 21.584 69.1331 21.678 69.0291 21.81C68.9251 21.942 68.8731 22.122 68.8731 22.35V24H68.3931ZM71.6145 24.072C71.3225 24.072 71.0645 24.006 70.8405 23.874C70.6165 23.738 70.4405 23.552 70.3125 23.316C70.1885 23.08 70.1265 22.808 70.1265 22.5C70.1265 22.192 70.1885 21.92 70.3125 21.684C70.4405 21.448 70.6145 21.264 70.8345 21.132C71.0585 20.996 71.3145 20.928 71.6025 20.928C71.8825 20.928 72.1245 20.998 72.3285 21.138C72.5325 21.274 72.6905 21.466 72.8025 21.714C72.9145 21.962 72.9705 22.254 72.9705 22.59H70.6125C70.6325 22.918 70.7365 23.174 70.9245 23.358C71.1125 23.542 71.3505 23.634 71.6385 23.634C71.8505 23.634 72.0285 23.584 72.1725 23.484C72.3205 23.384 72.4345 23.252 72.5145 23.088L72.9285 23.298C72.8525 23.454 72.7505 23.59 72.6225 23.706C72.4985 23.822 72.3505 23.912 72.1785 23.976C72.0105 24.04 71.8225 24.072 71.6145 24.072ZM70.6485 22.188H72.4545C72.4425 22.016 72.3965 21.868 72.3165 21.744C72.2405 21.62 72.1405 21.524 72.0165 21.456C71.8925 21.388 71.7525 21.354 71.5965 21.354C71.4445 21.354 71.2985 21.388 71.1585 21.456C71.0185 21.52 70.9025 21.616 70.8105 21.744C70.7185 21.868 70.6645 22.016 70.6485 22.188ZM73.4559 24V21H73.9059L73.9299 21.45C74.0299 21.282 74.1599 21.154 74.3199 21.066C74.4799 20.974 74.6659 20.928 74.8779 20.928C75.1139 20.928 75.3179 20.976 75.4899 21.072C75.6659 21.164 75.8019 21.312 75.8979 21.516C75.9979 21.72 76.0459 21.988 76.0419 22.32V24H75.5619V22.464C75.5619 22.168 75.5279 21.942 75.4599 21.786C75.3919 21.63 75.2979 21.524 75.1779 21.468C75.0579 21.408 74.9219 21.378 74.7699 21.378C74.5059 21.378 74.2999 21.472 74.1519 21.66C74.0079 21.844 73.9359 22.106 73.9359 22.446V24H73.4559ZM77.8636 24.072C77.5956 24.072 77.3596 24.006 77.1556 23.874C76.9516 23.742 76.7916 23.558 76.6756 23.322C76.5636 23.082 76.5076 22.808 76.5076 22.5C76.5076 22.188 76.5636 21.914 76.6756 21.678C76.7916 21.442 76.9516 21.258 77.1556 21.126C77.3596 20.994 77.5956 20.928 77.8636 20.928C78.0836 20.928 78.2796 20.98 78.4516 21.084C78.6276 21.184 78.7696 21.324 78.8776 21.504V19.8H79.3576V24H78.9016L78.8776 23.49C78.7696 23.67 78.6276 23.812 78.4516 23.916C78.2796 24.02 78.0836 24.072 77.8636 24.072ZM77.9716 23.634C78.1476 23.634 78.3016 23.588 78.4336 23.496C78.5696 23.4 78.6756 23.268 78.7516 23.1C78.8316 22.928 78.8736 22.736 78.8776 22.524V22.482C78.8736 22.266 78.8316 22.074 78.7516 21.906C78.6756 21.734 78.5696 21.602 78.4336 21.51C78.2976 21.414 78.1416 21.366 77.9656 21.366C77.7776 21.366 77.6096 21.414 77.4616 21.51C77.3136 21.606 77.1976 21.74 77.1136 21.912C77.0336 22.084 76.9936 22.28 76.9936 22.5C76.9936 22.72 77.0356 22.916 77.1196 23.088C77.2036 23.26 77.3196 23.394 77.4676 23.49C77.6156 23.586 77.7836 23.634 77.9716 23.634ZM80.0772 24V21H80.5572V21.534C80.6772 21.346 80.8312 21.208 81.0192 21.12C81.2112 21.032 81.4112 20.988 81.6192 20.988V21.438C81.4432 21.438 81.2732 21.468 81.1092 21.528C80.9492 21.584 80.8172 21.678 80.7132 21.81C80.6092 21.942 80.5572 22.122 80.5572 22.35V24H80.0772ZM83.2985 24.072C83.0065 24.072 82.7485 24.006 82.5245 23.874C82.3005 23.738 82.1245 23.552 81.9965 23.316C81.8725 23.08 81.8105 22.808 81.8105 22.5C81.8105 22.192 81.8725 21.92 81.9965 21.684C82.1245 21.448 82.2985 21.264 82.5185 21.132C82.7425 20.996 82.9985 20.928 83.2865 20.928C83.5665 20.928 83.8085 20.998 84.0125 21.138C84.2165 21.274 84.3745 21.466 84.4865 21.714C84.5985 21.962 84.6545 22.254 84.6545 22.59H82.2965C82.3165 22.918 82.4205 23.174 82.6085 23.358C82.7965 23.542 83.0345 23.634 83.3225 23.634C83.5345 23.634 83.7125 23.584 83.8565 23.484C84.0045 23.384 84.1185 23.252 84.1985 23.088L84.6125 23.298C84.5365 23.454 84.4345 23.59 84.3065 23.706C84.1825 23.822 84.0345 23.912 83.8625 23.976C83.6945 24.04 83.5065 24.072 83.2985 24.072ZM82.3325 22.188H84.1385C84.1265 22.016 84.0805 21.868 84.0005 21.744C83.9245 21.62 83.8245 21.524 83.7005 21.456C83.5765 21.388 83.4365 21.354 83.2805 21.354C83.1285 21.354 82.9825 21.388 82.8425 21.456C82.7025 21.52 82.5865 21.616 82.4945 21.744C82.4025 21.868 82.3485 22.016 82.3325 22.188ZM86.5023 24V19.8H86.9823V24H86.5023ZM89.0147 24.072C88.7227 24.072 88.4647 24.006 88.2407 23.874C88.0167 23.738 87.8407 23.552 87.7127 23.316C87.5887 23.08 87.5267 22.808 87.5267 22.5C87.5267 22.192 87.5887 21.92 87.7127 21.684C87.8407 21.448 88.0147 21.264 88.2347 21.132C88.4587 20.996 88.7147 20.928 89.0027 20.928C89.2827 20.928 89.5247 20.998 89.7287 21.138C89.9327 21.274 90.0907 21.466 90.2027 21.714C90.3147 21.962 90.3707 22.254 90.3707 22.59H88.0127C88.0327 22.918 88.1367 23.174 88.3247 23.358C88.5127 23.542 88.7507 23.634 89.0387 23.634C89.2507 23.634 89.4287 23.584 89.5727 23.484C89.7207 23.384 89.8347 23.252 89.9147 23.088L90.3287 23.298C90.2527 23.454 90.1507 23.59 90.0227 23.706C89.8987 23.822 89.7507 23.912 89.5787 23.976C89.4107 24.04 89.2227 24.072 89.0147 24.072ZM88.0487 22.188H89.8547C89.8427 22.016 89.7967 21.868 89.7167 21.744C89.6407 21.62 89.5407 21.524 89.4167 21.456C89.2927 21.388 89.1527 21.354 88.9967 21.354C88.8447 21.354 88.6987 21.388 88.5587 21.456C88.4187 21.52 88.3027 21.616 88.2107 21.744C88.1187 21.868 88.0647 22.016 88.0487 22.188ZM92.5185 24V21.414H91.9665V21H92.5185V20.658C92.5185 20.346 92.5905 20.112 92.7345 19.956C92.8825 19.796 93.1065 19.716 93.4065 19.716C93.4865 19.716 93.5765 19.73 93.6765 19.758C93.7765 19.786 93.8825 19.826 93.9945 19.878L93.8145 20.256C93.7225 20.22 93.6445 20.192 93.5805 20.172C93.5165 20.152 93.4625 20.142 93.4185 20.142C93.2785 20.142 93.1725 20.188 93.1005 20.28C93.0325 20.368 92.9985 20.506 92.9985 20.694V21H93.8685V21.414H92.9985V24H92.5185ZM95.6218 24.072C95.3298 24.072 95.0698 24.006 94.8418 23.874C94.6178 23.738 94.4418 23.552 94.3138 23.316C94.1858 23.08 94.1218 22.808 94.1218 22.5C94.1218 22.192 94.1838 21.92 94.3078 21.684C94.4358 21.448 94.6118 21.264 94.8358 21.132C95.0638 20.996 95.3218 20.928 95.6098 20.928C95.9058 20.928 96.1658 20.996 96.3898 21.132C96.6178 21.264 96.7938 21.448 96.9178 21.684C97.0458 21.92 97.1098 22.192 97.1098 22.5C97.1098 22.808 97.0458 23.08 96.9178 23.316C96.7938 23.552 96.6198 23.738 96.3958 23.874C96.1718 24.006 95.9138 24.072 95.6218 24.072ZM95.6218 23.628C95.8218 23.628 95.9958 23.58 96.1438 23.484C96.2918 23.388 96.4078 23.256 96.4918 23.088C96.5798 22.92 96.6238 22.724 96.6238 22.5C96.6238 22.276 96.5798 22.08 96.4918 21.912C96.4078 21.744 96.2898 21.612 96.1378 21.516C95.9858 21.42 95.8098 21.372 95.6098 21.372C95.4138 21.372 95.2398 21.42 95.0878 21.516C94.9398 21.612 94.8218 21.744 94.7338 21.912C94.6498 22.08 94.6078 22.276 94.6078 22.5C94.6078 22.72 94.6498 22.916 94.7338 23.088C94.8218 23.256 94.9418 23.388 95.0938 23.484C95.2498 23.58 95.4258 23.628 95.6218 23.628ZM97.6563 24V21H98.1363V21.534C98.2563 21.346 98.4103 21.208 98.5983 21.12C98.7903 21.032 98.9903 20.988 99.1983 20.988V21.438C99.0223 21.438 98.8523 21.468 98.6883 21.528C98.5283 21.584 98.3963 21.678 98.2923 21.81C98.1883 21.942 98.1363 22.122 98.1363 22.35V24H97.6563ZM99.5636 24V21H100.014L100.038 21.42C100.13 21.26 100.248 21.138 100.392 21.054C100.536 20.97 100.704 20.928 100.896 20.928C101.136 20.928 101.34 20.984 101.508 21.096C101.68 21.208 101.804 21.378 101.88 21.606C101.964 21.386 102.086 21.218 102.246 21.102C102.41 20.986 102.604 20.928 102.828 20.928C103.164 20.928 103.428 21.04 103.62 21.264C103.816 21.488 103.912 21.828 103.908 22.284V24H103.428V22.464C103.428 22.168 103.396 21.942 103.332 21.786C103.272 21.63 103.19 21.524 103.086 21.468C102.982 21.408 102.862 21.378 102.726 21.378C102.49 21.378 102.306 21.472 102.174 21.66C102.042 21.844 101.976 22.106 101.976 22.446V24H101.496V22.464C101.496 22.168 101.464 21.942 101.4 21.786C101.34 21.63 101.256 21.524 101.148 21.468C101.044 21.408 100.924 21.378 100.788 21.378C100.556 21.378 100.374 21.472 100.242 21.66C100.11 21.844 100.044 22.106 100.044 22.446V24H99.5636ZM105.495 24.072C105.143 24.072 104.867 23.992 104.667 23.832C104.471 23.668 104.373 23.442 104.373 23.154C104.373 22.85 104.473 22.618 104.673 22.458C104.877 22.294 105.161 22.212 105.525 22.212H106.359C106.339 21.928 106.269 21.716 106.149 21.576C106.029 21.432 105.849 21.36 105.609 21.36C105.445 21.36 105.303 21.394 105.183 21.462C105.067 21.526 104.971 21.63 104.895 21.774L104.463 21.606C104.539 21.466 104.631 21.346 104.739 21.246C104.847 21.142 104.973 21.064 105.117 21.012C105.261 20.956 105.425 20.928 105.609 20.928C105.889 20.928 106.119 20.984 106.299 21.096C106.483 21.204 106.621 21.366 106.713 21.582C106.805 21.794 106.849 22.058 106.845 22.374L106.839 24H106.395L106.371 23.598C106.283 23.75 106.165 23.868 106.017 23.952C105.869 24.032 105.695 24.072 105.495 24.072ZM105.519 23.652C105.691 23.652 105.841 23.616 105.969 23.544C106.097 23.468 106.195 23.362 106.263 23.226C106.335 23.09 106.371 22.926 106.371 22.734V22.614H105.633C105.353 22.614 105.153 22.66 105.033 22.752C104.917 22.844 104.859 22.976 104.859 23.148C104.859 23.304 104.917 23.428 105.033 23.52C105.149 23.608 105.311 23.652 105.519 23.652ZM108.614 24.072C108.322 24.072 108.096 23.996 107.936 23.844C107.776 23.692 107.696 23.478 107.696 23.202V21.426H107.174V21H107.696V20.064H108.176V21H109.076V21.426H108.176V23.154C108.176 23.306 108.216 23.424 108.296 23.508C108.38 23.588 108.496 23.628 108.644 23.628C108.692 23.628 108.738 23.622 108.782 23.61C108.83 23.594 108.892 23.558 108.968 23.502L109.154 23.892C109.05 23.96 108.956 24.006 108.872 24.03C108.788 24.058 108.702 24.072 108.614 24.072ZM112.904 24.072C112.504 24.072 112.15 23.98 111.842 23.796C111.534 23.608 111.292 23.352 111.116 23.028C110.94 22.7 110.852 22.324 110.852 21.9C110.852 21.476 110.938 21.102 111.11 20.778C111.286 20.45 111.526 20.194 111.83 20.01C112.138 19.822 112.49 19.728 112.886 19.728C113.138 19.728 113.38 19.774 113.612 19.866C113.844 19.954 114.052 20.08 114.236 20.244C114.42 20.404 114.562 20.59 114.662 20.802L114.224 21.024C114.144 20.856 114.034 20.71 113.894 20.586C113.754 20.462 113.598 20.366 113.426 20.298C113.254 20.226 113.074 20.19 112.886 20.19C112.594 20.19 112.332 20.264 112.1 20.412C111.868 20.556 111.686 20.756 111.554 21.012C111.426 21.268 111.362 21.564 111.362 21.9C111.362 22.236 111.428 22.534 111.56 22.794C111.692 23.054 111.874 23.258 112.106 23.406C112.342 23.55 112.608 23.622 112.904 23.622C113.096 23.622 113.278 23.584 113.45 23.508C113.622 23.428 113.776 23.32 113.912 23.184C114.052 23.048 114.162 22.892 114.242 22.716L114.686 22.938C114.582 23.158 114.438 23.354 114.254 23.526C114.074 23.698 113.866 23.832 113.63 23.928C113.398 24.024 113.156 24.072 112.904 24.072ZM116.682 24.072C116.45 24.072 116.244 24.048 116.064 24C115.884 23.948 115.728 23.878 115.596 23.79C115.464 23.698 115.356 23.598 115.272 23.49C115.188 23.378 115.126 23.26 115.086 23.136L115.572 22.968C115.632 23.144 115.752 23.298 115.932 23.43C116.116 23.558 116.34 23.622 116.604 23.622C116.928 23.622 117.182 23.558 117.366 23.43C117.55 23.302 117.642 23.132 117.642 22.92C117.642 22.724 117.56 22.566 117.396 22.446C117.232 22.322 117.016 22.226 116.748 22.158L116.286 22.038C116.098 21.99 115.924 21.92 115.764 21.828C115.608 21.732 115.482 21.612 115.386 21.468C115.294 21.32 115.248 21.144 115.248 20.94C115.248 20.56 115.37 20.264 115.614 20.052C115.862 19.836 116.218 19.728 116.682 19.728C116.958 19.728 117.196 19.774 117.396 19.866C117.596 19.954 117.758 20.068 117.882 20.208C118.01 20.344 118.1 20.492 118.152 20.652L117.672 20.82C117.596 20.62 117.468 20.464 117.288 20.352C117.108 20.236 116.89 20.178 116.634 20.178C116.366 20.178 116.152 20.244 115.992 20.376C115.836 20.504 115.758 20.68 115.758 20.904C115.758 21.096 115.82 21.244 115.944 21.348C116.068 21.448 116.23 21.522 116.43 21.57L116.892 21.684C117.3 21.78 117.612 21.94 117.828 22.164C118.048 22.384 118.158 22.622 118.158 22.878C118.158 23.098 118.102 23.3 117.99 23.484C117.878 23.664 117.712 23.808 117.492 23.916C117.276 24.02 117.006 24.072 116.682 24.072ZM120.139 24L118.399 19.8H118.933L120.421 23.424L121.909 19.8H122.443L120.703 24H120.139ZM125.35 24.072C125.082 24.072 124.846 24.006 124.642 23.874C124.438 23.742 124.278 23.558 124.162 23.322C124.05 23.082 123.994 22.808 123.994 22.5C123.994 22.188 124.05 21.914 124.162 21.678C124.278 21.442 124.438 21.258 124.642 21.126C124.846 20.994 125.082 20.928 125.35 20.928C125.57 20.928 125.766 20.98 125.938 21.084C126.114 21.184 126.256 21.324 126.364 21.504V19.8H126.844V24H126.388L126.364 23.49C126.256 23.67 126.114 23.812 125.938 23.916C125.766 24.02 125.57 24.072 125.35 24.072ZM125.458 23.634C125.634 23.634 125.788 23.588 125.92 23.496C126.056 23.4 126.162 23.268 126.238 23.1C126.318 22.928 126.36 22.736 126.364 22.524V22.482C126.36 22.266 126.318 22.074 126.238 21.906C126.162 21.734 126.056 21.602 125.92 21.51C125.784 21.414 125.628 21.366 125.452 21.366C125.264 21.366 125.096 21.414 124.948 21.51C124.8 21.606 124.684 21.74 124.6 21.912C124.52 22.084 124.48 22.28 124.48 22.5C124.48 22.72 124.522 22.916 124.606 23.088C124.69 23.26 124.806 23.394 124.954 23.49C125.102 23.586 125.27 23.634 125.458 23.634ZM128.878 24.072C128.586 24.072 128.328 24.006 128.104 23.874C127.88 23.738 127.704 23.552 127.576 23.316C127.452 23.08 127.39 22.808 127.39 22.5C127.39 22.192 127.452 21.92 127.576 21.684C127.704 21.448 127.878 21.264 128.098 21.132C128.322 20.996 128.578 20.928 128.866 20.928C129.146 20.928 129.388 20.998 129.592 21.138C129.796 21.274 129.954 21.466 130.066 21.714C130.178 21.962 130.234 22.254 130.234 22.59H127.876C127.896 22.918 128 23.174 128.188 23.358C128.376 23.542 128.614 23.634 128.902 23.634C129.114 23.634 129.292 23.584 129.436 23.484C129.584 23.384 129.698 23.252 129.778 23.088L130.192 23.298C130.116 23.454 130.014 23.59 129.886 23.706C129.762 23.822 129.614 23.912 129.442 23.976C129.274 24.04 129.086 24.072 128.878 24.072ZM127.912 22.188H129.718C129.706 22.016 129.66 21.868 129.58 21.744C129.504 21.62 129.404 21.524 129.28 21.456C129.156 21.388 129.016 21.354 128.86 21.354C128.708 21.354 128.562 21.388 128.422 21.456C128.282 21.52 128.166 21.616 128.074 21.744C127.982 21.868 127.928 22.016 127.912 22.188ZM131.769 24.072C131.549 24.072 131.357 24.04 131.193 23.976C131.029 23.908 130.891 23.82 130.779 23.712C130.671 23.604 130.593 23.486 130.545 23.358L130.965 23.184C131.033 23.32 131.135 23.43 131.271 23.514C131.407 23.598 131.557 23.64 131.721 23.64C131.909 23.64 132.067 23.604 132.195 23.532C132.323 23.456 132.387 23.35 132.387 23.214C132.387 23.09 132.339 22.99 132.243 22.914C132.151 22.838 132.013 22.776 131.829 22.728L131.541 22.65C131.269 22.578 131.057 22.47 130.905 22.326C130.753 22.178 130.677 22.012 130.677 21.828C130.677 21.544 130.769 21.324 130.953 21.168C131.141 21.008 131.419 20.928 131.787 20.928C131.963 20.928 132.123 20.954 132.267 21.006C132.411 21.058 132.535 21.132 132.639 21.228C132.743 21.32 132.819 21.43 132.867 21.558L132.447 21.744C132.395 21.608 132.309 21.51 132.189 21.45C132.069 21.39 131.923 21.36 131.751 21.36C131.567 21.36 131.423 21.4 131.319 21.48C131.215 21.556 131.163 21.664 131.163 21.804C131.163 21.884 131.205 21.96 131.289 22.032C131.377 22.1 131.505 22.156 131.673 22.2L131.973 22.278C132.169 22.326 132.333 22.398 132.465 22.494C132.597 22.586 132.697 22.692 132.765 22.812C132.833 22.932 132.867 23.06 132.867 23.196C132.867 23.376 132.819 23.532 132.723 23.664C132.627 23.796 132.497 23.898 132.333 23.97C132.169 24.038 131.981 24.072 131.769 24.072ZM134.756 24V21H135.236V21.534C135.356 21.346 135.51 21.208 135.698 21.12C135.89 21.032 136.09 20.988 136.298 20.988V21.438C136.122 21.438 135.952 21.468 135.788 21.528C135.628 21.584 135.496 21.678 135.392 21.81C135.288 21.942 135.236 22.122 135.236 22.35V24H134.756ZM137.978 24.072C137.686 24.072 137.428 24.006 137.204 23.874C136.98 23.738 136.804 23.552 136.676 23.316C136.552 23.08 136.49 22.808 136.49 22.5C136.49 22.192 136.552 21.92 136.676 21.684C136.804 21.448 136.978 21.264 137.198 21.132C137.422 20.996 137.678 20.928 137.966 20.928C138.246 20.928 138.488 20.998 138.692 21.138C138.896 21.274 139.054 21.466 139.166 21.714C139.278 21.962 139.334 22.254 139.334 22.59H136.976C136.996 22.918 137.1 23.174 137.288 23.358C137.476 23.542 137.714 23.634 138.002 23.634C138.214 23.634 138.392 23.584 138.536 23.484C138.684 23.384 138.798 23.252 138.878 23.088L139.292 23.298C139.216 23.454 139.114 23.59 138.986 23.706C138.862 23.822 138.714 23.912 138.542 23.976C138.374 24.04 138.186 24.072 137.978 24.072ZM137.012 22.188H138.818C138.806 22.016 138.76 21.868 138.68 21.744C138.604 21.62 138.504 21.524 138.38 21.456C138.256 21.388 138.116 21.354 137.96 21.354C137.808 21.354 137.662 21.388 137.522 21.456C137.382 21.52 137.266 21.616 137.174 21.744C137.082 21.868 137.028 22.016 137.012 22.188ZM137.564 20.574L138.266 19.8H138.884L138.11 20.574H137.564ZM140.875 24.072C140.655 24.072 140.463 24.04 140.299 23.976C140.135 23.908 139.997 23.82 139.885 23.712C139.777 23.604 139.699 23.486 139.651 23.358L140.071 23.184C140.139 23.32 140.241 23.43 140.377 23.514C140.513 23.598 140.663 23.64 140.827 23.64C141.015 23.64 141.173 23.604 141.301 23.532C141.429 23.456 141.493 23.35 141.493 23.214C141.493 23.09 141.445 22.99 141.349 22.914C141.257 22.838 141.119 22.776 140.935 22.728L140.647 22.65C140.375 22.578 140.163 22.47 140.011 22.326C139.859 22.178 139.783 22.012 139.783 21.828C139.783 21.544 139.875 21.324 140.059 21.168C140.247 21.008 140.525 20.928 140.893 20.928C141.069 20.928 141.229 20.954 141.373 21.006C141.517 21.058 141.641 21.132 141.745 21.228C141.849 21.32 141.925 21.43 141.973 21.558L141.553 21.744C141.501 21.608 141.415 21.51 141.295 21.45C141.175 21.39 141.029 21.36 140.857 21.36C140.673 21.36 140.529 21.4 140.425 21.48C140.321 21.556 140.269 21.664 140.269 21.804C140.269 21.884 140.311 21.96 140.395 22.032C140.483 22.1 140.611 22.156 140.779 22.2L141.079 22.278C141.275 22.326 141.439 22.398 141.571 22.494C141.703 22.586 141.803 22.692 141.871 22.812C141.939 22.932 141.973 23.06 141.973 23.196C141.973 23.376 141.925 23.532 141.829 23.664C141.733 23.796 141.603 23.898 141.439 23.97C141.275 24.038 141.087 24.072 140.875 24.072ZM143.814 24.072C143.522 24.072 143.264 24.006 143.04 23.874C142.816 23.738 142.64 23.552 142.512 23.316C142.388 23.08 142.326 22.808 142.326 22.5C142.326 22.192 142.388 21.92 142.512 21.684C142.64 21.448 142.814 21.264 143.034 21.132C143.258 20.996 143.514 20.928 143.802 20.928C144.082 20.928 144.324 20.998 144.528 21.138C144.732 21.274 144.89 21.466 145.002 21.714C145.114 21.962 145.17 22.254 145.17 22.59H142.812C142.832 22.918 142.936 23.174 143.124 23.358C143.312 23.542 143.55 23.634 143.838 23.634C144.05 23.634 144.228 23.584 144.372 23.484C144.52 23.384 144.634 23.252 144.714 23.088L145.128 23.298C145.052 23.454 144.95 23.59 144.822 23.706C144.698 23.822 144.55 23.912 144.378 23.976C144.21 24.04 144.022 24.072 143.814 24.072ZM142.848 22.188H144.654C144.642 22.016 144.596 21.868 144.516 21.744C144.44 21.62 144.34 21.524 144.216 21.456C144.092 21.388 143.952 21.354 143.796 21.354C143.644 21.354 143.498 21.388 143.358 21.456C143.218 21.52 143.102 21.616 143.01 21.744C142.918 21.868 142.864 22.016 142.848 22.188ZM146.603 24.072C146.251 24.072 145.975 23.992 145.775 23.832C145.579 23.668 145.481 23.442 145.481 23.154C145.481 22.85 145.581 22.618 145.781 22.458C145.985 22.294 146.269 22.212 146.633 22.212H147.467C147.447 21.928 147.377 21.716 147.257 21.576C147.137 21.432 146.957 21.36 146.717 21.36C146.553 21.36 146.411 21.394 146.291 21.462C146.175 21.526 146.079 21.63 146.003 21.774L145.571 21.606C145.647 21.466 145.739 21.346 145.847 21.246C145.955 21.142 146.081 21.064 146.225 21.012C146.369 20.956 146.533 20.928 146.717 20.928C146.997 20.928 147.227 20.984 147.407 21.096C147.591 21.204 147.729 21.366 147.821 21.582C147.913 21.794 147.957 22.058 147.953 22.374L147.947 24H147.503L147.479 23.598C147.391 23.75 147.273 23.868 147.125 23.952C146.977 24.032 146.803 24.072 146.603 24.072ZM146.627 23.652C146.799 23.652 146.949 23.616 147.077 23.544C147.205 23.468 147.303 23.362 147.371 23.226C147.443 23.09 147.479 22.926 147.479 22.734V22.614H146.741C146.461 22.614 146.261 22.66 146.141 22.752C146.025 22.844 145.967 22.976 145.967 23.148C145.967 23.304 146.025 23.428 146.141 23.52C146.257 23.608 146.419 23.652 146.627 23.652ZM149.68 24.072C149.448 24.072 149.244 24.026 149.068 23.934C148.896 23.838 148.76 23.688 148.66 23.484C148.564 23.276 148.516 23.008 148.516 22.68V21H148.996V22.536C148.996 22.832 149.03 23.058 149.098 23.214C149.166 23.37 149.26 23.478 149.38 23.538C149.504 23.594 149.642 23.622 149.794 23.622C150.054 23.622 150.256 23.528 150.4 23.34C150.548 23.152 150.622 22.89 150.622 22.554V21H151.102V24H150.652L150.628 23.55C150.528 23.718 150.398 23.848 150.238 23.94C150.078 24.028 149.892 24.072 149.68 24.072ZM151.46 24L152.57 22.446L151.538 21H152.108L152.834 22.056L153.548 21H154.118L153.104 22.452L154.19 24H153.614L152.834 22.836L152.042 24H151.46ZM157.224 24.072C156.932 24.072 156.674 24.006 156.45 23.874C156.226 23.738 156.05 23.552 155.922 23.316C155.798 23.08 155.736 22.808 155.736 22.5C155.736 22.192 155.798 21.92 155.922 21.684C156.05 21.448 156.224 21.264 156.444 21.132C156.668 20.996 156.924 20.928 157.212 20.928C157.492 20.928 157.734 20.998 157.938 21.138C158.142 21.274 158.3 21.466 158.412 21.714C158.524 21.962 158.58 22.254 158.58 22.59H156.222C156.242 22.918 156.346 23.174 156.534 23.358C156.722 23.542 156.96 23.634 157.248 23.634C157.46 23.634 157.638 23.584 157.782 23.484C157.93 23.384 158.044 23.252 158.124 23.088L158.538 23.298C158.462 23.454 158.36 23.59 158.232 23.706C158.108 23.822 157.96 23.912 157.788 23.976C157.62 24.04 157.432 24.072 157.224 24.072ZM156.258 22.188H158.064C158.052 22.016 158.006 21.868 157.926 21.744C157.85 21.62 157.75 21.524 157.626 21.456C157.502 21.388 157.362 21.354 157.206 21.354C157.054 21.354 156.908 21.388 156.768 21.456C156.628 21.52 156.512 21.616 156.42 21.744C156.328 21.868 156.274 22.016 156.258 22.188ZM160.193 24.072C159.901 24.072 159.675 23.996 159.515 23.844C159.355 23.692 159.275 23.478 159.275 23.202V21.426H158.753V21H159.275V20.064H159.755V21H160.655V21.426H159.755V23.154C159.755 23.306 159.795 23.424 159.875 23.508C159.959 23.588 160.075 23.628 160.223 23.628C160.271 23.628 160.317 23.622 160.361 23.61C160.409 23.594 160.471 23.558 160.547 23.502L160.733 23.892C160.629 23.96 160.535 24.006 160.451 24.03C160.367 24.058 160.281 24.072 160.193 24.072ZM163.757 24.072C163.489 24.072 163.253 24.006 163.049 23.874C162.845 23.742 162.685 23.558 162.569 23.322C162.457 23.082 162.401 22.808 162.401 22.5C162.401 22.188 162.457 21.914 162.569 21.678C162.685 21.442 162.845 21.258 163.049 21.126C163.253 20.994 163.489 20.928 163.757 20.928C163.977 20.928 164.173 20.98 164.345 21.084C164.521 21.184 164.663 21.324 164.771 21.504V19.8H165.251V24H164.795L164.771 23.49C164.663 23.67 164.521 23.812 164.345 23.916C164.173 24.02 163.977 24.072 163.757 24.072ZM163.865 23.634C164.041 23.634 164.195 23.588 164.327 23.496C164.463 23.4 164.569 23.268 164.645 23.1C164.725 22.928 164.767 22.736 164.771 22.524V22.482C164.767 22.266 164.725 22.074 164.645 21.906C164.569 21.734 164.463 21.602 164.327 21.51C164.191 21.414 164.035 21.366 163.859 21.366C163.671 21.366 163.503 21.414 163.355 21.51C163.207 21.606 163.091 21.74 163.007 21.912C162.927 22.084 162.887 22.28 162.887 22.5C162.887 22.72 162.929 22.916 163.013 23.088C163.097 23.26 163.213 23.394 163.361 23.49C163.509 23.586 163.677 23.634 163.865 23.634ZM167.285 24.072C166.993 24.072 166.735 24.006 166.511 23.874C166.287 23.738 166.111 23.552 165.983 23.316C165.859 23.08 165.797 22.808 165.797 22.5C165.797 22.192 165.859 21.92 165.983 21.684C166.111 21.448 166.285 21.264 166.505 21.132C166.729 20.996 166.985 20.928 167.273 20.928C167.553 20.928 167.795 20.998 167.999 21.138C168.203 21.274 168.361 21.466 168.473 21.714C168.585 21.962 168.641 22.254 168.641 22.59H166.283C166.303 22.918 166.407 23.174 166.595 23.358C166.783 23.542 167.021 23.634 167.309 23.634C167.521 23.634 167.699 23.584 167.843 23.484C167.991 23.384 168.105 23.252 168.185 23.088L168.599 23.298C168.523 23.454 168.421 23.59 168.293 23.706C168.169 23.822 168.021 23.912 167.849 23.976C167.681 24.04 167.493 24.072 167.285 24.072ZM166.319 22.188H168.125C168.113 22.016 168.067 21.868 167.987 21.744C167.911 21.62 167.811 21.524 167.687 21.456C167.563 21.388 167.423 21.354 167.267 21.354C167.115 21.354 166.969 21.388 166.829 21.456C166.689 21.52 166.573 21.616 166.481 21.744C166.389 21.868 166.335 22.016 166.319 22.188ZM170.176 24.072C169.956 24.072 169.764 24.04 169.6 23.976C169.436 23.908 169.298 23.82 169.186 23.712C169.078 23.604 169 23.486 168.952 23.358L169.372 23.184C169.44 23.32 169.542 23.43 169.678 23.514C169.814 23.598 169.964 23.64 170.128 23.64C170.316 23.64 170.474 23.604 170.602 23.532C170.73 23.456 170.794 23.35 170.794 23.214C170.794 23.09 170.746 22.99 170.65 22.914C170.558 22.838 170.42 22.776 170.236 22.728L169.948 22.65C169.676 22.578 169.464 22.47 169.312 22.326C169.16 22.178 169.084 22.012 169.084 21.828C169.084 21.544 169.176 21.324 169.36 21.168C169.548 21.008 169.826 20.928 170.194 20.928C170.37 20.928 170.53 20.954 170.674 21.006C170.818 21.058 170.942 21.132 171.046 21.228C171.15 21.32 171.226 21.43 171.274 21.558L170.854 21.744C170.802 21.608 170.716 21.51 170.596 21.45C170.476 21.39 170.33 21.36 170.158 21.36C169.974 21.36 169.83 21.4 169.726 21.48C169.622 21.556 169.57 21.664 169.57 21.804C169.57 21.884 169.612 21.96 169.696 22.032C169.784 22.1 169.912 22.156 170.08 22.2L170.38 22.278C170.576 22.326 170.74 22.398 170.872 22.494C171.004 22.586 171.104 22.692 171.172 22.812C171.24 22.932 171.274 23.06 171.274 23.196C171.274 23.376 171.226 23.532 171.13 23.664C171.034 23.796 170.904 23.898 170.74 23.97C170.576 24.038 170.388 24.072 170.176 24.072ZM174.501 24.072C174.205 24.072 173.943 24.006 173.715 23.874C173.487 23.738 173.309 23.552 173.181 23.316C173.053 23.08 172.989 22.808 172.989 22.5C172.989 22.192 173.051 21.92 173.175 21.684C173.303 21.448 173.481 21.264 173.709 21.132C173.937 20.996 174.197 20.928 174.489 20.928C174.777 20.928 175.035 20.994 175.263 21.126C175.491 21.258 175.665 21.444 175.785 21.684L175.347 21.882C175.267 21.722 175.151 21.598 174.999 21.51C174.847 21.418 174.673 21.372 174.477 21.372C174.281 21.372 174.107 21.42 173.955 21.516C173.807 21.612 173.689 21.746 173.601 21.918C173.517 22.086 173.475 22.28 173.475 22.5C173.475 22.72 173.517 22.916 173.601 23.088C173.689 23.256 173.809 23.388 173.961 23.484C174.117 23.58 174.293 23.628 174.489 23.628C174.685 23.628 174.859 23.578 175.011 23.478C175.167 23.378 175.285 23.238 175.365 23.058L175.803 23.256C175.683 23.512 175.509 23.712 175.281 23.856C175.053 24 174.793 24.072 174.501 24.072ZM177.616 24.072C177.324 24.072 177.064 24.006 176.836 23.874C176.612 23.738 176.436 23.552 176.308 23.316C176.18 23.08 176.116 22.808 176.116 22.5C176.116 22.192 176.178 21.92 176.302 21.684C176.43 21.448 176.606 21.264 176.83 21.132C177.058 20.996 177.316 20.928 177.604 20.928C177.9 20.928 178.16 20.996 178.384 21.132C178.612 21.264 178.788 21.448 178.912 21.684C179.04 21.92 179.104 22.192 179.104 22.5C179.104 22.808 179.04 23.08 178.912 23.316C178.788 23.552 178.614 23.738 178.39 23.874C178.166 24.006 177.908 24.072 177.616 24.072ZM177.616 23.628C177.816 23.628 177.99 23.58 178.138 23.484C178.286 23.388 178.402 23.256 178.486 23.088C178.574 22.92 178.618 22.724 178.618 22.5C178.618 22.276 178.574 22.08 178.486 21.912C178.402 21.744 178.284 21.612 178.132 21.516C177.98 21.42 177.804 21.372 177.604 21.372C177.408 21.372 177.234 21.42 177.082 21.516C176.934 21.612 176.816 21.744 176.728 21.912C176.644 22.08 176.602 22.276 176.602 22.5C176.602 22.72 176.644 22.916 176.728 23.088C176.816 23.256 176.936 23.388 177.088 23.484C177.244 23.58 177.42 23.628 177.616 23.628ZM179.65 24V21H180.13V21.534C180.25 21.346 180.404 21.208 180.592 21.12C180.784 21.032 180.984 20.988 181.192 20.988V21.438C181.016 21.438 180.846 21.468 180.682 21.528C180.522 21.584 180.39 21.678 180.286 21.81C180.182 21.942 180.13 22.122 180.13 22.35V24H179.65ZM181.557 24V21H182.037V21.534C182.157 21.346 182.311 21.208 182.499 21.12C182.691 21.032 182.891 20.988 183.099 20.988V21.438C182.923 21.438 182.753 21.468 182.589 21.528C182.429 21.584 182.297 21.678 182.193 21.81C182.089 21.942 182.037 22.122 182.037 22.35V24H181.557ZM184.779 24.072C184.487 24.072 184.229 24.006 184.005 23.874C183.781 23.738 183.605 23.552 183.477 23.316C183.353 23.08 183.291 22.808 183.291 22.5C183.291 22.192 183.353 21.92 183.477 21.684C183.605 21.448 183.779 21.264 183.999 21.132C184.223 20.996 184.479 20.928 184.767 20.928C185.047 20.928 185.289 20.998 185.493 21.138C185.697 21.274 185.855 21.466 185.967 21.714C186.079 21.962 186.135 22.254 186.135 22.59H183.777C183.797 22.918 183.901 23.174 184.089 23.358C184.277 23.542 184.515 23.634 184.803 23.634C185.015 23.634 185.193 23.584 185.337 23.484C185.485 23.384 185.599 23.252 185.679 23.088L186.093 23.298C186.017 23.454 185.915 23.59 185.787 23.706C185.663 23.822 185.515 23.912 185.343 23.976C185.175 24.04 184.987 24.072 184.779 24.072ZM183.813 22.188H185.619C185.607 22.016 185.561 21.868 185.481 21.744C185.405 21.62 185.305 21.524 185.181 21.456C185.057 21.388 184.917 21.354 184.761 21.354C184.609 21.354 184.463 21.388 184.323 21.456C184.183 21.52 184.067 21.616 183.975 21.744C183.883 21.868 183.829 22.016 183.813 22.188ZM187.67 24.072C187.45 24.072 187.258 24.04 187.094 23.976C186.93 23.908 186.792 23.82 186.68 23.712C186.572 23.604 186.494 23.486 186.446 23.358L186.866 23.184C186.934 23.32 187.036 23.43 187.172 23.514C187.308 23.598 187.458 23.64 187.622 23.64C187.81 23.64 187.968 23.604 188.096 23.532C188.224 23.456 188.288 23.35 188.288 23.214C188.288 23.09 188.24 22.99 188.144 22.914C188.052 22.838 187.914 22.776 187.73 22.728L187.442 22.65C187.17 22.578 186.958 22.47 186.806 22.326C186.654 22.178 186.578 22.012 186.578 21.828C186.578 21.544 186.67 21.324 186.854 21.168C187.042 21.008 187.32 20.928 187.688 20.928C187.864 20.928 188.024 20.954 188.168 21.006C188.312 21.058 188.436 21.132 188.54 21.228C188.644 21.32 188.72 21.43 188.768 21.558L188.348 21.744C188.296 21.608 188.21 21.51 188.09 21.45C187.97 21.39 187.824 21.36 187.652 21.36C187.468 21.36 187.324 21.4 187.22 21.48C187.116 21.556 187.064 21.664 187.064 21.804C187.064 21.884 187.106 21.96 187.19 22.032C187.278 22.1 187.406 22.156 187.574 22.2L187.874 22.278C188.07 22.326 188.234 22.398 188.366 22.494C188.498 22.586 188.598 22.692 188.666 22.812C188.734 22.932 188.768 23.06 188.768 23.196C188.768 23.376 188.72 23.532 188.624 23.664C188.528 23.796 188.398 23.898 188.234 23.97C188.07 24.038 187.882 24.072 187.67 24.072ZM189.325 25.2V21H189.775L189.799 21.51C189.911 21.33 190.053 21.188 190.225 21.084C190.401 20.98 190.599 20.928 190.819 20.928C191.087 20.928 191.323 20.994 191.527 21.126C191.731 21.258 191.889 21.442 192.001 21.678C192.117 21.914 192.175 22.188 192.175 22.5C192.175 22.808 192.117 23.082 192.001 23.322C191.889 23.558 191.731 23.742 191.527 23.874C191.323 24.006 191.087 24.072 190.819 24.072C190.599 24.072 190.403 24.022 190.231 23.922C190.059 23.818 189.917 23.676 189.805 23.496V25.2H189.325ZM190.711 23.634C190.899 23.634 191.065 23.586 191.209 23.49C191.357 23.394 191.473 23.26 191.557 23.088C191.645 22.916 191.689 22.72 191.689 22.5C191.689 22.28 191.647 22.084 191.563 21.912C191.483 21.74 191.369 21.606 191.221 21.51C191.073 21.414 190.905 21.366 190.717 21.366C190.541 21.366 190.383 21.414 190.243 21.51C190.107 21.606 189.999 21.74 189.919 21.912C189.843 22.084 189.805 22.28 189.805 22.5C189.805 22.72 189.843 22.916 189.919 23.088C189.999 23.26 190.107 23.394 190.243 23.49C190.379 23.586 190.535 23.634 190.711 23.634ZM194.046 24.072C193.754 24.072 193.494 24.006 193.266 23.874C193.042 23.738 192.866 23.552 192.738 23.316C192.61 23.08 192.546 22.808 192.546 22.5C192.546 22.192 192.608 21.92 192.732 21.684C192.86 21.448 193.036 21.264 193.26 21.132C193.488 20.996 193.746 20.928 194.034 20.928C194.33 20.928 194.59 20.996 194.814 21.132C195.042 21.264 195.218 21.448 195.342 21.684C195.47 21.92 195.534 22.192 195.534 22.5C195.534 22.808 195.47 23.08 195.342 23.316C195.218 23.552 195.044 23.738 194.82 23.874C194.596 24.006 194.338 24.072 194.046 24.072ZM194.046 23.628C194.246 23.628 194.42 23.58 194.568 23.484C194.716 23.388 194.832 23.256 194.916 23.088C195.004 22.92 195.048 22.724 195.048 22.5C195.048 22.276 195.004 22.08 194.916 21.912C194.832 21.744 194.714 21.612 194.562 21.516C194.41 21.42 194.234 21.372 194.034 21.372C193.838 21.372 193.664 21.42 193.512 21.516C193.364 21.612 193.246 21.744 193.158 21.912C193.074 22.08 193.032 22.276 193.032 22.5C193.032 22.72 193.074 22.916 193.158 23.088C193.246 23.256 193.366 23.388 193.518 23.484C193.674 23.58 193.85 23.628 194.046 23.628ZM196.08 24V21H196.53L196.554 21.45C196.654 21.282 196.784 21.154 196.944 21.066C197.104 20.974 197.29 20.928 197.502 20.928C197.738 20.928 197.942 20.976 198.114 21.072C198.29 21.164 198.426 21.312 198.522 21.516C198.622 21.72 198.67 21.988 198.666 22.32V24H198.186V22.464C198.186 22.168 198.152 21.942 198.084 21.786C198.016 21.63 197.922 21.524 197.802 21.468C197.682 21.408 197.546 21.378 197.394 21.378C197.13 21.378 196.924 21.472 196.776 21.66C196.632 21.844 196.56 22.106 196.56 22.446V24H196.08ZM200.488 24.072C200.22 24.072 199.984 24.006 199.78 23.874C199.576 23.742 199.416 23.558 199.3 23.322C199.188 23.082 199.132 22.808 199.132 22.5C199.132 22.188 199.188 21.914 199.3 21.678C199.416 21.442 199.576 21.258 199.78 21.126C199.984 20.994 200.22 20.928 200.488 20.928C200.708 20.928 200.904 20.98 201.076 21.084C201.252 21.184 201.394 21.324 201.502 21.504V19.8H201.982V24H201.526L201.502 23.49C201.394 23.67 201.252 23.812 201.076 23.916C200.904 24.02 200.708 24.072 200.488 24.072ZM200.596 23.634C200.772 23.634 200.926 23.588 201.058 23.496C201.194 23.4 201.3 23.268 201.376 23.1C201.456 22.928 201.498 22.736 201.502 22.524V22.482C201.498 22.266 201.456 22.074 201.376 21.906C201.3 21.734 201.194 21.602 201.058 21.51C200.922 21.414 200.766 21.366 200.59 21.366C200.402 21.366 200.234 21.414 200.086 21.51C199.938 21.606 199.822 21.74 199.738 21.912C199.658 22.084 199.618 22.28 199.618 22.5C199.618 22.72 199.66 22.916 199.744 23.088C199.828 23.26 199.944 23.394 200.092 23.49C200.24 23.586 200.408 23.634 200.596 23.634ZM203.65 24.072C203.298 24.072 203.022 23.992 202.822 23.832C202.626 23.668 202.528 23.442 202.528 23.154C202.528 22.85 202.628 22.618 202.828 22.458C203.032 22.294 203.316 22.212 203.68 22.212H204.514C204.494 21.928 204.424 21.716 204.304 21.576C204.184 21.432 204.004 21.36 203.764 21.36C203.6 21.36 203.458 21.394 203.338 21.462C203.222 21.526 203.126 21.63 203.05 21.774L202.618 21.606C202.694 21.466 202.786 21.346 202.894 21.246C203.002 21.142 203.128 21.064 203.272 21.012C203.416 20.956 203.58 20.928 203.764 20.928C204.044 20.928 204.274 20.984 204.454 21.096C204.638 21.204 204.776 21.366 204.868 21.582C204.96 21.794 205.004 22.058 205 22.374L204.994 24H204.55L204.526 23.598C204.438 23.75 204.32 23.868 204.172 23.952C204.024 24.032 203.85 24.072 203.65 24.072ZM203.674 23.652C203.846 23.652 203.996 23.616 204.124 23.544C204.252 23.468 204.35 23.362 204.418 23.226C204.49 23.09 204.526 22.926 204.526 22.734V22.614H203.788C203.508 22.614 203.308 22.66 203.188 22.752C203.072 22.844 203.014 22.976 203.014 23.148C203.014 23.304 203.072 23.428 203.188 23.52C203.304 23.608 203.466 23.652 203.674 23.652ZM205.64 24V21H206.09L206.114 21.45C206.214 21.282 206.344 21.154 206.504 21.066C206.664 20.974 206.85 20.928 207.062 20.928C207.298 20.928 207.502 20.976 207.674 21.072C207.85 21.164 207.986 21.312 208.082 21.516C208.182 21.72 208.23 21.988 208.226 22.32V24H207.746V22.464C207.746 22.168 207.712 21.942 207.644 21.786C207.576 21.63 207.482 21.524 207.362 21.468C207.242 21.408 207.106 21.378 206.954 21.378C206.69 21.378 206.484 21.472 206.336 21.66C206.192 21.844 206.12 22.106 206.12 22.446V24H205.64ZM210.204 24.072C209.908 24.072 209.646 24.006 209.418 23.874C209.19 23.738 209.012 23.552 208.884 23.316C208.756 23.08 208.692 22.808 208.692 22.5C208.692 22.192 208.754 21.92 208.878 21.684C209.006 21.448 209.184 21.264 209.412 21.132C209.64 20.996 209.9 20.928 210.192 20.928C210.48 20.928 210.738 20.994 210.966 21.126C211.194 21.258 211.368 21.444 211.488 21.684L211.05 21.882C210.97 21.722 210.854 21.598 210.702 21.51C210.55 21.418 210.376 21.372 210.18 21.372C209.984 21.372 209.81 21.42 209.658 21.516C209.51 21.612 209.392 21.746 209.304 21.918C209.22 22.086 209.178 22.28 209.178 22.5C209.178 22.72 209.22 22.916 209.304 23.088C209.392 23.256 209.512 23.388 209.664 23.484C209.82 23.58 209.996 23.628 210.192 23.628C210.388 23.628 210.562 23.578 210.714 23.478C210.87 23.378 210.988 23.238 211.068 23.058L211.506 23.256C211.386 23.512 211.212 23.712 210.984 23.856C210.756 24 210.496 24.072 210.204 24.072ZM213.306 24.072C213.014 24.072 212.756 24.006 212.532 23.874C212.308 23.738 212.132 23.552 212.004 23.316C211.88 23.08 211.818 22.808 211.818 22.5C211.818 22.192 211.88 21.92 212.004 21.684C212.132 21.448 212.306 21.264 212.526 21.132C212.75 20.996 213.006 20.928 213.294 20.928C213.574 20.928 213.816 20.998 214.02 21.138C214.224 21.274 214.382 21.466 214.494 21.714C214.606 21.962 214.662 22.254 214.662 22.59H212.304C212.324 22.918 212.428 23.174 212.616 23.358C212.804 23.542 213.042 23.634 213.33 23.634C213.542 23.634 213.72 23.584 213.864 23.484C214.012 23.384 214.126 23.252 214.206 23.088L214.62 23.298C214.544 23.454 214.442 23.59 214.314 23.706C214.19 23.822 214.042 23.912 213.87 23.976C213.702 24.04 213.514 24.072 213.306 24.072ZM212.34 22.188H214.146C214.134 22.016 214.088 21.868 214.008 21.744C213.932 21.62 213.832 21.524 213.708 21.456C213.584 21.388 213.444 21.354 213.288 21.354C213.136 21.354 212.99 21.388 212.85 21.456C212.71 21.52 212.594 21.616 212.502 21.744C212.41 21.868 212.356 22.016 212.34 22.188ZM216.197 24.072C215.977 24.072 215.785 24.04 215.621 23.976C215.457 23.908 215.319 23.82 215.207 23.712C215.099 23.604 215.021 23.486 214.973 23.358L215.393 23.184C215.461 23.32 215.563 23.43 215.699 23.514C215.835 23.598 215.985 23.64 216.149 23.64C216.337 23.64 216.495 23.604 216.623 23.532C216.751 23.456 216.815 23.35 216.815 23.214C216.815 23.09 216.767 22.99 216.671 22.914C216.579 22.838 216.441 22.776 216.257 22.728L215.969 22.65C215.697 22.578 215.485 22.47 215.333 22.326C215.181 22.178 215.105 22.012 215.105 21.828C215.105 21.544 215.197 21.324 215.381 21.168C215.569 21.008 215.847 20.928 216.215 20.928C216.391 20.928 216.551 20.954 216.695 21.006C216.839 21.058 216.963 21.132 217.067 21.228C217.171 21.32 217.247 21.43 217.295 21.558L216.875 21.744C216.823 21.608 216.737 21.51 216.617 21.45C216.497 21.39 216.351 21.36 216.179 21.36C215.995 21.36 215.851 21.4 215.747 21.48C215.643 21.556 215.591 21.664 215.591 21.804C215.591 21.884 215.633 21.96 215.717 22.032C215.805 22.1 215.933 22.156 216.101 22.2L216.401 22.278C216.597 22.326 216.761 22.398 216.893 22.494C217.025 22.586 217.125 22.692 217.193 22.812C217.261 22.932 217.295 23.06 217.295 23.196C217.295 23.376 217.247 23.532 217.151 23.664C217.055 23.796 216.925 23.898 216.761 23.97C216.597 24.038 216.409 24.072 216.197 24.072ZM218.026 24.084C217.934 24.084 217.854 24.052 217.786 23.988C217.722 23.92 217.69 23.842 217.69 23.754C217.69 23.662 217.722 23.584 217.786 23.52C217.854 23.452 217.934 23.418 218.026 23.418C218.118 23.418 218.196 23.452 218.26 23.52C218.324 23.584 218.356 23.662 218.356 23.754C218.356 23.842 218.324 23.92 218.26 23.988C218.196 24.052 218.118 24.084 218.026 24.084Z" fill="black"/>
</svg>
