<svg width="971" height="95" viewBox="0 0 971 95" fill="none" xmlns="http://www.w3.org/2000/svg">
<rect x="0.5" y="0.5" width="94" height="94" rx="21.5" fill="#3E0337"/>
<rect x="0.5" y="0.5" width="94" height="94" rx="21.5" stroke="url(#paint0_radial_199_3152)"/>
<path d="M27.5166 25C29.316 25 31.1154 25 32.9693 25C32.9706 25.8016 32.972 26.6033 32.9734 27.4292C32.9779 30.0007 32.9831 32.5722 32.9886 35.1437C32.9895 35.5438 32.9903 35.9439 32.9912 36.344C32.9914 36.4237 32.9915 36.5033 32.9917 36.5854C32.9944 37.8713 32.9967 39.1572 32.9988 40.4431C33.0009 41.7648 33.0036 43.0864 33.0067 44.4081C33.0087 45.2221 33.0102 46.0362 33.0112 46.8503C33.0119 47.4102 33.0132 47.9701 33.0148 48.53C33.0157 48.852 33.0164 49.174 33.0165 49.4959C33.0184 53.8146 33.3535 58.2552 36.5066 61.5214C39.3316 64.2753 43.2897 64.7312 47.048 64.7443C47.172 64.7449 47.296 64.7456 47.4199 64.7463C47.7515 64.7482 48.0831 64.7496 48.4148 64.751C48.7631 64.7526 49.1115 64.7544 49.4599 64.7563C50.1174 64.7597 50.7749 64.7628 51.4324 64.7658C52.1819 64.7692 52.9314 64.773 53.6809 64.7768C55.2206 64.7847 56.7603 64.7921 58.3 64.7992C58.2025 65.028 58.1048 65.2567 58.0071 65.4855C57.9799 65.5494 57.9526 65.6134 57.9245 65.6793C57.6671 66.2816 57.3965 66.8774 57.1224 67.4723C57.0265 67.6811 56.9307 67.8899 56.835 68.0988C56.8121 68.1486 56.7892 68.1984 56.7657 68.2498C56.5624 68.6936 56.3633 69.1393 56.1686 69.5869C56.0293 69.9053 56.0293 69.9053 55.9533 69.9813C55.803 69.9884 55.6525 69.9904 55.5021 69.9906C55.4305 69.9908 55.4305 69.9908 55.3574 69.9911C55.1962 69.9915 55.0349 69.9914 54.8737 69.9914C54.7585 69.9916 54.6433 69.9918 54.5281 69.9921C54.2137 69.9927 53.8993 69.9929 53.5849 69.9929C53.3877 69.9929 53.1905 69.9931 52.9934 69.9933C52.3033 69.9939 51.6133 69.9942 50.9232 69.9941C50.2842 69.9941 49.6452 69.9948 49.0062 69.9959C48.4554 69.9968 47.9045 69.9972 47.3537 69.9972C47.0258 69.9971 46.6979 69.9973 46.37 69.9981C42.7292 70.0057 42.7292 70.0057 40.9628 69.692C40.8776 69.6772 40.7924 69.6624 40.7046 69.6471C38.4371 69.235 36.1471 68.3904 34.2807 67.0102C34.1732 66.9319 34.1732 66.9319 34.0636 66.8521C33.5409 66.4643 33.0587 66.0392 32.5891 65.5888C32.4943 65.498 32.3987 65.4079 32.3031 65.3179C31.8664 64.8966 31.4927 64.439 31.1291 63.9548C31.0697 63.8757 31.0098 63.7969 30.9494 63.7186C27.9007 59.7624 27.5032 54.6792 27.5086 49.8803C27.5089 49.5455 27.5088 49.2108 27.5087 48.8761C27.5087 48.2978 27.5089 47.7195 27.5093 47.1412C27.5099 46.3051 27.5101 45.469 27.5101 44.6329C27.5103 43.276 27.5107 41.9191 27.5114 40.5622C27.512 39.245 27.5125 37.9278 27.5128 36.6106C27.5128 36.5292 27.5129 36.4479 27.5129 36.3641C27.513 35.9559 27.5131 35.5478 27.5131 35.1396C27.5139 31.7597 27.5151 28.3799 27.5166 25Z" fill="#FD6477"/>
<path d="M38.8235 25C40.5561 25 42.2888 25 44.0739 25C44.0749 25.796 44.0759 26.5921 44.077 27.4122C44.0803 29.9603 44.0847 32.5084 44.0897 35.0564C44.0905 35.4523 44.0913 35.8482 44.092 36.2441C44.0922 36.323 44.0923 36.4018 44.0925 36.483C44.0949 37.7585 44.0967 39.0341 44.0981 40.3097C44.0996 41.6189 44.1019 42.9281 44.1049 44.2373C44.1067 45.0449 44.108 45.8525 44.1084 46.6601C44.1088 47.2142 44.1099 47.7683 44.1116 48.3223C44.1126 48.6418 44.1132 48.9613 44.1129 49.2808C44.1127 49.5738 44.1134 49.8668 44.1149 50.1597C44.1152 50.2653 44.1153 50.3708 44.1149 50.4763C44.1114 51.5837 44.2731 52.6579 45.0497 53.5006C45.9444 54.3292 47.1509 54.4876 48.3207 54.489C48.3836 54.4893 48.4465 54.4897 48.5112 54.49C48.7203 54.4911 48.9294 54.4917 49.1384 54.4922C49.2889 54.4929 49.4395 54.4936 49.59 54.4943C49.9974 54.4962 50.4049 54.4976 50.8124 54.499C51.2386 54.5005 51.6649 54.5024 52.0911 54.5043C52.8978 54.5077 53.7044 54.5109 54.5111 54.5138C55.4296 54.5173 56.3482 54.5211 57.2668 54.5249C59.1559 54.5328 61.045 54.5402 62.9341 54.5472C62.9011 54.6474 62.868 54.7475 62.8348 54.8476C62.8164 54.9034 62.798 54.9592 62.779 55.0166C62.7244 55.177 62.6629 55.3314 62.5926 55.4855C62.5684 55.5392 62.5441 55.5929 62.5191 55.6482C62.4806 55.7322 62.4806 55.7322 62.4413 55.8179C62.4139 55.8783 62.3866 55.9386 62.3584 56.0008C62.2713 56.1925 62.1839 56.3841 62.0964 56.5756C62.0393 56.701 61.9823 56.8265 61.9253 56.952C61.8402 57.1392 61.7551 57.3265 61.6699 57.5137C61.4397 58.0191 61.2118 58.5255 60.9849 59.0323C60.9606 59.0866 60.9362 59.1409 60.9112 59.1968C60.8899 59.2445 60.8685 59.2922 60.8465 59.3413C60.8071 59.4279 60.7658 59.5136 60.7233 59.5986C58.9505 59.6035 57.1776 59.6072 55.4047 59.6094C54.5814 59.6105 53.758 59.6119 52.9347 59.6143C52.2163 59.6164 51.498 59.6177 50.7796 59.6182C50.3999 59.6184 50.0202 59.6191 49.6405 59.6206C46.4538 59.6329 43.3993 59.5058 40.9651 57.1767C39.3629 55.5236 38.7978 53.2226 38.8068 50.9791C38.8068 50.8663 38.8067 50.7536 38.8065 50.6409C38.8062 50.3338 38.8067 50.0267 38.8074 49.7196C38.808 49.3875 38.8078 49.0553 38.8077 48.7232C38.8076 48.1486 38.8081 47.574 38.8088 46.9994C38.81 46.1687 38.8103 45.3379 38.8105 44.5072C38.8108 43.1591 38.8117 41.8111 38.813 40.4631C38.8143 39.154 38.8153 37.845 38.8159 36.536C38.8159 36.4552 38.8159 36.3744 38.816 36.2912C38.8162 35.886 38.8163 35.4808 38.8165 35.0756C38.8179 31.717 38.8205 28.3585 38.8235 25Z" fill="#FD6477"/>
<path d="M49.8539 25C51.5201 25 53.1864 25 54.9031 25C54.9031 31.4154 54.9031 37.8308 54.9031 44.4406C59.0572 44.4406 63.2114 44.4406 67.4914 44.4406C67.4429 44.6828 67.4094 44.8388 67.3121 45.0524C67.2784 45.127 67.2784 45.127 67.2441 45.2032C67.2196 45.2566 67.1951 45.3099 67.1699 45.3648C67.1441 45.4217 67.1184 45.4785 67.0919 45.537C67.0092 45.7194 66.9261 45.9016 66.8429 46.0837C66.7356 46.3196 66.6285 46.5557 66.5214 46.7917C66.4833 46.8756 66.4833 46.8756 66.4445 46.9612C66.2178 47.4613 65.996 47.9635 65.7753 48.4663C65.7406 48.5453 65.7058 48.6244 65.67 48.7058C65.5854 48.8983 65.5009 49.0909 65.4164 49.2834C63.5231 49.2899 61.6298 49.2948 59.7365 49.2978C58.8574 49.2992 57.9784 49.3011 57.0993 49.3043C56.3331 49.3071 55.5668 49.3088 54.8006 49.3095C54.3949 49.3098 53.9892 49.3107 53.5835 49.3127C53.2016 49.3146 52.8196 49.3151 52.4377 49.3147C52.2976 49.3148 52.1575 49.3154 52.0174 49.3164C51.8259 49.3178 51.6344 49.3175 51.4428 49.3167C51.3877 49.3175 51.3325 49.3183 51.2756 49.3191C50.8877 49.315 50.5943 49.2208 50.2689 49.0067C49.9481 48.6774 49.8366 48.3634 49.8369 47.9082C49.8366 47.8263 49.8363 47.7444 49.8361 47.66C49.8365 47.5703 49.8369 47.4806 49.8373 47.3881C49.8372 47.2917 49.8371 47.1952 49.8369 47.0987C49.8366 46.8337 49.8372 46.5686 49.8379 46.3036C49.8385 46.0178 49.8383 45.7319 49.8382 45.4461C49.8381 44.9509 49.8385 44.4557 49.8393 43.9605C49.8404 43.2445 49.8408 42.5285 49.8409 41.8125C49.8413 40.6508 49.8422 39.4892 49.8435 38.3276C49.8447 37.1991 49.8457 36.0706 49.8463 34.9422C49.8464 34.8726 49.8464 34.8031 49.8464 34.7314C49.8466 34.3825 49.8468 34.0336 49.847 33.6847C49.8484 30.7898 49.8509 27.8949 49.8539 25Z" fill="#FD6477"/>
<rect x="108.5" y="0.5" width="317" height="94" rx="21.5" fill="#3E0337"/>
<rect x="108.5" y="0.5" width="317" height="94" rx="21.5" stroke="url(#paint1_radial_199_3152)"/>
<path d="M166.322 60.432C164.57 60.432 162.974 60.132 161.534 59.532C160.118 58.932 158.99 58.044 158.15 56.868C157.31 55.668 156.866 54.18 156.818 52.404H161.678C161.726 53.58 162.146 54.564 162.938 55.356C163.754 56.148 164.87 56.544 166.286 56.544C167.51 56.544 168.482 56.256 169.202 55.68C169.922 55.104 170.282 54.324 170.282 53.34C170.282 52.836 170.198 52.392 170.03 52.008C169.886 51.624 169.598 51.264 169.166 50.928C168.734 50.592 168.122 50.268 167.33 49.956C166.562 49.62 165.542 49.248 164.27 48.84C162.614 48.288 161.282 47.652 160.274 46.932C159.266 46.212 158.534 45.408 158.078 44.52C157.646 43.608 157.43 42.624 157.43 41.568C157.43 39.984 157.802 38.664 158.546 37.608C159.314 36.528 160.334 35.724 161.606 35.196C162.902 34.644 164.33 34.368 165.89 34.368C167.474 34.368 168.902 34.644 170.174 35.196C171.47 35.748 172.514 36.564 173.306 37.644C174.098 38.724 174.506 40.056 174.53 41.64H169.598C169.574 40.728 169.214 39.936 168.518 39.264C167.846 38.592 166.91 38.256 165.71 38.256C164.75 38.256 163.934 38.508 163.262 39.012C162.59 39.516 162.254 40.26 162.254 41.244C162.254 41.964 162.518 42.576 163.046 43.08C163.598 43.584 164.33 44.028 165.242 44.412C166.178 44.772 167.21 45.156 168.338 45.564C168.962 45.78 169.658 46.056 170.426 46.392C171.218 46.728 171.974 47.184 172.694 47.76C173.414 48.312 174.002 49.02 174.458 49.884C174.938 50.724 175.178 51.768 175.178 53.016C175.178 54.552 174.782 55.872 173.99 56.976C173.222 58.08 172.166 58.932 170.822 59.532C169.502 60.132 168.002 60.432 166.322 60.432ZM176.946 60L186.162 34.8H191.346L200.562 60H195.666L193.686 54.276H183.786L181.77 60H176.946ZM185.082 50.568H192.39L188.718 40.092L185.082 50.568ZM203.562 60V34.8H219.726V38.724H208.17V44.736H218.07V48.66H208.17V56.076H219.726V60H203.562ZM223.381 60V56.688C223.381 56.688 223.501 56.568 223.741 56.328C223.981 56.064 224.305 55.716 224.713 55.284C225.121 54.852 225.589 54.36 226.117 53.808C226.669 53.232 227.245 52.632 227.845 52.008C228.469 51.36 229.093 50.712 229.717 50.064C230.773 48.96 231.745 47.952 232.633 47.04C233.545 46.104 234.265 45.228 234.793 44.412C235.345 43.572 235.621 42.768 235.621 42C235.621 40.872 235.273 39.972 234.577 39.3C233.905 38.604 233.005 38.256 231.877 38.256C230.989 38.256 230.245 38.46 229.645 38.868C229.045 39.276 228.601 39.816 228.313 40.488C228.025 41.16 227.881 41.892 227.881 42.684H223.417C223.465 40.884 223.849 39.372 224.569 38.148C225.289 36.9 226.285 35.964 227.557 35.34C228.829 34.692 230.305 34.368 231.985 34.368C233.857 34.368 235.393 34.716 236.593 35.412C237.793 36.084 238.681 36.996 239.257 38.148C239.833 39.276 240.121 40.536 240.121 41.928C240.121 43.104 239.857 44.196 239.329 45.204C238.825 46.188 238.129 47.16 237.241 48.12C236.377 49.08 235.405 50.1 234.325 51.18C233.677 51.828 233.089 52.416 232.561 52.944C232.057 53.448 231.613 53.904 231.229 54.312C230.845 54.696 230.521 55.02 230.257 55.284C230.017 55.548 229.825 55.752 229.681 55.896C229.561 56.016 229.501 56.076 229.501 56.076H240.733V60H223.381ZM246.423 60.432C245.583 60.432 244.875 60.144 244.299 59.568C243.723 58.968 243.435 58.26 243.435 57.444C243.435 56.604 243.723 55.896 244.299 55.32C244.875 54.744 245.583 54.456 246.423 54.456C247.263 54.456 247.971 54.744 248.547 55.32C249.123 55.896 249.411 56.604 249.411 57.444C249.411 58.26 249.123 58.968 248.547 59.568C247.971 60.144 247.263 60.432 246.423 60.432ZM260.953 60.432C258.649 60.432 256.801 59.856 255.409 58.704C254.017 57.552 253.009 55.992 252.385 54.024C251.761 52.056 251.449 49.848 251.449 47.4C251.449 44.952 251.761 42.744 252.385 40.776C253.009 38.808 254.017 37.248 255.409 36.096C256.801 34.944 258.649 34.368 260.953 34.368C263.257 34.368 265.093 34.932 266.461 36.06C267.853 37.188 268.861 38.736 269.485 40.704C270.109 42.672 270.421 44.904 270.421 47.4C270.421 49.896 270.109 52.128 269.485 54.096C268.861 56.064 267.853 57.612 266.461 58.74C265.093 59.868 263.257 60.432 260.953 60.432ZM260.953 56.328C262.609 56.328 263.821 55.536 264.589 53.952C265.357 52.344 265.741 50.16 265.741 47.4C265.741 44.64 265.357 42.468 264.589 40.884C263.821 39.276 262.609 38.472 260.953 38.472C259.297 38.472 258.073 39.276 257.281 40.884C256.513 42.468 256.129 44.64 256.129 47.4C256.129 50.16 256.513 52.344 257.281 53.952C258.073 55.536 259.297 56.328 260.953 56.328ZM274.203 60V56.076H280.971V39.948L274.419 41.424V37.896L282.915 34.8H285.327V56.076H291.267V60H274.203ZM294.186 51.504V47.652H305.886V51.504H294.186ZM309.724 60V56.688C309.724 56.688 309.844 56.568 310.084 56.328C310.324 56.064 310.648 55.716 311.056 55.284C311.464 54.852 311.932 54.36 312.46 53.808C313.012 53.232 313.588 52.632 314.188 52.008C314.812 51.36 315.436 50.712 316.06 50.064C317.116 48.96 318.088 47.952 318.976 47.04C319.888 46.104 320.608 45.228 321.136 44.412C321.688 43.572 321.964 42.768 321.964 42C321.964 40.872 321.616 39.972 320.92 39.3C320.248 38.604 319.348 38.256 318.22 38.256C317.332 38.256 316.588 38.46 315.988 38.868C315.388 39.276 314.944 39.816 314.656 40.488C314.368 41.16 314.224 41.892 314.224 42.684H309.76C309.808 40.884 310.192 39.372 310.912 38.148C311.632 36.9 312.628 35.964 313.9 35.34C315.172 34.692 316.648 34.368 318.328 34.368C320.2 34.368 321.736 34.716 322.936 35.412C324.136 36.084 325.024 36.996 325.6 38.148C326.176 39.276 326.464 40.536 326.464 41.928C326.464 43.104 326.2 44.196 325.672 45.204C325.168 46.188 324.472 47.16 323.584 48.12C322.72 49.08 321.748 50.1 320.668 51.18C320.02 51.828 319.432 52.416 318.904 52.944C318.4 53.448 317.956 53.904 317.572 54.312C317.188 54.696 316.864 55.02 316.6 55.284C316.36 55.548 316.168 55.752 316.024 55.896C315.904 56.016 315.844 56.076 315.844 56.076H327.076V60H309.724ZM332.767 60.432C331.927 60.432 331.219 60.144 330.643 59.568C330.067 58.968 329.779 58.26 329.779 57.444C329.779 56.604 330.067 55.896 330.643 55.32C331.219 54.744 331.927 54.456 332.767 54.456C333.607 54.456 334.315 54.744 334.891 55.32C335.467 55.896 335.755 56.604 335.755 57.444C335.755 58.26 335.467 58.968 334.891 59.568C334.315 60.144 333.607 60.432 332.767 60.432ZM347.296 60.432C344.992 60.432 343.144 59.856 341.752 58.704C340.36 57.552 339.352 55.992 338.728 54.024C338.104 52.056 337.792 49.848 337.792 47.4C337.792 44.952 338.104 42.744 338.728 40.776C339.352 38.808 340.36 37.248 341.752 36.096C343.144 34.944 344.992 34.368 347.296 34.368C349.6 34.368 351.436 34.932 352.804 36.06C354.196 37.188 355.204 38.736 355.828 40.704C356.452 42.672 356.764 44.904 356.764 47.4C356.764 49.896 356.452 52.128 355.828 54.096C355.204 56.064 354.196 57.612 352.804 58.74C351.436 59.868 349.6 60.432 347.296 60.432ZM347.296 56.328C348.952 56.328 350.164 55.536 350.932 53.952C351.7 52.344 352.084 50.16 352.084 47.4C352.084 44.64 351.7 42.468 350.932 40.884C350.164 39.276 348.952 38.472 347.296 38.472C345.64 38.472 344.416 39.276 343.624 40.884C342.856 42.468 342.472 44.64 342.472 47.4C342.472 50.16 342.856 52.344 343.624 53.952C344.416 55.536 345.64 56.328 347.296 56.328ZM359.611 60V56.688C359.611 56.688 359.731 56.568 359.971 56.328C360.211 56.064 360.535 55.716 360.943 55.284C361.351 54.852 361.819 54.36 362.347 53.808C362.899 53.232 363.475 52.632 364.075 52.008C364.699 51.36 365.323 50.712 365.947 50.064C367.003 48.96 367.975 47.952 368.863 47.04C369.775 46.104 370.495 45.228 371.023 44.412C371.575 43.572 371.851 42.768 371.851 42C371.851 40.872 371.503 39.972 370.807 39.3C370.135 38.604 369.235 38.256 368.107 38.256C367.219 38.256 366.475 38.46 365.875 38.868C365.275 39.276 364.831 39.816 364.543 40.488C364.255 41.16 364.111 41.892 364.111 42.684H359.647C359.695 40.884 360.079 39.372 360.799 38.148C361.519 36.9 362.515 35.964 363.787 35.34C365.059 34.692 366.535 34.368 368.215 34.368C370.087 34.368 371.623 34.716 372.823 35.412C374.023 36.084 374.911 36.996 375.487 38.148C376.063 39.276 376.351 40.536 376.351 41.928C376.351 43.104 376.087 44.196 375.559 45.204C375.055 46.188 374.359 47.16 373.471 48.12C372.607 49.08 371.635 50.1 370.555 51.18C369.907 51.828 369.319 52.416 368.791 52.944C368.287 53.448 367.843 53.904 367.459 54.312C367.075 54.696 366.751 55.02 366.487 55.284C366.247 55.548 366.055 55.752 365.911 55.896C365.791 56.016 365.731 56.076 365.731 56.076H376.963V60H359.611Z" fill="#FD6477"/>
<rect x="439.5" y="0.5" width="531" height="94" rx="21.5" fill="#3E0337"/>
<rect x="439.5" y="0.5" width="531" height="94" rx="21.5" stroke="url(#paint2_linear_199_3152)"/>
<path d="M494.964 60.432C492.372 60.432 490.164 59.868 488.34 58.74C486.516 57.612 485.124 56.076 484.164 54.132C483.204 52.164 482.724 49.932 482.724 47.436C482.724 44.94 483.192 42.708 484.128 40.74C485.064 38.772 486.444 37.224 488.268 36.096C490.092 34.944 492.324 34.368 494.964 34.368C497.988 34.368 500.46 35.124 502.38 36.636C504.324 38.124 505.536 40.224 506.016 42.936H500.94C500.628 41.568 499.956 40.5 498.924 39.732C497.916 38.94 496.572 38.544 494.892 38.544C493.356 38.544 492.024 38.904 490.896 39.624C489.792 40.344 488.94 41.364 488.34 42.684C487.74 44.004 487.44 45.588 487.44 47.436C487.44 49.26 487.74 50.844 488.34 52.188C488.94 53.508 489.792 54.528 490.896 55.248C492.024 55.944 493.356 56.292 494.892 56.292C496.572 56.292 497.916 55.932 498.924 55.212C499.956 54.468 500.628 53.448 500.94 52.152H506.016C505.536 54.744 504.324 56.772 502.38 58.236C500.46 59.7 497.988 60.432 494.964 60.432ZM517.807 60.432C516.007 60.432 514.399 60.048 512.983 59.28C511.591 58.488 510.499 57.384 509.707 55.968C508.915 54.552 508.519 52.92 508.519 51.072C508.519 49.128 508.939 47.46 509.779 46.068C510.643 44.652 511.783 43.572 513.199 42.828C514.639 42.084 516.223 41.712 517.951 41.712C519.751 41.712 521.359 42.108 522.775 42.9C524.191 43.668 525.307 44.748 526.123 46.14C526.963 47.532 527.383 49.176 527.383 51.072C527.383 52.872 526.975 54.48 526.159 55.896C525.343 57.312 524.215 58.428 522.775 59.244C521.359 60.036 519.703 60.432 517.807 60.432ZM517.879 56.436C518.839 56.436 519.667 56.196 520.363 55.716C521.083 55.212 521.647 54.552 522.055 53.736C522.463 52.896 522.667 51.984 522.667 51C522.667 49.872 522.439 48.912 521.983 48.12C521.551 47.328 520.975 46.728 520.255 46.32C519.535 45.912 518.743 45.708 517.879 45.708C516.943 45.708 516.115 45.936 515.395 46.392C514.699 46.848 514.147 47.484 513.739 48.3C513.355 49.092 513.163 50.016 513.163 51.072C513.163 52.128 513.367 53.064 513.775 53.88C514.207 54.696 514.783 55.332 515.503 55.788C516.223 56.22 517.015 56.436 517.879 56.436ZM530.048 60V42.144H534.62V44.196C535.22 43.356 535.988 42.732 536.924 42.324C537.86 41.916 538.844 41.712 539.876 41.712C541.22 41.712 542.468 42 543.62 42.576C544.796 43.128 545.708 44.004 546.356 45.204C546.956 44.1 547.784 43.248 548.84 42.648C549.92 42.024 551.096 41.712 552.368 41.712C553.736 41.712 554.972 42 556.076 42.576C557.204 43.128 558.092 43.98 558.74 45.132C559.388 46.284 559.712 47.724 559.712 49.452V60H555.14V50.1C555.14 48.756 554.816 47.688 554.168 46.896C553.52 46.104 552.524 45.708 551.18 45.708C549.86 45.708 548.864 46.104 548.192 46.896C547.52 47.688 547.184 48.756 547.184 50.1V60H542.612V50.1C542.612 48.732 542.264 47.664 541.568 46.896C540.896 46.104 539.924 45.708 538.652 45.708C537.572 45.708 536.624 46.056 535.808 46.752C535.016 47.424 534.62 48.54 534.62 50.1V60H530.048ZM562.673 67.92V42.144H567.245V44.628C567.941 43.668 568.805 42.948 569.837 42.468C570.893 41.964 572.033 41.712 573.257 41.712C574.985 41.712 576.461 42.132 577.685 42.972C578.933 43.812 579.881 44.94 580.529 46.356C581.201 47.748 581.537 49.296 581.537 51C581.537 52.704 581.201 54.276 580.529 55.716C579.857 57.156 578.897 58.308 577.649 59.172C576.425 60.012 574.961 60.432 573.257 60.432C571.745 60.432 570.485 60.12 569.477 59.496C568.493 58.872 567.761 58.224 567.281 57.552V67.92H562.673ZM572.033 56.4C572.993 56.4 573.833 56.16 574.553 55.68C575.273 55.176 575.837 54.516 576.245 53.7C576.653 52.884 576.857 51.984 576.857 51C576.857 49.872 576.629 48.924 576.173 48.156C575.741 47.364 575.153 46.764 574.409 46.356C573.689 45.948 572.897 45.744 572.033 45.744C571.121 45.744 570.305 45.972 569.585 46.428C568.865 46.884 568.289 47.52 567.857 48.336C567.449 49.128 567.245 50.04 567.245 51.072C567.245 52.056 567.449 52.956 567.857 53.772C568.265 54.588 568.829 55.236 569.549 55.716C570.269 56.172 571.097 56.4 572.033 56.4ZM589.66 60.432C588.604 60.432 587.62 60.216 586.708 59.784C585.796 59.352 585.052 58.74 584.476 57.948C583.924 57.132 583.648 56.172 583.648 55.068C583.648 53.748 583.972 52.668 584.62 51.828C585.268 50.988 586.156 50.364 587.284 49.956C588.436 49.548 589.72 49.344 591.136 49.344H595.384C595.384 48.528 595.252 47.844 594.988 47.292C594.748 46.74 594.376 46.32 593.872 46.032C593.392 45.72 592.792 45.564 592.072 45.564C591.232 45.564 590.476 45.756 589.804 46.14C589.156 46.5 588.76 47.112 588.616 47.976H584.008C584.128 46.68 584.572 45.564 585.34 44.628C586.108 43.692 587.092 42.972 588.292 42.468C589.492 41.964 590.776 41.712 592.144 41.712C593.824 41.712 595.24 42.024 596.392 42.648C597.568 43.272 598.468 44.16 599.092 45.312C599.716 46.44 600.028 47.784 600.028 49.344V54.78C600.076 55.308 600.268 55.668 600.604 55.86C600.94 56.052 601.384 56.148 601.936 56.148V60C600.808 60 599.86 59.892 599.092 59.676C598.348 59.46 597.736 59.148 597.256 58.74C596.776 58.308 596.368 57.768 596.032 57.12C595.48 58.056 594.616 58.848 593.44 59.496C592.288 60.12 591.028 60.432 589.66 60.432ZM590.992 56.724C591.784 56.724 592.504 56.544 593.152 56.184C593.824 55.824 594.364 55.32 594.772 54.672C595.18 54.024 595.384 53.28 595.384 52.44V52.296H591.424C590.896 52.296 590.392 52.38 589.912 52.548C589.432 52.692 589.048 52.932 588.76 53.268C588.472 53.58 588.328 54.012 588.328 54.564C588.328 55.308 588.58 55.86 589.084 56.22C589.612 56.556 590.248 56.724 590.992 56.724ZM604.157 60V42.144H608.729V44.808C609.353 43.8 610.145 43.032 611.105 42.504C612.065 41.976 613.133 41.712 614.309 41.712V46.536H613.085C611.621 46.536 610.529 46.884 609.809 47.58C609.089 48.276 608.729 49.44 608.729 51.072V60H604.157ZM621.582 60.432C620.526 60.432 619.542 60.216 618.63 59.784C617.718 59.352 616.974 58.74 616.398 57.948C615.846 57.132 615.57 56.172 615.57 55.068C615.57 53.748 615.894 52.668 616.542 51.828C617.19 50.988 618.078 50.364 619.206 49.956C620.358 49.548 621.642 49.344 623.058 49.344H627.306C627.306 48.528 627.174 47.844 626.91 47.292C626.67 46.74 626.298 46.32 625.794 46.032C625.314 45.72 624.714 45.564 623.994 45.564C623.154 45.564 622.398 45.756 621.726 46.14C621.078 46.5 620.682 47.112 620.538 47.976H615.93C616.05 46.68 616.494 45.564 617.262 44.628C618.03 43.692 619.014 42.972 620.214 42.468C621.414 41.964 622.698 41.712 624.066 41.712C625.746 41.712 627.162 42.024 628.314 42.648C629.49 43.272 630.39 44.16 631.014 45.312C631.638 46.44 631.95 47.784 631.95 49.344V54.78C631.998 55.308 632.19 55.668 632.526 55.86C632.862 56.052 633.306 56.148 633.858 56.148V60C632.73 60 631.782 59.892 631.014 59.676C630.27 59.46 629.658 59.148 629.178 58.74C628.698 58.308 628.29 57.768 627.954 57.12C627.402 58.056 626.538 58.848 625.362 59.496C624.21 60.12 622.95 60.432 621.582 60.432ZM622.914 56.724C623.706 56.724 624.426 56.544 625.074 56.184C625.746 55.824 626.286 55.32 626.694 54.672C627.102 54.024 627.306 53.28 627.306 52.44V52.296H623.346C622.818 52.296 622.314 52.38 621.834 52.548C621.354 52.692 620.97 52.932 620.682 53.268C620.394 53.58 620.25 54.012 620.25 54.564C620.25 55.308 620.502 55.86 621.006 56.22C621.534 56.556 622.17 56.724 622.914 56.724ZM638.387 39.84C637.571 39.84 636.863 39.552 636.263 38.976C635.687 38.376 635.399 37.668 635.399 36.852C635.399 36.012 635.687 35.304 636.263 34.728C636.863 34.152 637.571 33.864 638.387 33.864C639.227 33.864 639.935 34.152 640.511 34.728C641.087 35.304 641.375 36.012 641.375 36.852C641.375 37.668 641.087 38.376 640.511 38.976C639.935 39.552 639.227 39.84 638.387 39.84ZM636.083 60V42.144H640.691V60H636.083ZM651.367 60.432C650.023 60.432 648.763 60.192 647.587 59.712C646.411 59.208 645.439 58.5 644.671 57.588C643.927 56.676 643.519 55.608 643.447 54.384H648.055C648.175 55.152 648.547 55.752 649.171 56.184C649.819 56.616 650.539 56.832 651.331 56.832C652.003 56.832 652.627 56.688 653.203 56.4C653.803 56.088 654.103 55.608 654.103 54.96C654.103 54.456 653.887 54.06 653.455 53.772C653.023 53.484 652.519 53.256 651.943 53.088C651.367 52.92 650.839 52.776 650.359 52.656C649.159 52.368 648.067 52.032 647.083 51.648C646.099 51.24 645.319 50.688 644.743 49.992C644.167 49.272 643.879 48.324 643.879 47.148C643.879 45.996 644.203 45.012 644.851 44.196C645.523 43.38 646.399 42.768 647.479 42.36C648.583 41.928 649.771 41.712 651.043 41.712C653.035 41.712 654.715 42.216 656.083 43.224C657.451 44.232 658.195 45.72 658.315 47.688H653.959C653.887 46.92 653.563 46.344 652.987 45.96C652.435 45.552 651.739 45.348 650.899 45.348C650.227 45.348 649.627 45.468 649.099 45.708C648.571 45.948 648.307 46.404 648.307 47.076C648.307 47.556 648.523 47.952 648.955 48.264C649.387 48.552 649.903 48.792 650.503 48.984C651.103 49.152 651.631 49.296 652.087 49.416C653.335 49.728 654.427 50.088 655.363 50.496C656.323 50.904 657.079 51.456 657.631 52.152C658.183 52.848 658.471 53.784 658.495 54.96C658.495 56.136 658.159 57.132 657.487 57.948C656.839 58.764 655.975 59.388 654.895 59.82C653.815 60.228 652.639 60.432 651.367 60.432ZM669.822 60.432C668.022 60.432 666.414 60.048 664.998 59.28C663.606 58.488 662.514 57.384 661.722 55.968C660.93 54.552 660.534 52.92 660.534 51.072C660.534 49.128 660.954 47.46 661.794 46.068C662.658 44.652 663.798 43.572 665.214 42.828C666.654 42.084 668.238 41.712 669.966 41.712C671.766 41.712 673.374 42.108 674.79 42.9C676.206 43.668 677.322 44.748 678.138 46.14C678.978 47.532 679.398 49.176 679.398 51.072C679.398 52.872 678.99 54.48 678.174 55.896C677.358 57.312 676.23 58.428 674.79 59.244C673.374 60.036 671.718 60.432 669.822 60.432ZM669.894 56.436C670.854 56.436 671.682 56.196 672.378 55.716C673.098 55.212 673.662 54.552 674.07 53.736C674.478 52.896 674.682 51.984 674.682 51C674.682 49.872 674.454 48.912 673.998 48.12C673.566 47.328 672.99 46.728 672.27 46.32C671.55 45.912 670.758 45.708 669.894 45.708C668.958 45.708 668.13 45.936 667.41 46.392C666.714 46.848 666.162 47.484 665.754 48.3C665.37 49.092 665.178 50.016 665.178 51.072C665.178 52.128 665.382 53.064 665.79 53.88C666.222 54.696 666.798 55.332 667.518 55.788C668.238 56.22 669.03 56.436 669.894 56.436ZM682.063 60V42.144H686.635V44.232C687.259 43.392 688.087 42.768 689.119 42.36C690.175 41.928 691.231 41.712 692.287 41.712C694.351 41.712 696.043 42.384 697.363 43.728C698.683 45.048 699.343 46.968 699.343 49.488V60H694.771V50.1C694.771 48.756 694.423 47.676 693.727 46.86C693.055 46.02 692.059 45.6 690.739 45.6C689.419 45.6 688.399 46.02 687.679 46.86C686.983 47.676 686.635 48.756 686.635 50.1V60H682.063ZM718.279 60.432C716.551 60.432 715.063 60.012 713.815 59.172C712.591 58.308 711.643 57.168 710.971 55.752C710.323 54.312 709.999 52.728 709.999 51C709.999 49.272 710.335 47.712 711.007 46.32C711.679 44.904 712.639 43.788 713.887 42.972C715.135 42.132 716.599 41.712 718.279 41.712C719.431 41.712 720.523 41.952 721.555 42.432C722.611 42.912 723.499 43.608 724.219 44.52V34.8H728.863V60H724.219V57.444C723.619 58.428 722.779 59.172 721.699 59.676C720.619 60.18 719.479 60.432 718.279 60.432ZM719.467 56.4C720.427 56.4 721.255 56.172 721.951 55.716C722.671 55.26 723.235 54.636 723.643 53.844C724.051 53.028 724.255 52.104 724.255 51.072C724.255 49.8 724.003 48.78 723.499 48.012C722.995 47.22 722.371 46.644 721.627 46.284C720.883 45.924 720.151 45.744 719.431 45.744C718.495 45.744 717.667 45.972 716.947 46.428C716.251 46.884 715.699 47.508 715.291 48.3C714.883 49.068 714.679 49.968 714.679 51C714.679 52.008 714.883 52.92 715.291 53.736C715.699 54.552 716.263 55.2 716.983 55.68C717.703 56.16 718.531 56.4 719.467 56.4ZM740.623 60.432C738.751 60.432 737.131 60.024 735.763 59.208C734.419 58.392 733.375 57.276 732.631 55.86C731.887 54.444 731.515 52.848 731.515 51.072C731.515 49.176 731.899 47.532 732.667 46.14C733.435 44.748 734.503 43.668 735.871 42.9C737.239 42.108 738.823 41.712 740.623 41.712C742.399 41.712 743.947 42.096 745.267 42.864C746.611 43.632 747.655 44.688 748.399 46.032C749.167 47.376 749.551 48.924 749.551 50.676C749.551 50.988 749.539 51.3 749.515 51.612C749.491 51.9 749.455 52.176 749.407 52.44H736.159C736.231 53.28 736.447 54.024 736.807 54.672C737.191 55.296 737.695 55.788 738.319 56.148C738.967 56.484 739.699 56.652 740.515 56.652C741.355 56.652 742.075 56.472 742.675 56.112C743.299 55.752 743.791 55.2 744.151 54.456H749.083C748.747 55.512 748.207 56.496 747.463 57.408C746.719 58.32 745.771 59.052 744.619 59.604C743.491 60.156 742.159 60.432 740.623 60.432ZM736.195 49.38H744.799C744.775 48.18 744.331 47.232 743.467 46.536C742.627 45.84 741.631 45.492 740.479 45.492C739.495 45.492 738.583 45.804 737.743 46.428C736.903 47.028 736.387 48.012 736.195 49.38ZM765.572 60V38.724H758.228V34.8H777.56V38.724H770.18V60H765.572ZM776.388 60V42.144H780.96V44.808C781.584 43.8 782.376 43.032 783.336 42.504C784.296 41.976 785.364 41.712 786.54 41.712V46.536H785.316C783.852 46.536 782.76 46.884 782.04 47.58C781.32 48.276 780.96 49.44 780.96 51.072V60H776.388ZM793.813 60.432C792.757 60.432 791.773 60.216 790.861 59.784C789.949 59.352 789.205 58.74 788.629 57.948C788.077 57.132 787.801 56.172 787.801 55.068C787.801 53.748 788.125 52.668 788.773 51.828C789.421 50.988 790.309 50.364 791.437 49.956C792.589 49.548 793.873 49.344 795.289 49.344H799.537C799.537 48.528 799.405 47.844 799.141 47.292C798.901 46.74 798.529 46.32 798.025 46.032C797.545 45.72 796.945 45.564 796.225 45.564C795.385 45.564 794.629 45.756 793.957 46.14C793.309 46.5 792.913 47.112 792.769 47.976H788.161C788.281 46.68 788.725 45.564 789.493 44.628C790.261 43.692 791.245 42.972 792.445 42.468C793.645 41.964 794.929 41.712 796.297 41.712C797.977 41.712 799.393 42.024 800.545 42.648C801.721 43.272 802.621 44.16 803.245 45.312C803.869 46.44 804.181 47.784 804.181 49.344V54.78C804.229 55.308 804.421 55.668 804.757 55.86C805.093 56.052 805.537 56.148 806.089 56.148V60C804.961 60 804.013 59.892 803.245 59.676C802.501 59.46 801.889 59.148 801.409 58.74C800.929 58.308 800.521 57.768 800.185 57.12C799.633 58.056 798.769 58.848 797.593 59.496C796.441 60.12 795.181 60.432 793.813 60.432ZM795.145 56.724C795.937 56.724 796.657 56.544 797.305 56.184C797.977 55.824 798.517 55.32 798.925 54.672C799.333 54.024 799.537 53.28 799.537 52.44V52.296H795.577C795.049 52.296 794.545 52.38 794.065 52.548C793.585 52.692 793.201 52.932 792.913 53.268C792.625 53.58 792.481 54.012 792.481 54.564C792.481 55.308 792.733 55.86 793.237 56.22C793.765 56.556 794.401 56.724 795.145 56.724ZM808.309 60V42.144H812.881V44.232C813.505 43.392 814.333 42.768 815.365 42.36C816.421 41.928 817.477 41.712 818.533 41.712C820.597 41.712 822.289 42.384 823.609 43.728C824.929 45.048 825.589 46.968 825.589 49.488V60H821.017V50.1C821.017 48.756 820.669 47.676 819.973 46.86C819.301 46.02 818.305 45.6 816.985 45.6C815.665 45.6 814.645 46.02 813.925 46.86C813.229 47.676 812.881 48.756 812.881 50.1V60H808.309ZM835.832 60.432C834.488 60.432 833.228 60.192 832.052 59.712C830.876 59.208 829.904 58.5 829.136 57.588C828.392 56.676 827.984 55.608 827.912 54.384H832.52C832.64 55.152 833.012 55.752 833.636 56.184C834.284 56.616 835.004 56.832 835.796 56.832C836.468 56.832 837.092 56.688 837.668 56.4C838.268 56.088 838.568 55.608 838.568 54.96C838.568 54.456 838.352 54.06 837.92 53.772C837.488 53.484 836.984 53.256 836.408 53.088C835.832 52.92 835.304 52.776 834.824 52.656C833.624 52.368 832.532 52.032 831.548 51.648C830.564 51.24 829.784 50.688 829.208 49.992C828.632 49.272 828.344 48.324 828.344 47.148C828.344 45.996 828.668 45.012 829.316 44.196C829.988 43.38 830.864 42.768 831.944 42.36C833.048 41.928 834.236 41.712 835.508 41.712C837.5 41.712 839.18 42.216 840.548 43.224C841.916 44.232 842.66 45.72 842.78 47.688H838.424C838.352 46.92 838.028 46.344 837.452 45.96C836.9 45.552 836.204 45.348 835.364 45.348C834.692 45.348 834.092 45.468 833.564 45.708C833.036 45.948 832.772 46.404 832.772 47.076C832.772 47.556 832.988 47.952 833.42 48.264C833.852 48.552 834.368 48.792 834.968 48.984C835.568 49.152 836.096 49.296 836.552 49.416C837.8 49.728 838.892 50.088 839.828 50.496C840.788 50.904 841.544 51.456 842.096 52.152C842.648 52.848 842.936 53.784 842.96 54.96C842.96 56.136 842.624 57.132 841.952 57.948C841.304 58.764 840.44 59.388 839.36 59.82C838.28 60.228 837.104 60.432 835.832 60.432ZM845.575 67.92V42.144H850.147V44.628C850.843 43.668 851.707 42.948 852.739 42.468C853.795 41.964 854.935 41.712 856.159 41.712C857.887 41.712 859.363 42.132 860.587 42.972C861.835 43.812 862.783 44.94 863.431 46.356C864.103 47.748 864.439 49.296 864.439 51C864.439 52.704 864.103 54.276 863.431 55.716C862.759 57.156 861.799 58.308 860.551 59.172C859.327 60.012 857.863 60.432 856.159 60.432C854.647 60.432 853.387 60.12 852.379 59.496C851.395 58.872 850.663 58.224 850.183 57.552V67.92H845.575ZM854.935 56.4C855.895 56.4 856.735 56.16 857.455 55.68C858.175 55.176 858.739 54.516 859.147 53.7C859.555 52.884 859.759 51.984 859.759 51C859.759 49.872 859.531 48.924 859.075 48.156C858.643 47.364 858.055 46.764 857.311 46.356C856.591 45.948 855.799 45.744 854.935 45.744C854.023 45.744 853.207 45.972 852.487 46.428C851.767 46.884 851.191 47.52 850.759 48.336C850.351 49.128 850.147 50.04 850.147 51.072C850.147 52.056 850.351 52.956 850.759 53.772C851.167 54.588 851.731 55.236 852.451 55.716C853.171 56.172 853.999 56.4 854.935 56.4ZM875.803 60.432C874.003 60.432 872.395 60.048 870.979 59.28C869.587 58.488 868.495 57.384 867.703 55.968C866.911 54.552 866.515 52.92 866.515 51.072C866.515 49.128 866.935 47.46 867.775 46.068C868.639 44.652 869.779 43.572 871.195 42.828C872.635 42.084 874.219 41.712 875.947 41.712C877.747 41.712 879.355 42.108 880.771 42.9C882.187 43.668 883.303 44.748 884.119 46.14C884.959 47.532 885.379 49.176 885.379 51.072C885.379 52.872 884.971 54.48 884.155 55.896C883.339 57.312 882.211 58.428 880.771 59.244C879.355 60.036 877.699 60.432 875.803 60.432ZM875.875 56.436C876.835 56.436 877.663 56.196 878.359 55.716C879.079 55.212 879.643 54.552 880.051 53.736C880.459 52.896 880.663 51.984 880.663 51C880.663 49.872 880.435 48.912 879.979 48.12C879.547 47.328 878.971 46.728 878.251 46.32C877.531 45.912 876.739 45.708 875.875 45.708C874.939 45.708 874.111 45.936 873.391 46.392C872.695 46.848 872.143 47.484 871.735 48.3C871.351 49.092 871.159 50.016 871.159 51.072C871.159 52.128 871.363 53.064 871.771 53.88C872.203 54.696 872.779 55.332 873.499 55.788C874.219 56.22 875.011 56.436 875.875 56.436ZM888.044 60V42.144H892.616V44.808C893.24 43.8 894.032 43.032 894.992 42.504C895.952 41.976 897.02 41.712 898.196 41.712V46.536H896.972C895.508 46.536 894.416 46.884 893.696 47.58C892.976 48.276 892.616 49.44 892.616 51.072V60H888.044ZM907.72 60C905.8 60 904.348 59.532 903.364 58.596C902.404 57.66 901.924 56.256 901.924 54.384V45.996H899.62V42.144H901.924V37.788H906.532V42.144H910.6V45.996H906.532V54.42C906.532 55.092 906.712 55.548 907.072 55.788C907.432 56.028 907.9 56.148 908.476 56.148H910.6V60H907.72ZM920.629 60.432C919.285 60.432 918.025 60.192 916.849 59.712C915.673 59.208 914.701 58.5 913.933 57.588C913.189 56.676 912.781 55.608 912.709 54.384H917.317C917.437 55.152 917.809 55.752 918.433 56.184C919.081 56.616 919.801 56.832 920.593 56.832C921.265 56.832 921.889 56.688 922.465 56.4C923.065 56.088 923.365 55.608 923.365 54.96C923.365 54.456 923.149 54.06 922.717 53.772C922.285 53.484 921.781 53.256 921.205 53.088C920.629 52.92 920.101 52.776 919.621 52.656C918.421 52.368 917.329 52.032 916.345 51.648C915.361 51.24 914.581 50.688 914.005 49.992C913.429 49.272 913.141 48.324 913.141 47.148C913.141 45.996 913.465 45.012 914.113 44.196C914.785 43.38 915.661 42.768 916.741 42.36C917.845 41.928 919.033 41.712 920.305 41.712C922.297 41.712 923.977 42.216 925.345 43.224C926.713 44.232 927.457 45.72 927.577 47.688H923.221C923.149 46.92 922.825 46.344 922.249 45.96C921.697 45.552 921.001 45.348 920.161 45.348C919.489 45.348 918.889 45.468 918.361 45.708C917.833 45.948 917.569 46.404 917.569 47.076C917.569 47.556 917.785 47.952 918.217 48.264C918.649 48.552 919.165 48.792 919.765 48.984C920.365 49.152 920.893 49.296 921.349 49.416C922.597 49.728 923.689 50.088 924.625 50.496C925.585 50.904 926.341 51.456 926.893 52.152C927.445 52.848 927.733 53.784 927.757 54.96C927.757 56.136 927.421 57.132 926.749 57.948C926.101 58.764 925.237 59.388 924.157 59.82C923.077 60.228 921.901 60.432 920.629 60.432Z" fill="#FD6477"/>
<defs>
<radialGradient id="paint0_radial_199_3152" cx="0" cy="0" r="1" gradientUnits="userSpaceOnUse" gradientTransform="translate(47.5 47.5) rotate(90) scale(47.5)">
<stop stop-color="#6B035F"/>
<stop offset="0.3" stop-color="#6B035F"/>
<stop offset="1" stop-color="#6B035F"/>
</radialGradient>
<radialGradient id="paint1_radial_199_3152" cx="0" cy="0" r="1" gradientUnits="userSpaceOnUse" gradientTransform="translate(267 47.5) scale(159 47.5)">
<stop stop-color="#6B035F"/>
<stop offset="0.3" stop-color="#6B035F"/>
<stop offset="1" stop-color="#6B035F"/>
</radialGradient>
<linearGradient id="paint2_linear_199_3152" x1="439" y1="47.5" x2="971" y2="47.5" gradientUnits="userSpaceOnUse">
<stop stop-color="#6B035F"/>
<stop offset="0.3" stop-color="#6B035F"/>
<stop offset="1" stop-color="#6B035F"/>
</linearGradient>
</defs>
</svg>
