<svg width="234" height="33" viewBox="0 0 234 33" fill="none" xmlns="http://www.w3.org/2000/svg">
<rect width="33" height="33" rx="16.5" fill="#EDEDEC"/>
<path d="M19.9535 20.721V13.0466H12.2791M19.9535 13.0466L12.2791 20.721" stroke="black" stroke-width="1.53488" stroke-linecap="round" stroke-linejoin="round"/>
<rect x="36" width="198" height="33" rx="16.5" fill="#EDEDEC"/>
<path d="M52.5743 16V10.0879H54.8969C55.3249 10.0879 55.7049 10.1723 56.0371 10.3413C56.3693 10.5046 56.6283 10.7354 56.8141 11.0338C57.0056 11.3266 57.1013 11.6645 57.1013 12.0473C57.1013 12.4358 57 12.7821 56.7973 13.0862C56.6002 13.3846 56.3355 13.6126 56.0033 13.7703L57.3378 16H55.7837L54.652 14.0152C54.6182 14.0152 54.5816 14.0152 54.5422 14.0152C54.5084 14.0152 54.4746 14.0152 54.4409 14.0152H53.9341V16H52.5743ZM53.9341 12.7652H54.8547C55.0124 12.7652 55.1531 12.7343 55.277 12.6723C55.4009 12.6104 55.4966 12.5259 55.5642 12.419C55.6374 12.3063 55.674 12.1825 55.674 12.0473C55.674 11.839 55.5951 11.6673 55.4375 11.5321C55.2854 11.397 55.0827 11.3294 54.8294 11.3294H53.9341V12.7652ZM59.8149 16.1014C59.3758 16.1014 58.9872 16.0084 58.6494 15.8226C58.3116 15.6368 58.0469 15.3778 57.8555 15.0456C57.6641 14.7134 57.5683 14.3277 57.5683 13.8885C57.5683 13.4493 57.6641 13.0637 57.8555 12.7314C58.0469 12.3992 58.3116 12.1402 58.6494 11.9544C58.9929 11.7686 59.387 11.6757 59.8318 11.6757C60.2316 11.6757 60.592 11.7714 60.9129 11.9629C61.2338 12.1543 61.4872 12.4415 61.673 12.8244C61.8645 13.2016 61.9602 13.6689 61.9602 14.2264H58.9366C58.9647 14.4685 59.0633 14.6627 59.2322 14.8091C59.4067 14.9499 59.6122 15.0203 59.8487 15.0203C60.0571 15.0203 60.2316 14.9752 60.3724 14.8851C60.5131 14.7894 60.6117 14.6712 60.668 14.5304L61.8419 14.9274C61.7293 15.1976 61.5689 15.4201 61.3605 15.5946C61.1578 15.7691 60.9242 15.8986 60.6595 15.9831C60.3949 16.0619 60.1134 16.1014 59.8149 16.1014ZM58.9703 13.348H60.5835C60.561 13.1847 60.5075 13.0552 60.423 12.9595C60.3386 12.8581 60.24 12.7849 60.1274 12.7399C60.0148 12.6948 59.9022 12.6723 59.7896 12.6723C59.6826 12.6723 59.57 12.6948 59.4518 12.7399C59.3335 12.7793 59.2294 12.8497 59.1393 12.951C59.0548 13.0468 58.9985 13.1791 58.9703 13.348ZM59.0633 11.2872L60.0007 10.0879H61.4281L60.3386 11.2872H59.0633ZM62.3955 17.6892V11.7771H63.6371L63.6878 12.3176C63.8229 12.1093 63.9918 11.9516 64.1945 11.8446C64.4028 11.732 64.6421 11.6757 64.9124 11.6757C65.3066 11.6757 65.6472 11.7658 65.9344 11.946C66.2215 12.1205 66.4411 12.3739 66.5931 12.7061C66.7452 13.0327 66.8212 13.4268 66.8212 13.8885C66.8212 14.3446 66.7452 14.7388 66.5931 15.071C66.4411 15.4032 66.2215 15.6593 65.9344 15.8395C65.6472 16.0141 65.3066 16.1014 64.9124 16.1014C64.6478 16.1014 64.4141 16.0507 64.2114 15.9493C64.0143 15.8423 63.8482 15.6903 63.7131 15.4932V17.6892H62.3955ZM64.5746 14.8851C64.7435 14.8851 64.8927 14.8429 65.0222 14.7585C65.1517 14.674 65.2559 14.5586 65.3347 14.4122C65.4135 14.2602 65.453 14.0856 65.453 13.8885C65.453 13.6915 65.4164 13.5197 65.3432 13.3733C65.27 13.2213 65.1658 13.1031 65.0307 13.0186C64.9012 12.9341 64.7519 12.8919 64.583 12.8919C64.4141 12.8919 64.2621 12.9341 64.1269 13.0186C63.9974 13.1031 63.8961 13.2213 63.8229 13.3733C63.7497 13.5254 63.7131 13.6971 63.7131 13.8885C63.7131 14.0856 63.7497 14.2602 63.8229 14.4122C63.8961 14.5586 63.9974 14.674 64.1269 14.7585C64.2565 14.8429 64.4057 14.8851 64.5746 14.8851ZM68.6494 16.1014C68.154 16.1014 67.7683 15.9916 67.4924 15.772C67.2165 15.5467 67.0785 15.2258 67.0785 14.8091C67.0785 14.3643 67.2221 14.0321 67.5093 13.8125C67.7964 13.5929 68.199 13.4831 68.717 13.4831H69.7474C69.7193 13.2635 69.6517 13.0918 69.5447 12.9679C69.4434 12.8384 69.2773 12.7737 69.0464 12.7737C68.8887 12.7737 68.7508 12.8103 68.6326 12.8835C68.5143 12.9567 68.413 13.0552 68.3285 13.1791L67.1714 12.799C67.2728 12.5907 67.4051 12.4021 67.5684 12.2331C67.7373 12.0642 67.9428 11.9291 68.1849 11.8277C68.427 11.7264 68.7086 11.6757 69.0295 11.6757C69.4687 11.6757 69.8403 11.7574 70.1444 11.9206C70.4484 12.0839 70.6765 12.312 70.8285 12.6048C70.9805 12.8976 71.0565 13.2438 71.0565 13.6436L71.0396 16H69.8065L69.7896 15.5693C69.6714 15.7438 69.5166 15.8761 69.3251 15.9662C69.1337 16.0563 68.9085 16.1014 68.6494 16.1014ZM68.9451 15.1047C69.1083 15.1047 69.2491 15.071 69.3673 15.0034C69.4912 14.9358 69.5869 14.8457 69.6545 14.7331C69.7277 14.6149 69.7643 14.4882 69.7643 14.3531V14.3362H69.2069C68.931 14.3362 68.7311 14.3756 68.6072 14.4544C68.4833 14.5276 68.4214 14.6346 68.4214 14.7753C68.4214 14.8767 68.4665 14.9583 68.5565 15.0203C68.6523 15.0766 68.7818 15.1047 68.9451 15.1047ZM71.6903 16V11.7771H73.0078V12.5625C73.1824 12.2979 73.4048 12.098 73.6751 11.9629C73.9453 11.8277 74.2212 11.7602 74.5028 11.7602V13.0439C74.2438 13.0439 73.9988 13.0721 73.768 13.1284C73.5428 13.1847 73.3598 13.272 73.219 13.3902C73.0782 13.5028 73.0078 13.6492 73.0078 13.8294V16H71.6903ZM76.7024 16.1014C76.2013 16.1014 75.8268 15.9831 75.5791 15.7466C75.337 15.5045 75.2159 15.161 75.2159 14.7162V12.8835H74.5571V11.7771H75.2159V10.4595H76.5335V11.7771H77.4963V12.8835H76.5335V14.3868C76.5335 14.5558 76.5644 14.6796 76.6264 14.7585C76.6883 14.8373 76.784 14.8767 76.9135 14.8767C76.9642 14.8767 77.0233 14.8654 77.0909 14.8429C77.1585 14.8148 77.2204 14.781 77.2767 14.7416L77.7328 15.7044C77.5976 15.817 77.4344 15.9127 77.2429 15.9916C77.0571 16.0648 76.8769 16.1014 76.7024 16.1014ZM78.2907 16V11.7771H79.6083V16H78.2907ZM78.9495 11.2365C78.7524 11.2365 78.5779 11.1633 78.4259 11.0169C78.2795 10.8649 78.2063 10.6904 78.2063 10.4933C78.2063 10.285 78.2795 10.1104 78.4259 9.96965C78.5779 9.82325 78.7524 9.75006 78.9495 9.75006C79.1522 9.75006 79.3268 9.82325 79.4732 9.96965C79.6196 10.1104 79.6928 10.285 79.6928 10.4933C79.6928 10.6904 79.6196 10.8649 79.4732 11.0169C79.3268 11.1633 79.1522 11.2365 78.9495 11.2365ZM82.1958 16.1014C81.6947 16.1014 81.3203 15.9831 81.0725 15.7466C80.8304 15.5045 80.7094 15.161 80.7094 14.7162V12.8835H80.0506V11.7771H80.7094V10.4595H82.0269V11.7771H82.9897V12.8835H82.0269V14.3868C82.0269 14.5558 82.0579 14.6796 82.1198 14.7585C82.1818 14.8373 82.2775 14.8767 82.407 14.8767C82.4577 14.8767 82.5168 14.8654 82.5843 14.8429C82.6519 14.8148 82.7138 14.781 82.7702 14.7416L83.2262 15.7044C83.0911 15.817 82.9278 15.9127 82.7364 15.9916C82.5506 16.0648 82.3704 16.1014 82.1958 16.1014ZM83.7842 16V11.7771H85.1017V16H83.7842ZM84.443 11.2365C84.2459 11.2365 84.0713 11.1633 83.9193 11.0169C83.7729 10.8649 83.6997 10.6904 83.6997 10.4933C83.6997 10.285 83.7729 10.1104 83.9193 9.96965C84.0713 9.82325 84.2459 9.75006 84.443 9.75006C84.6457 9.75006 84.8202 9.82325 84.9666 9.96965C85.113 10.1104 85.1862 10.285 85.1862 10.4933C85.1862 10.6904 85.113 10.8649 84.9666 11.0169C84.8202 11.1633 84.6457 11.2365 84.443 11.2365ZM87.9173 16.1014C87.4725 16.1014 87.0812 16.0084 86.7433 15.8226C86.4055 15.6312 86.138 15.3694 85.941 15.0372C85.7495 14.705 85.6538 14.3221 85.6538 13.8885C85.6538 13.455 85.7467 13.0721 85.9325 12.7399C86.124 12.4077 86.3886 12.1487 86.7264 11.9629C87.0699 11.7714 87.4584 11.6757 87.892 11.6757C88.3368 11.6757 88.7281 11.7714 89.066 11.9629C89.4094 12.1487 89.6741 12.4077 89.8599 12.7399C90.0513 13.0721 90.147 13.455 90.147 13.8885C90.147 14.3221 90.0513 14.705 89.8599 15.0372C89.6741 15.3694 89.4122 15.6312 89.0744 15.8226C88.7366 16.0084 88.3509 16.1014 87.9173 16.1014ZM87.9173 14.8851C88.0862 14.8851 88.2354 14.8429 88.3649 14.7585C88.5001 14.674 88.6042 14.5586 88.6774 14.4122C88.7563 14.2602 88.7957 14.0856 88.7957 13.8885C88.7957 13.6915 88.7563 13.5197 88.6774 13.3733C88.6042 13.2213 88.5001 13.1031 88.3649 13.0186C88.2298 12.9341 88.075 12.8919 87.9004 12.8919C87.7259 12.8919 87.571 12.9341 87.4359 13.0186C87.3008 13.1031 87.1938 13.2213 87.115 13.3733C87.0418 13.5197 87.0052 13.6915 87.0052 13.8885C87.0052 14.0856 87.0418 14.2602 87.115 14.4122C87.1938 14.5586 87.3008 14.674 87.4359 14.7585C87.5767 14.8429 87.7371 14.8851 87.9173 14.8851ZM90.6203 16V11.7771H91.8618L91.9125 12.3176C92.0532 12.1149 92.225 11.9572 92.4277 11.8446C92.6304 11.732 92.8584 11.6757 93.1118 11.6757C93.4496 11.6757 93.734 11.7461 93.9648 11.8869C94.1957 12.022 94.3674 12.2303 94.48 12.5119C94.5983 12.7934 94.6574 13.1537 94.6574 13.5929V16H93.3398V13.8379C93.3398 13.6126 93.3145 13.4353 93.2638 13.3058C93.2131 13.1706 93.1399 13.0721 93.0442 13.0102C92.9541 12.9482 92.8415 12.9144 92.7064 12.9088C92.453 12.9032 92.2616 12.9736 92.1321 13.12C92.0026 13.2607 91.9378 13.4775 91.9378 13.7703V16H90.6203Z" fill="black"/>
<path opacity="0.5" d="M54.346 24.072C53.942 24.072 53.584 23.98 53.272 23.796C52.96 23.612 52.716 23.356 52.54 23.028C52.364 22.7 52.276 22.324 52.276 21.9C52.276 21.472 52.362 21.096 52.534 20.772C52.71 20.444 52.952 20.188 53.26 20.004C53.568 19.82 53.924 19.728 54.328 19.728C54.732 19.728 55.088 19.822 55.396 20.01C55.708 20.194 55.95 20.45 56.122 20.778C56.294 21.102 56.38 21.476 56.38 21.9C56.38 22.324 56.294 22.7 56.122 23.028C55.95 23.356 55.71 23.612 55.402 23.796C55.098 23.98 54.746 24.072 54.346 24.072ZM54.346 23.61C54.646 23.61 54.91 23.538 55.138 23.394C55.366 23.246 55.544 23.044 55.672 22.788C55.804 22.532 55.87 22.236 55.87 21.9C55.87 21.568 55.804 21.274 55.672 21.018C55.54 20.758 55.358 20.556 55.126 20.412C54.898 20.264 54.632 20.19 54.328 20.19C54.028 20.19 53.762 20.264 53.53 20.412C53.298 20.556 53.116 20.758 52.984 21.018C52.852 21.274 52.786 21.568 52.786 21.9C52.786 22.236 52.852 22.532 52.984 22.788C53.116 23.044 53.3 23.246 53.536 23.394C53.772 23.538 54.042 23.61 54.346 23.61ZM56.9582 24V21H57.4382V21.534C57.5582 21.346 57.7122 21.208 57.9002 21.12C58.0922 21.032 58.2922 20.988 58.5002 20.988V21.438C58.3242 21.438 58.1542 21.468 57.9902 21.528C57.8302 21.584 57.6982 21.678 57.5942 21.81C57.4902 21.942 57.4382 22.122 57.4382 22.35V24H56.9582ZM60.0655 25.272C59.8735 25.272 59.6975 25.252 59.5375 25.212C59.3815 25.176 59.2475 25.134 59.1355 25.086C59.0275 25.042 58.9495 25.004 58.9015 24.972L59.0815 24.582C59.1335 24.61 59.2075 24.644 59.3035 24.684C59.3995 24.728 59.5115 24.764 59.6395 24.792C59.7715 24.824 59.9115 24.84 60.0595 24.84C60.2515 24.84 60.4235 24.8 60.5755 24.72C60.7315 24.644 60.8515 24.522 60.9355 24.354C61.0235 24.19 61.0675 23.978 61.0675 23.718V23.4C60.9595 23.58 60.8175 23.722 60.6415 23.826C60.4655 23.926 60.2675 23.976 60.0475 23.976C59.7795 23.976 59.5435 23.912 59.3395 23.784C59.1355 23.656 58.9755 23.478 58.8595 23.25C58.7475 23.018 58.6915 22.754 58.6915 22.458C58.6915 22.154 58.7475 21.888 58.8595 21.66C58.9755 21.428 59.1355 21.248 59.3395 21.12C59.5435 20.992 59.7795 20.928 60.0475 20.928C60.2675 20.928 60.4655 20.978 60.6415 21.078C60.8175 21.178 60.9595 21.32 61.0675 21.504V21H61.5475V23.712C61.5475 24.056 61.4835 24.344 61.3555 24.576C61.2275 24.808 61.0515 24.982 60.8275 25.098C60.6035 25.214 60.3495 25.272 60.0655 25.272ZM60.1615 23.562C60.3375 23.562 60.4935 23.514 60.6295 23.418C60.7655 23.322 60.8715 23.192 60.9475 23.028C61.0235 22.86 61.0615 22.666 61.0615 22.446C61.0615 22.234 61.0215 22.046 60.9415 21.882C60.8655 21.714 60.7595 21.584 60.6235 21.492C60.4915 21.396 60.3355 21.348 60.1555 21.348C59.9675 21.348 59.7995 21.396 59.6515 21.492C59.5075 21.584 59.3935 21.714 59.3095 21.882C59.2295 22.046 59.1895 22.234 59.1895 22.446C59.1895 22.666 59.2315 22.86 59.3155 23.028C59.3995 23.192 59.5135 23.322 59.6575 23.418C59.8055 23.514 59.9735 23.562 60.1615 23.562ZM63.215 24.072C62.863 24.072 62.587 23.992 62.387 23.832C62.191 23.668 62.093 23.442 62.093 23.154C62.093 22.85 62.193 22.618 62.393 22.458C62.597 22.294 62.881 22.212 63.245 22.212H64.079C64.059 21.928 63.989 21.716 63.869 21.576C63.749 21.432 63.569 21.36 63.329 21.36C63.165 21.36 63.023 21.394 62.903 21.462C62.787 21.526 62.691 21.63 62.615 21.774L62.183 21.606C62.259 21.466 62.351 21.346 62.459 21.246C62.567 21.142 62.693 21.064 62.837 21.012C62.981 20.956 63.145 20.928 63.329 20.928C63.609 20.928 63.839 20.984 64.019 21.096C64.203 21.204 64.341 21.366 64.433 21.582C64.525 21.794 64.569 22.058 64.565 22.374L64.559 24H64.115L64.091 23.598C64.003 23.75 63.885 23.868 63.737 23.952C63.589 24.032 63.415 24.072 63.215 24.072ZM63.239 23.652C63.411 23.652 63.561 23.616 63.689 23.544C63.817 23.468 63.915 23.362 63.983 23.226C64.055 23.09 64.091 22.926 64.091 22.734V22.614H63.353C63.073 22.614 62.873 22.66 62.753 22.752C62.637 22.844 62.579 22.976 62.579 23.148C62.579 23.304 62.637 23.428 62.753 23.52C62.869 23.608 63.031 23.652 63.239 23.652ZM65.2056 24V21H65.6556L65.6796 21.45C65.7796 21.282 65.9096 21.154 66.0696 21.066C66.2296 20.974 66.4156 20.928 66.6276 20.928C66.8636 20.928 67.0676 20.976 67.2396 21.072C67.4156 21.164 67.5516 21.312 67.6476 21.516C67.7476 21.72 67.7956 21.988 67.7916 22.32V24H67.3116V22.464C67.3116 22.168 67.2776 21.942 67.2096 21.786C67.1416 21.63 67.0476 21.524 66.9276 21.468C66.8076 21.408 66.6716 21.378 66.5196 21.378C66.2556 21.378 66.0496 21.472 65.9016 21.66C65.7576 21.844 65.6856 22.106 65.6856 22.446V24H65.2056ZM68.4613 24V21H68.9413V24H68.4613ZM68.7073 20.304C68.6273 20.304 68.5573 20.274 68.4973 20.214C68.4373 20.154 68.4073 20.084 68.4073 20.004C68.4073 19.92 68.4373 19.85 68.4973 19.794C68.5573 19.734 68.6273 19.704 68.7073 19.704C68.7913 19.704 68.8613 19.734 68.9173 19.794C68.9773 19.85 69.0073 19.92 69.0073 20.004C69.0073 20.084 68.9773 20.154 68.9173 20.214C68.8613 20.274 68.7913 20.304 68.7073 20.304ZM70.7559 24.072C70.5359 24.072 70.3439 24.04 70.1799 23.976C70.0159 23.908 69.8779 23.82 69.7659 23.712C69.6579 23.604 69.5799 23.486 69.5319 23.358L69.9519 23.184C70.0199 23.32 70.1219 23.43 70.2579 23.514C70.3939 23.598 70.5439 23.64 70.7079 23.64C70.8959 23.64 71.0539 23.604 71.1819 23.532C71.3099 23.456 71.3739 23.35 71.3739 23.214C71.3739 23.09 71.3259 22.99 71.2299 22.914C71.1379 22.838 70.9999 22.776 70.8159 22.728L70.5279 22.65C70.2559 22.578 70.0439 22.47 69.8919 22.326C69.7399 22.178 69.6639 22.012 69.6639 21.828C69.6639 21.544 69.7559 21.324 69.9399 21.168C70.1279 21.008 70.4059 20.928 70.7739 20.928C70.9499 20.928 71.1099 20.954 71.2539 21.006C71.3979 21.058 71.5219 21.132 71.6259 21.228C71.7299 21.32 71.8059 21.43 71.8539 21.558L71.4339 21.744C71.3819 21.608 71.2959 21.51 71.1759 21.45C71.0559 21.39 70.9099 21.36 70.7379 21.36C70.5539 21.36 70.4099 21.4 70.3059 21.48C70.2019 21.556 70.1499 21.664 70.1499 21.804C70.1499 21.884 70.1919 21.96 70.2759 22.032C70.3639 22.1 70.4919 22.156 70.6599 22.2L70.9599 22.278C71.1559 22.326 71.3199 22.398 71.4519 22.494C71.5839 22.586 71.6839 22.692 71.7519 22.812C71.8199 22.932 71.8539 23.06 71.8539 23.196C71.8539 23.376 71.8059 23.532 71.7099 23.664C71.6139 23.796 71.4839 23.898 71.3199 23.97C71.1559 24.038 70.9679 24.072 70.7559 24.072ZM73.3288 24.072C72.9768 24.072 72.7008 23.992 72.5008 23.832C72.3048 23.668 72.2068 23.442 72.2068 23.154C72.2068 22.85 72.3068 22.618 72.5068 22.458C72.7108 22.294 72.9948 22.212 73.3588 22.212H74.1928C74.1728 21.928 74.1028 21.716 73.9828 21.576C73.8628 21.432 73.6828 21.36 73.4428 21.36C73.2788 21.36 73.1368 21.394 73.0168 21.462C72.9008 21.526 72.8048 21.63 72.7288 21.774L72.2968 21.606C72.3728 21.466 72.4648 21.346 72.5728 21.246C72.6808 21.142 72.8068 21.064 72.9508 21.012C73.0948 20.956 73.2588 20.928 73.4428 20.928C73.7228 20.928 73.9528 20.984 74.1328 21.096C74.3168 21.204 74.4548 21.366 74.5468 21.582C74.6388 21.794 74.6828 22.058 74.6788 22.374L74.6728 24H74.2288L74.2048 23.598C74.1168 23.75 73.9988 23.868 73.8508 23.952C73.7028 24.032 73.5288 24.072 73.3288 24.072ZM73.3528 23.652C73.5248 23.652 73.6748 23.616 73.8028 23.544C73.9308 23.468 74.0288 23.362 74.0968 23.226C74.1688 23.09 74.2048 22.926 74.2048 22.734V22.614H73.4668C73.1868 22.614 72.9868 22.66 72.8668 22.752C72.7508 22.844 72.6928 22.976 72.6928 23.148C72.6928 23.304 72.7508 23.428 72.8668 23.52C72.9828 23.608 73.1448 23.652 73.3528 23.652ZM76.4474 24.072C76.1554 24.072 75.9294 23.996 75.7694 23.844C75.6094 23.692 75.5294 23.478 75.5294 23.202V21.426H75.0074V21H75.5294V20.064H76.0094V21H76.9094V21.426H76.0094V23.154C76.0094 23.306 76.0494 23.424 76.1294 23.508C76.2134 23.588 76.3294 23.628 76.4774 23.628C76.5254 23.628 76.5714 23.622 76.6154 23.61C76.6634 23.594 76.7254 23.558 76.8014 23.502L76.9874 23.892C76.8834 23.96 76.7894 24.006 76.7054 24.03C76.6214 24.058 76.5354 24.072 76.4474 24.072ZM77.497 24V21H77.977V24H77.497ZM77.743 20.304C77.663 20.304 77.593 20.274 77.533 20.214C77.473 20.154 77.443 20.084 77.443 20.004C77.443 19.92 77.473 19.85 77.533 19.794C77.593 19.734 77.663 19.704 77.743 19.704C77.827 19.704 77.897 19.734 77.953 19.794C78.013 19.85 78.043 19.92 78.043 20.004C78.043 20.084 78.013 20.154 77.953 20.214C77.897 20.274 77.827 20.304 77.743 20.304ZM80.0675 24.072C79.7755 24.072 79.5155 24.006 79.2875 23.874C79.0635 23.738 78.8875 23.552 78.7595 23.316C78.6315 23.08 78.5675 22.808 78.5675 22.5C78.5675 22.192 78.6295 21.92 78.7535 21.684C78.8815 21.448 79.0575 21.264 79.2815 21.132C79.5095 20.996 79.7675 20.928 80.0555 20.928C80.3515 20.928 80.6115 20.996 80.8355 21.132C81.0635 21.264 81.2395 21.448 81.3635 21.684C81.4915 21.92 81.5555 22.192 81.5555 22.5C81.5555 22.808 81.4915 23.08 81.3635 23.316C81.2395 23.552 81.0655 23.738 80.8415 23.874C80.6175 24.006 80.3595 24.072 80.0675 24.072ZM80.0675 23.628C80.2675 23.628 80.4415 23.58 80.5895 23.484C80.7375 23.388 80.8535 23.256 80.9375 23.088C81.0255 22.92 81.0695 22.724 81.0695 22.5C81.0695 22.276 81.0255 22.08 80.9375 21.912C80.8535 21.744 80.7355 21.612 80.5835 21.516C80.4315 21.42 80.2555 21.372 80.0555 21.372C79.8595 21.372 79.6855 21.42 79.5335 21.516C79.3855 21.612 79.2675 21.744 79.1795 21.912C79.0955 22.08 79.0535 22.276 79.0535 22.5C79.0535 22.72 79.0955 22.916 79.1795 23.088C79.2675 23.256 79.3875 23.388 79.5395 23.484C79.6955 23.58 79.8715 23.628 80.0675 23.628ZM82.102 24V21H82.552L82.576 21.45C82.676 21.282 82.806 21.154 82.966 21.066C83.126 20.974 83.312 20.928 83.524 20.928C83.76 20.928 83.964 20.976 84.136 21.072C84.312 21.164 84.448 21.312 84.544 21.516C84.644 21.72 84.692 21.988 84.688 22.32V24H84.208V22.464C84.208 22.168 84.174 21.942 84.106 21.786C84.038 21.63 83.944 21.524 83.824 21.468C83.704 21.408 83.568 21.378 83.416 21.378C83.152 21.378 82.946 21.472 82.798 21.66C82.654 21.844 82.582 22.106 82.582 22.446V24H82.102ZM87.8721 24.072C87.6041 24.072 87.3681 24.006 87.1641 23.874C86.9601 23.742 86.8001 23.558 86.6841 23.322C86.5721 23.082 86.5161 22.808 86.5161 22.5C86.5161 22.188 86.5721 21.914 86.6841 21.678C86.8001 21.442 86.9601 21.258 87.1641 21.126C87.3681 20.994 87.6041 20.928 87.8721 20.928C88.0921 20.928 88.2881 20.98 88.4601 21.084C88.6361 21.184 88.7781 21.324 88.8861 21.504V19.8H89.3661V24H88.9101L88.8861 23.49C88.7781 23.67 88.6361 23.812 88.4601 23.916C88.2881 24.02 88.0921 24.072 87.8721 24.072ZM87.9801 23.634C88.1561 23.634 88.3101 23.588 88.4421 23.496C88.5781 23.4 88.6841 23.268 88.7601 23.1C88.8401 22.928 88.8821 22.736 88.8861 22.524V22.482C88.8821 22.266 88.8401 22.074 88.7601 21.906C88.6841 21.734 88.5781 21.602 88.4421 21.51C88.3061 21.414 88.1501 21.366 87.9741 21.366C87.7861 21.366 87.6181 21.414 87.4701 21.51C87.3221 21.606 87.2061 21.74 87.1221 21.912C87.0421 22.084 87.0021 22.28 87.0021 22.5C87.0021 22.72 87.0441 22.916 87.1281 23.088C87.2121 23.26 87.3281 23.394 87.4761 23.49C87.6241 23.586 87.7921 23.634 87.9801 23.634ZM91.1717 24.072C90.9397 24.072 90.7357 24.026 90.5597 23.934C90.3877 23.838 90.2517 23.688 90.1517 23.484C90.0557 23.276 90.0077 23.008 90.0077 22.68V21H90.4877V22.536C90.4877 22.832 90.5217 23.058 90.5897 23.214C90.6577 23.37 90.7517 23.478 90.8717 23.538C90.9957 23.594 91.1337 23.622 91.2857 23.622C91.5457 23.622 91.7477 23.528 91.8917 23.34C92.0397 23.152 92.1137 22.89 92.1137 22.554V21H92.5937V24H92.1437L92.1197 23.55C92.0197 23.718 91.8897 23.848 91.7297 23.94C91.5697 24.028 91.3837 24.072 91.1717 24.072ZM95.8738 25.272C95.6818 25.272 95.5058 25.252 95.3458 25.212C95.1898 25.176 95.0558 25.134 94.9438 25.086C94.8358 25.042 94.7578 25.004 94.7098 24.972L94.8898 24.582C94.9418 24.61 95.0158 24.644 95.1118 24.684C95.2078 24.728 95.3198 24.764 95.4478 24.792C95.5798 24.824 95.7198 24.84 95.8678 24.84C96.0598 24.84 96.2318 24.8 96.3838 24.72C96.5398 24.644 96.6598 24.522 96.7438 24.354C96.8318 24.19 96.8758 23.978 96.8758 23.718V23.4C96.7678 23.58 96.6258 23.722 96.4498 23.826C96.2738 23.926 96.0758 23.976 95.8558 23.976C95.5878 23.976 95.3518 23.912 95.1478 23.784C94.9438 23.656 94.7838 23.478 94.6678 23.25C94.5558 23.018 94.4998 22.754 94.4998 22.458C94.4998 22.154 94.5558 21.888 94.6678 21.66C94.7838 21.428 94.9438 21.248 95.1478 21.12C95.3518 20.992 95.5878 20.928 95.8558 20.928C96.0758 20.928 96.2738 20.978 96.4498 21.078C96.6258 21.178 96.7678 21.32 96.8758 21.504V21H97.3558V23.712C97.3558 24.056 97.2918 24.344 97.1638 24.576C97.0358 24.808 96.8598 24.982 96.6358 25.098C96.4118 25.214 96.1578 25.272 95.8738 25.272ZM95.9698 23.562C96.1458 23.562 96.3018 23.514 96.4378 23.418C96.5738 23.322 96.6798 23.192 96.7558 23.028C96.8318 22.86 96.8698 22.666 96.8698 22.446C96.8698 22.234 96.8298 22.046 96.7498 21.882C96.6738 21.714 96.5678 21.584 96.4318 21.492C96.2998 21.396 96.1438 21.348 95.9638 21.348C95.7758 21.348 95.6078 21.396 95.4598 21.492C95.3158 21.584 95.2018 21.714 95.1178 21.882C95.0378 22.046 94.9978 22.234 94.9978 22.446C94.9978 22.666 95.0398 22.86 95.1238 23.028C95.2078 23.192 95.3218 23.322 95.4658 23.418C95.6138 23.514 95.7818 23.562 95.9698 23.562ZM98.0753 24V21H98.5553V21.534C98.6753 21.346 98.8293 21.208 99.0173 21.12C99.2093 21.032 99.4093 20.988 99.6173 20.988V21.438C99.4413 21.438 99.2713 21.468 99.1073 21.528C98.9473 21.584 98.8153 21.678 98.7113 21.81C98.6073 21.942 98.5553 22.122 98.5553 22.35V24H98.0753ZM101.309 24.072C101.017 24.072 100.757 24.006 100.529 23.874C100.305 23.738 100.129 23.552 100.001 23.316C99.8727 23.08 99.8087 22.808 99.8087 22.5C99.8087 22.192 99.8707 21.92 99.9947 21.684C100.123 21.448 100.299 21.264 100.523 21.132C100.751 20.996 101.009 20.928 101.297 20.928C101.593 20.928 101.853 20.996 102.077 21.132C102.305 21.264 102.481 21.448 102.605 21.684C102.733 21.92 102.797 22.192 102.797 22.5C102.797 22.808 102.733 23.08 102.605 23.316C102.481 23.552 102.307 23.738 102.083 23.874C101.859 24.006 101.601 24.072 101.309 24.072ZM101.309 23.628C101.509 23.628 101.683 23.58 101.831 23.484C101.979 23.388 102.095 23.256 102.179 23.088C102.267 22.92 102.311 22.724 102.311 22.5C102.311 22.276 102.267 22.08 102.179 21.912C102.095 21.744 101.977 21.612 101.825 21.516C101.673 21.42 101.497 21.372 101.297 21.372C101.101 21.372 100.927 21.42 100.775 21.516C100.627 21.612 100.509 21.744 100.421 21.912C100.337 22.08 100.295 22.276 100.295 22.5C100.295 22.72 100.337 22.916 100.421 23.088C100.509 23.256 100.629 23.388 100.781 23.484C100.937 23.58 101.113 23.628 101.309 23.628ZM104.429 24.072C104.197 24.072 103.993 24.026 103.817 23.934C103.645 23.838 103.509 23.688 103.409 23.484C103.313 23.276 103.265 23.008 103.265 22.68V21H103.745V22.536C103.745 22.832 103.779 23.058 103.847 23.214C103.915 23.37 104.009 23.478 104.129 23.538C104.253 23.594 104.391 23.622 104.543 23.622C104.803 23.622 105.005 23.528 105.149 23.34C105.297 23.152 105.371 22.89 105.371 22.554V21H105.851V24H105.401L105.377 23.55C105.277 23.718 105.147 23.848 104.987 23.94C104.827 24.028 104.641 24.072 104.429 24.072ZM106.599 25.2V21H107.049L107.073 21.51C107.185 21.33 107.327 21.188 107.499 21.084C107.675 20.98 107.873 20.928 108.093 20.928C108.361 20.928 108.597 20.994 108.801 21.126C109.005 21.258 109.163 21.442 109.275 21.678C109.391 21.914 109.449 22.188 109.449 22.5C109.449 22.808 109.391 23.082 109.275 23.322C109.163 23.558 109.005 23.742 108.801 23.874C108.597 24.006 108.361 24.072 108.093 24.072C107.873 24.072 107.677 24.022 107.505 23.922C107.333 23.818 107.191 23.676 107.079 23.496V25.2H106.599ZM107.985 23.634C108.173 23.634 108.339 23.586 108.483 23.49C108.631 23.394 108.747 23.26 108.831 23.088C108.919 22.916 108.963 22.72 108.963 22.5C108.963 22.28 108.921 22.084 108.837 21.912C108.757 21.74 108.643 21.606 108.495 21.51C108.347 21.414 108.179 21.366 107.991 21.366C107.815 21.366 107.657 21.414 107.517 21.51C107.381 21.606 107.273 21.74 107.193 21.912C107.117 22.084 107.079 22.28 107.079 22.5C107.079 22.72 107.117 22.916 107.193 23.088C107.273 23.26 107.381 23.394 107.517 23.49C107.653 23.586 107.809 23.634 107.985 23.634ZM111.308 24.072C111.016 24.072 110.758 24.006 110.534 23.874C110.31 23.738 110.134 23.552 110.006 23.316C109.882 23.08 109.82 22.808 109.82 22.5C109.82 22.192 109.882 21.92 110.006 21.684C110.134 21.448 110.308 21.264 110.528 21.132C110.752 20.996 111.008 20.928 111.296 20.928C111.576 20.928 111.818 20.998 112.022 21.138C112.226 21.274 112.384 21.466 112.496 21.714C112.608 21.962 112.664 22.254 112.664 22.59H110.306C110.326 22.918 110.43 23.174 110.618 23.358C110.806 23.542 111.044 23.634 111.332 23.634C111.544 23.634 111.722 23.584 111.866 23.484C112.014 23.384 112.128 23.252 112.208 23.088L112.622 23.298C112.546 23.454 112.444 23.59 112.316 23.706C112.192 23.822 112.044 23.912 111.872 23.976C111.704 24.04 111.516 24.072 111.308 24.072ZM110.342 22.188H112.148C112.136 22.016 112.09 21.868 112.01 21.744C111.934 21.62 111.834 21.524 111.71 21.456C111.586 21.388 111.446 21.354 111.29 21.354C111.138 21.354 110.992 21.388 110.852 21.456C110.712 21.52 110.596 21.616 110.504 21.744C110.412 21.868 110.358 22.016 110.342 22.188ZM115.826 24.072C115.534 24.072 115.276 24.006 115.052 23.874C114.828 23.738 114.652 23.552 114.524 23.316C114.4 23.08 114.338 22.808 114.338 22.5C114.338 22.192 114.4 21.92 114.524 21.684C114.652 21.448 114.826 21.264 115.046 21.132C115.27 20.996 115.526 20.928 115.814 20.928C116.094 20.928 116.336 20.998 116.54 21.138C116.744 21.274 116.902 21.466 117.014 21.714C117.126 21.962 117.182 22.254 117.182 22.59H114.824C114.844 22.918 114.948 23.174 115.136 23.358C115.324 23.542 115.562 23.634 115.85 23.634C116.062 23.634 116.24 23.584 116.384 23.484C116.532 23.384 116.646 23.252 116.726 23.088L117.14 23.298C117.064 23.454 116.962 23.59 116.834 23.706C116.71 23.822 116.562 23.912 116.39 23.976C116.222 24.04 116.034 24.072 115.826 24.072ZM114.86 22.188H116.666C116.654 22.016 116.608 21.868 116.528 21.744C116.452 21.62 116.352 21.524 116.228 21.456C116.104 21.388 115.964 21.354 115.808 21.354C115.656 21.354 115.51 21.388 115.37 21.456C115.23 21.52 115.114 21.616 115.022 21.744C114.93 21.868 114.876 22.016 114.86 22.188ZM118.795 24.072C118.503 24.072 118.277 23.996 118.117 23.844C117.957 23.692 117.877 23.478 117.877 23.202V21.426H117.355V21H117.877V20.064H118.357V21H119.257V21.426H118.357V23.154C118.357 23.306 118.397 23.424 118.477 23.508C118.561 23.588 118.677 23.628 118.825 23.628C118.873 23.628 118.919 23.622 118.963 23.61C119.011 23.594 119.073 23.558 119.149 23.502L119.335 23.892C119.231 23.96 119.137 24.006 119.053 24.03C118.969 24.058 118.883 24.072 118.795 24.072ZM122.359 24.072C122.091 24.072 121.855 24.006 121.651 23.874C121.447 23.742 121.287 23.558 121.171 23.322C121.059 23.082 121.003 22.808 121.003 22.5C121.003 22.188 121.059 21.914 121.171 21.678C121.287 21.442 121.447 21.258 121.651 21.126C121.855 20.994 122.091 20.928 122.359 20.928C122.579 20.928 122.775 20.98 122.947 21.084C123.123 21.184 123.265 21.324 123.373 21.504V19.8H123.853V24H123.397L123.373 23.49C123.265 23.67 123.123 23.812 122.947 23.916C122.775 24.02 122.579 24.072 122.359 24.072ZM122.467 23.634C122.643 23.634 122.797 23.588 122.929 23.496C123.065 23.4 123.171 23.268 123.247 23.1C123.327 22.928 123.369 22.736 123.373 22.524V22.482C123.369 22.266 123.327 22.074 123.247 21.906C123.171 21.734 123.065 21.602 122.929 21.51C122.793 21.414 122.637 21.366 122.461 21.366C122.273 21.366 122.105 21.414 121.957 21.51C121.809 21.606 121.693 21.74 121.609 21.912C121.529 22.084 121.489 22.28 121.489 22.5C121.489 22.72 121.531 22.916 121.615 23.088C121.699 23.26 121.815 23.394 121.963 23.49C122.111 23.586 122.279 23.634 122.467 23.634ZM125.887 24.072C125.595 24.072 125.337 24.006 125.113 23.874C124.889 23.738 124.713 23.552 124.585 23.316C124.461 23.08 124.399 22.808 124.399 22.5C124.399 22.192 124.461 21.92 124.585 21.684C124.713 21.448 124.887 21.264 125.107 21.132C125.331 20.996 125.587 20.928 125.875 20.928C126.155 20.928 126.397 20.998 126.601 21.138C126.805 21.274 126.963 21.466 127.075 21.714C127.187 21.962 127.243 22.254 127.243 22.59H124.885C124.905 22.918 125.009 23.174 125.197 23.358C125.385 23.542 125.623 23.634 125.911 23.634C126.123 23.634 126.301 23.584 126.445 23.484C126.593 23.384 126.707 23.252 126.787 23.088L127.201 23.298C127.125 23.454 127.023 23.59 126.895 23.706C126.771 23.822 126.623 23.912 126.451 23.976C126.283 24.04 126.095 24.072 125.887 24.072ZM124.921 22.188H126.727C126.715 22.016 126.669 21.868 126.589 21.744C126.513 21.62 126.413 21.524 126.289 21.456C126.165 21.388 126.025 21.354 125.869 21.354C125.717 21.354 125.571 21.388 125.431 21.456C125.291 21.52 125.175 21.616 125.083 21.744C124.991 21.868 124.937 22.016 124.921 22.188ZM125.473 20.574L126.175 19.8H126.793L126.019 20.574H125.473ZM129.072 24.072C128.776 24.072 128.514 24.006 128.286 23.874C128.058 23.738 127.88 23.552 127.752 23.316C127.624 23.08 127.56 22.808 127.56 22.5C127.56 22.192 127.622 21.92 127.746 21.684C127.874 21.448 128.052 21.264 128.28 21.132C128.508 20.996 128.768 20.928 129.06 20.928C129.348 20.928 129.606 20.994 129.834 21.126C130.062 21.258 130.236 21.444 130.356 21.684L129.918 21.882C129.838 21.722 129.722 21.598 129.57 21.51C129.418 21.418 129.244 21.372 129.048 21.372C128.852 21.372 128.678 21.42 128.526 21.516C128.378 21.612 128.26 21.746 128.172 21.918C128.088 22.086 128.046 22.28 128.046 22.5C128.046 22.72 128.088 22.916 128.172 23.088C128.26 23.256 128.38 23.388 128.532 23.484C128.688 23.58 128.864 23.628 129.06 23.628C129.256 23.628 129.43 23.578 129.582 23.478C129.738 23.378 129.856 23.238 129.936 23.058L130.374 23.256C130.254 23.512 130.08 23.712 129.852 23.856C129.624 24 129.364 24.072 129.072 24.072ZM132.186 24.072C131.894 24.072 131.634 24.006 131.406 23.874C131.182 23.738 131.006 23.552 130.878 23.316C130.75 23.08 130.686 22.808 130.686 22.5C130.686 22.192 130.748 21.92 130.872 21.684C131 21.448 131.176 21.264 131.4 21.132C131.628 20.996 131.886 20.928 132.174 20.928C132.47 20.928 132.73 20.996 132.954 21.132C133.182 21.264 133.358 21.448 133.482 21.684C133.61 21.92 133.674 22.192 133.674 22.5C133.674 22.808 133.61 23.08 133.482 23.316C133.358 23.552 133.184 23.738 132.96 23.874C132.736 24.006 132.478 24.072 132.186 24.072ZM132.186 23.628C132.386 23.628 132.56 23.58 132.708 23.484C132.856 23.388 132.972 23.256 133.056 23.088C133.144 22.92 133.188 22.724 133.188 22.5C133.188 22.276 133.144 22.08 133.056 21.912C132.972 21.744 132.854 21.612 132.702 21.516C132.55 21.42 132.374 21.372 132.174 21.372C131.978 21.372 131.804 21.42 131.652 21.516C131.504 21.612 131.386 21.744 131.298 21.912C131.214 22.08 131.172 22.276 131.172 22.5C131.172 22.72 131.214 22.916 131.298 23.088C131.386 23.256 131.506 23.388 131.658 23.484C131.814 23.58 131.99 23.628 132.186 23.628ZM135.306 24.072C135.074 24.072 134.87 24.026 134.694 23.934C134.522 23.838 134.386 23.688 134.286 23.484C134.19 23.276 134.142 23.008 134.142 22.68V21H134.622V22.536C134.622 22.832 134.656 23.058 134.724 23.214C134.792 23.37 134.886 23.478 135.006 23.538C135.13 23.594 135.268 23.622 135.42 23.622C135.68 23.622 135.882 23.528 136.026 23.34C136.174 23.152 136.248 22.89 136.248 22.554V21H136.728V24H136.278L136.254 23.55C136.154 23.718 136.024 23.848 135.864 23.94C135.704 24.028 135.518 24.072 135.306 24.072ZM137.476 25.2V21H137.926L137.95 21.51C138.062 21.33 138.204 21.188 138.376 21.084C138.552 20.98 138.75 20.928 138.97 20.928C139.238 20.928 139.474 20.994 139.678 21.126C139.882 21.258 140.04 21.442 140.152 21.678C140.268 21.914 140.326 22.188 140.326 22.5C140.326 22.808 140.268 23.082 140.152 23.322C140.04 23.558 139.882 23.742 139.678 23.874C139.474 24.006 139.238 24.072 138.97 24.072C138.75 24.072 138.554 24.022 138.382 23.922C138.21 23.818 138.068 23.676 137.956 23.496V25.2H137.476ZM138.862 23.634C139.05 23.634 139.216 23.586 139.36 23.49C139.508 23.394 139.624 23.26 139.708 23.088C139.796 22.916 139.84 22.72 139.84 22.5C139.84 22.28 139.798 22.084 139.714 21.912C139.634 21.74 139.52 21.606 139.372 21.51C139.224 21.414 139.056 21.366 138.868 21.366C138.692 21.366 138.534 21.414 138.394 21.51C138.258 21.606 138.15 21.74 138.07 21.912C137.994 22.084 137.956 22.28 137.956 22.5C137.956 22.72 137.994 22.916 138.07 23.088C138.15 23.26 138.258 23.394 138.394 23.49C138.53 23.586 138.686 23.634 138.862 23.634ZM141.819 24.072C141.467 24.072 141.191 23.992 140.991 23.832C140.795 23.668 140.697 23.442 140.697 23.154C140.697 22.85 140.797 22.618 140.997 22.458C141.201 22.294 141.485 22.212 141.849 22.212H142.683C142.663 21.928 142.593 21.716 142.473 21.576C142.353 21.432 142.173 21.36 141.933 21.36C141.769 21.36 141.627 21.394 141.507 21.462C141.391 21.526 141.295 21.63 141.219 21.774L140.787 21.606C140.863 21.466 140.955 21.346 141.063 21.246C141.171 21.142 141.297 21.064 141.441 21.012C141.585 20.956 141.749 20.928 141.933 20.928C142.213 20.928 142.443 20.984 142.623 21.096C142.807 21.204 142.945 21.366 143.037 21.582C143.129 21.794 143.173 22.058 143.169 22.374L143.163 24H142.719L142.695 23.598C142.607 23.75 142.489 23.868 142.341 23.952C142.193 24.032 142.019 24.072 141.819 24.072ZM141.843 23.652C142.015 23.652 142.165 23.616 142.293 23.544C142.421 23.468 142.519 23.362 142.587 23.226C142.659 23.09 142.695 22.926 142.695 22.734V22.614H141.957C141.677 22.614 141.477 22.66 141.357 22.752C141.241 22.844 141.183 22.976 141.183 23.148C141.183 23.304 141.241 23.428 141.357 23.52C141.473 23.608 141.635 23.652 141.843 23.652ZM145.01 25.272C144.818 25.272 144.642 25.252 144.482 25.212C144.326 25.176 144.192 25.134 144.08 25.086C143.972 25.042 143.894 25.004 143.846 24.972L144.026 24.582C144.078 24.61 144.152 24.644 144.248 24.684C144.344 24.728 144.456 24.764 144.584 24.792C144.716 24.824 144.856 24.84 145.004 24.84C145.196 24.84 145.368 24.8 145.52 24.72C145.676 24.644 145.796 24.522 145.88 24.354C145.968 24.19 146.012 23.978 146.012 23.718V23.4C145.904 23.58 145.762 23.722 145.586 23.826C145.41 23.926 145.212 23.976 144.992 23.976C144.724 23.976 144.488 23.912 144.284 23.784C144.08 23.656 143.92 23.478 143.804 23.25C143.692 23.018 143.636 22.754 143.636 22.458C143.636 22.154 143.692 21.888 143.804 21.66C143.92 21.428 144.08 21.248 144.284 21.12C144.488 20.992 144.724 20.928 144.992 20.928C145.212 20.928 145.41 20.978 145.586 21.078C145.762 21.178 145.904 21.32 146.012 21.504V21H146.492V23.712C146.492 24.056 146.428 24.344 146.3 24.576C146.172 24.808 145.996 24.982 145.772 25.098C145.548 25.214 145.294 25.272 145.01 25.272ZM145.106 23.562C145.282 23.562 145.438 23.514 145.574 23.418C145.71 23.322 145.816 23.192 145.892 23.028C145.968 22.86 146.006 22.666 146.006 22.446C146.006 22.234 145.966 22.046 145.886 21.882C145.81 21.714 145.704 21.584 145.568 21.492C145.436 21.396 145.28 21.348 145.1 21.348C144.912 21.348 144.744 21.396 144.596 21.492C144.452 21.584 144.338 21.714 144.254 21.882C144.174 22.046 144.134 22.234 144.134 22.446C144.134 22.666 144.176 22.86 144.26 23.028C144.344 23.192 144.458 23.322 144.602 23.418C144.75 23.514 144.918 23.562 145.106 23.562ZM148.525 24.072C148.233 24.072 147.975 24.006 147.751 23.874C147.527 23.738 147.351 23.552 147.223 23.316C147.099 23.08 147.037 22.808 147.037 22.5C147.037 22.192 147.099 21.92 147.223 21.684C147.351 21.448 147.525 21.264 147.745 21.132C147.969 20.996 148.225 20.928 148.513 20.928C148.793 20.928 149.035 20.998 149.239 21.138C149.443 21.274 149.601 21.466 149.713 21.714C149.825 21.962 149.881 22.254 149.881 22.59H147.523C147.543 22.918 147.647 23.174 147.835 23.358C148.023 23.542 148.261 23.634 148.549 23.634C148.761 23.634 148.939 23.584 149.083 23.484C149.231 23.384 149.345 23.252 149.425 23.088L149.839 23.298C149.763 23.454 149.661 23.59 149.533 23.706C149.409 23.822 149.261 23.912 149.089 23.976C148.921 24.04 148.733 24.072 148.525 24.072ZM147.559 22.188H149.365C149.353 22.016 149.307 21.868 149.227 21.744C149.151 21.62 149.051 21.524 148.927 21.456C148.803 21.388 148.663 21.354 148.507 21.354C148.355 21.354 148.209 21.388 148.069 21.456C147.929 21.52 147.813 21.616 147.721 21.744C147.629 21.868 147.575 22.016 147.559 22.188ZM152.911 24.072C152.643 24.072 152.407 24.006 152.203 23.874C151.999 23.742 151.839 23.558 151.723 23.322C151.611 23.082 151.555 22.808 151.555 22.5C151.555 22.188 151.611 21.914 151.723 21.678C151.839 21.442 151.999 21.258 152.203 21.126C152.407 20.994 152.643 20.928 152.911 20.928C153.131 20.928 153.327 20.98 153.499 21.084C153.675 21.184 153.817 21.324 153.925 21.504V19.8H154.405V24H153.949L153.925 23.49C153.817 23.67 153.675 23.812 153.499 23.916C153.327 24.02 153.131 24.072 152.911 24.072ZM153.019 23.634C153.195 23.634 153.349 23.588 153.481 23.496C153.617 23.4 153.723 23.268 153.799 23.1C153.879 22.928 153.921 22.736 153.925 22.524V22.482C153.921 22.266 153.879 22.074 153.799 21.906C153.723 21.734 153.617 21.602 153.481 21.51C153.345 21.414 153.189 21.366 153.013 21.366C152.825 21.366 152.657 21.414 152.509 21.51C152.361 21.606 152.245 21.74 152.161 21.912C152.081 22.084 152.041 22.28 152.041 22.5C152.041 22.72 152.083 22.916 152.167 23.088C152.251 23.26 152.367 23.394 152.515 23.49C152.663 23.586 152.831 23.634 153.019 23.634ZM156.439 24.072C156.147 24.072 155.889 24.006 155.665 23.874C155.441 23.738 155.265 23.552 155.137 23.316C155.013 23.08 154.951 22.808 154.951 22.5C154.951 22.192 155.013 21.92 155.137 21.684C155.265 21.448 155.439 21.264 155.659 21.132C155.883 20.996 156.139 20.928 156.427 20.928C156.707 20.928 156.949 20.998 157.153 21.138C157.357 21.274 157.515 21.466 157.627 21.714C157.739 21.962 157.795 22.254 157.795 22.59H155.437C155.457 22.918 155.561 23.174 155.749 23.358C155.937 23.542 156.175 23.634 156.463 23.634C156.675 23.634 156.853 23.584 156.997 23.484C157.145 23.384 157.259 23.252 157.339 23.088L157.753 23.298C157.677 23.454 157.575 23.59 157.447 23.706C157.323 23.822 157.175 23.912 157.003 23.976C156.835 24.04 156.647 24.072 156.439 24.072ZM155.473 22.188H157.279C157.267 22.016 157.221 21.868 157.141 21.744C157.065 21.62 156.965 21.524 156.841 21.456C156.717 21.388 156.577 21.354 156.421 21.354C156.269 21.354 156.123 21.388 155.983 21.456C155.843 21.52 155.727 21.616 155.635 21.744C155.543 21.868 155.489 22.016 155.473 22.188ZM159.33 24.072C159.11 24.072 158.918 24.04 158.754 23.976C158.59 23.908 158.452 23.82 158.34 23.712C158.232 23.604 158.154 23.486 158.106 23.358L158.526 23.184C158.594 23.32 158.696 23.43 158.832 23.514C158.968 23.598 159.118 23.64 159.282 23.64C159.47 23.64 159.628 23.604 159.756 23.532C159.884 23.456 159.948 23.35 159.948 23.214C159.948 23.09 159.9 22.99 159.804 22.914C159.712 22.838 159.574 22.776 159.39 22.728L159.102 22.65C158.83 22.578 158.618 22.47 158.466 22.326C158.314 22.178 158.238 22.012 158.238 21.828C158.238 21.544 158.33 21.324 158.514 21.168C158.702 21.008 158.98 20.928 159.348 20.928C159.524 20.928 159.684 20.954 159.828 21.006C159.972 21.058 160.096 21.132 160.2 21.228C160.304 21.32 160.38 21.43 160.428 21.558L160.008 21.744C159.956 21.608 159.87 21.51 159.75 21.45C159.63 21.39 159.484 21.36 159.312 21.36C159.128 21.36 158.984 21.4 158.88 21.48C158.776 21.556 158.724 21.664 158.724 21.804C158.724 21.884 158.766 21.96 158.85 22.032C158.938 22.1 159.066 22.156 159.234 22.2L159.534 22.278C159.73 22.326 159.894 22.398 160.026 22.494C160.158 22.586 160.258 22.692 160.326 22.812C160.394 22.932 160.428 23.06 160.428 23.196C160.428 23.376 160.38 23.532 160.284 23.664C160.188 23.796 160.058 23.898 159.894 23.97C159.73 24.038 159.542 24.072 159.33 24.072ZM162.317 24V21H162.767L162.791 21.42C162.883 21.26 163.001 21.138 163.145 21.054C163.289 20.97 163.457 20.928 163.649 20.928C163.889 20.928 164.093 20.984 164.261 21.096C164.433 21.208 164.557 21.378 164.633 21.606C164.717 21.386 164.839 21.218 164.999 21.102C165.163 20.986 165.357 20.928 165.581 20.928C165.917 20.928 166.181 21.04 166.373 21.264C166.569 21.488 166.665 21.828 166.661 22.284V24H166.181V22.464C166.181 22.168 166.149 21.942 166.085 21.786C166.025 21.63 165.943 21.524 165.839 21.468C165.735 21.408 165.615 21.378 165.479 21.378C165.243 21.378 165.059 21.472 164.927 21.66C164.795 21.844 164.729 22.106 164.729 22.446V24H164.249V22.464C164.249 22.168 164.217 21.942 164.153 21.786C164.093 21.63 164.009 21.524 163.901 21.468C163.797 21.408 163.677 21.378 163.541 21.378C163.309 21.378 163.127 21.472 162.995 21.66C162.863 21.844 162.797 22.106 162.797 22.446V24H162.317ZM167.331 24V21H167.811V24H167.331ZM167.577 20.304C167.497 20.304 167.427 20.274 167.367 20.214C167.307 20.154 167.277 20.084 167.277 20.004C167.277 19.92 167.307 19.85 167.367 19.794C167.427 19.734 167.497 19.704 167.577 19.704C167.661 19.704 167.731 19.734 167.787 19.794C167.847 19.85 167.877 19.92 167.877 20.004C167.877 20.084 167.847 20.154 167.787 20.214C167.731 20.274 167.661 20.304 167.577 20.304ZM169.625 24.072C169.405 24.072 169.213 24.04 169.049 23.976C168.885 23.908 168.747 23.82 168.635 23.712C168.527 23.604 168.449 23.486 168.401 23.358L168.821 23.184C168.889 23.32 168.991 23.43 169.127 23.514C169.263 23.598 169.413 23.64 169.577 23.64C169.765 23.64 169.923 23.604 170.051 23.532C170.179 23.456 170.243 23.35 170.243 23.214C170.243 23.09 170.195 22.99 170.099 22.914C170.007 22.838 169.869 22.776 169.685 22.728L169.397 22.65C169.125 22.578 168.913 22.47 168.761 22.326C168.609 22.178 168.533 22.012 168.533 21.828C168.533 21.544 168.625 21.324 168.809 21.168C168.997 21.008 169.275 20.928 169.643 20.928C169.819 20.928 169.979 20.954 170.123 21.006C170.267 21.058 170.391 21.132 170.495 21.228C170.599 21.32 170.675 21.43 170.723 21.558L170.303 21.744C170.251 21.608 170.165 21.51 170.045 21.45C169.925 21.39 169.779 21.36 169.607 21.36C169.423 21.36 169.279 21.4 169.175 21.48C169.071 21.556 169.019 21.664 169.019 21.804C169.019 21.884 169.061 21.96 169.145 22.032C169.233 22.1 169.361 22.156 169.529 22.2L169.829 22.278C170.025 22.326 170.189 22.398 170.321 22.494C170.453 22.586 170.553 22.692 170.621 22.812C170.689 22.932 170.723 23.06 170.723 23.196C170.723 23.376 170.675 23.532 170.579 23.664C170.483 23.796 170.353 23.898 170.189 23.97C170.025 24.038 169.837 24.072 169.625 24.072ZM172.3 24.072C172.08 24.072 171.888 24.04 171.724 23.976C171.56 23.908 171.422 23.82 171.31 23.712C171.202 23.604 171.124 23.486 171.076 23.358L171.496 23.184C171.564 23.32 171.666 23.43 171.802 23.514C171.938 23.598 172.088 23.64 172.252 23.64C172.44 23.64 172.598 23.604 172.726 23.532C172.854 23.456 172.918 23.35 172.918 23.214C172.918 23.09 172.87 22.99 172.774 22.914C172.682 22.838 172.544 22.776 172.36 22.728L172.072 22.65C171.8 22.578 171.588 22.47 171.436 22.326C171.284 22.178 171.208 22.012 171.208 21.828C171.208 21.544 171.3 21.324 171.484 21.168C171.672 21.008 171.95 20.928 172.318 20.928C172.494 20.928 172.654 20.954 172.798 21.006C172.942 21.058 173.066 21.132 173.17 21.228C173.274 21.32 173.35 21.43 173.398 21.558L172.978 21.744C172.926 21.608 172.84 21.51 172.72 21.45C172.6 21.39 172.454 21.36 172.282 21.36C172.098 21.36 171.954 21.4 171.85 21.48C171.746 21.556 171.694 21.664 171.694 21.804C171.694 21.884 171.736 21.96 171.82 22.032C171.908 22.1 172.036 22.156 172.204 22.2L172.504 22.278C172.7 22.326 172.864 22.398 172.996 22.494C173.128 22.586 173.228 22.692 173.296 22.812C173.364 22.932 173.398 23.06 173.398 23.196C173.398 23.376 173.35 23.532 173.254 23.664C173.158 23.796 173.028 23.898 172.864 23.97C172.7 24.038 172.512 24.072 172.3 24.072ZM173.955 24V21H174.435V24H173.955ZM174.201 20.304C174.121 20.304 174.051 20.274 173.991 20.214C173.931 20.154 173.901 20.084 173.901 20.004C173.901 19.92 173.931 19.85 173.991 19.794C174.051 19.734 174.121 19.704 174.201 19.704C174.285 19.704 174.355 19.734 174.411 19.794C174.471 19.85 174.501 19.92 174.501 20.004C174.501 20.084 174.471 20.154 174.411 20.214C174.355 20.274 174.285 20.304 174.201 20.304ZM176.526 24.072C176.234 24.072 175.974 24.006 175.746 23.874C175.522 23.738 175.346 23.552 175.218 23.316C175.09 23.08 175.026 22.808 175.026 22.5C175.026 22.192 175.088 21.92 175.212 21.684C175.34 21.448 175.516 21.264 175.74 21.132C175.968 20.996 176.226 20.928 176.514 20.928C176.81 20.928 177.07 20.996 177.294 21.132C177.522 21.264 177.698 21.448 177.822 21.684C177.95 21.92 178.014 22.192 178.014 22.5C178.014 22.808 177.95 23.08 177.822 23.316C177.698 23.552 177.524 23.738 177.3 23.874C177.076 24.006 176.818 24.072 176.526 24.072ZM176.526 23.628C176.726 23.628 176.9 23.58 177.048 23.484C177.196 23.388 177.312 23.256 177.396 23.088C177.484 22.92 177.528 22.724 177.528 22.5C177.528 22.276 177.484 22.08 177.396 21.912C177.312 21.744 177.194 21.612 177.042 21.516C176.89 21.42 176.714 21.372 176.514 21.372C176.318 21.372 176.144 21.42 175.992 21.516C175.844 21.612 175.726 21.744 175.638 21.912C175.554 22.08 175.512 22.276 175.512 22.5C175.512 22.72 175.554 22.916 175.638 23.088C175.726 23.256 175.846 23.388 175.998 23.484C176.154 23.58 176.33 23.628 176.526 23.628ZM178.56 24V21H179.01L179.034 21.45C179.134 21.282 179.264 21.154 179.424 21.066C179.584 20.974 179.77 20.928 179.982 20.928C180.218 20.928 180.422 20.976 180.594 21.072C180.77 21.164 180.906 21.312 181.002 21.516C181.102 21.72 181.15 21.988 181.146 22.32V24H180.666V22.464C180.666 22.168 180.632 21.942 180.564 21.786C180.496 21.63 180.402 21.524 180.282 21.468C180.162 21.408 180.026 21.378 179.874 21.378C179.61 21.378 179.404 21.472 179.256 21.66C179.112 21.844 179.04 22.106 179.04 22.446V24H178.56ZM182.836 24.072C182.616 24.072 182.424 24.04 182.26 23.976C182.096 23.908 181.958 23.82 181.846 23.712C181.738 23.604 181.66 23.486 181.612 23.358L182.032 23.184C182.1 23.32 182.202 23.43 182.338 23.514C182.474 23.598 182.624 23.64 182.788 23.64C182.976 23.64 183.134 23.604 183.262 23.532C183.39 23.456 183.454 23.35 183.454 23.214C183.454 23.09 183.406 22.99 183.31 22.914C183.218 22.838 183.08 22.776 182.896 22.728L182.608 22.65C182.336 22.578 182.124 22.47 181.972 22.326C181.82 22.178 181.744 22.012 181.744 21.828C181.744 21.544 181.836 21.324 182.02 21.168C182.208 21.008 182.486 20.928 182.854 20.928C183.03 20.928 183.19 20.954 183.334 21.006C183.478 21.058 183.602 21.132 183.706 21.228C183.81 21.32 183.886 21.43 183.934 21.558L183.514 21.744C183.462 21.608 183.376 21.51 183.256 21.45C183.136 21.39 182.99 21.36 182.818 21.36C182.634 21.36 182.49 21.4 182.386 21.48C182.282 21.556 182.23 21.664 182.23 21.804C182.23 21.884 182.272 21.96 182.356 22.032C182.444 22.1 182.572 22.156 182.74 22.2L183.04 22.278C183.236 22.326 183.4 22.398 183.532 22.494C183.664 22.586 183.764 22.692 183.832 22.812C183.9 22.932 183.934 23.06 183.934 23.196C183.934 23.376 183.886 23.532 183.79 23.664C183.694 23.796 183.564 23.898 183.4 23.97C183.236 24.038 183.048 24.072 182.836 24.072ZM187.005 24.072C186.737 24.072 186.501 24.006 186.297 23.874C186.093 23.742 185.933 23.558 185.817 23.322C185.705 23.082 185.649 22.808 185.649 22.5C185.649 22.188 185.705 21.914 185.817 21.678C185.933 21.442 186.093 21.258 186.297 21.126C186.501 20.994 186.737 20.928 187.005 20.928C187.225 20.928 187.421 20.98 187.593 21.084C187.769 21.184 187.911 21.324 188.019 21.504V19.8H188.499V24H188.043L188.019 23.49C187.911 23.67 187.769 23.812 187.593 23.916C187.421 24.02 187.225 24.072 187.005 24.072ZM187.113 23.634C187.289 23.634 187.443 23.588 187.575 23.496C187.711 23.4 187.817 23.268 187.893 23.1C187.973 22.928 188.015 22.736 188.019 22.524V22.482C188.015 22.266 187.973 22.074 187.893 21.906C187.817 21.734 187.711 21.602 187.575 21.51C187.439 21.414 187.283 21.366 187.107 21.366C186.919 21.366 186.751 21.414 186.603 21.51C186.455 21.606 186.339 21.74 186.255 21.912C186.175 22.084 186.135 22.28 186.135 22.5C186.135 22.72 186.177 22.916 186.261 23.088C186.345 23.26 186.461 23.394 186.609 23.49C186.757 23.586 186.925 23.634 187.113 23.634ZM190.305 24.072C190.073 24.072 189.869 24.026 189.693 23.934C189.521 23.838 189.385 23.688 189.285 23.484C189.189 23.276 189.141 23.008 189.141 22.68V21H189.621V22.536C189.621 22.832 189.655 23.058 189.723 23.214C189.791 23.37 189.885 23.478 190.005 23.538C190.129 23.594 190.267 23.622 190.419 23.622C190.679 23.622 190.881 23.528 191.025 23.34C191.173 23.152 191.247 22.89 191.247 22.554V21H191.727V24H191.277L191.253 23.55C191.153 23.718 191.023 23.848 190.863 23.94C190.703 24.028 190.517 24.072 190.305 24.072ZM193.837 25.2V21H194.287L194.311 21.51C194.423 21.33 194.565 21.188 194.737 21.084C194.913 20.98 195.111 20.928 195.331 20.928C195.599 20.928 195.835 20.994 196.039 21.126C196.243 21.258 196.401 21.442 196.513 21.678C196.629 21.914 196.687 22.188 196.687 22.5C196.687 22.808 196.629 23.082 196.513 23.322C196.401 23.558 196.243 23.742 196.039 23.874C195.835 24.006 195.599 24.072 195.331 24.072C195.111 24.072 194.915 24.022 194.743 23.922C194.571 23.818 194.429 23.676 194.317 23.496V25.2H193.837ZM195.223 23.634C195.411 23.634 195.577 23.586 195.721 23.49C195.869 23.394 195.985 23.26 196.069 23.088C196.157 22.916 196.201 22.72 196.201 22.5C196.201 22.28 196.159 22.084 196.075 21.912C195.995 21.74 195.881 21.606 195.733 21.51C195.585 21.414 195.417 21.366 195.229 21.366C195.053 21.366 194.895 21.414 194.755 21.51C194.619 21.606 194.511 21.74 194.431 21.912C194.355 22.084 194.317 22.28 194.317 22.5C194.317 22.72 194.355 22.916 194.431 23.088C194.511 23.26 194.619 23.394 194.755 23.49C194.891 23.586 195.047 23.634 195.223 23.634ZM197.232 24V21H197.712V21.534C197.832 21.346 197.986 21.208 198.174 21.12C198.366 21.032 198.566 20.988 198.774 20.988V21.438C198.598 21.438 198.428 21.468 198.264 21.528C198.104 21.584 197.972 21.678 197.868 21.81C197.764 21.942 197.712 22.122 197.712 22.35V24H197.232ZM200.465 24.072C200.173 24.072 199.913 24.006 199.685 23.874C199.461 23.738 199.285 23.552 199.157 23.316C199.029 23.08 198.965 22.808 198.965 22.5C198.965 22.192 199.027 21.92 199.151 21.684C199.279 21.448 199.455 21.264 199.679 21.132C199.907 20.996 200.165 20.928 200.453 20.928C200.749 20.928 201.009 20.996 201.233 21.132C201.461 21.264 201.637 21.448 201.761 21.684C201.889 21.92 201.953 22.192 201.953 22.5C201.953 22.808 201.889 23.08 201.761 23.316C201.637 23.552 201.463 23.738 201.239 23.874C201.015 24.006 200.757 24.072 200.465 24.072ZM200.465 23.628C200.665 23.628 200.839 23.58 200.987 23.484C201.135 23.388 201.251 23.256 201.335 23.088C201.423 22.92 201.467 22.724 201.467 22.5C201.467 22.276 201.423 22.08 201.335 21.912C201.251 21.744 201.133 21.612 200.981 21.516C200.829 21.42 200.653 21.372 200.453 21.372C200.257 21.372 200.083 21.42 199.931 21.516C199.783 21.612 199.665 21.744 199.577 21.912C199.493 22.08 199.451 22.276 199.451 22.5C199.451 22.72 199.493 22.916 199.577 23.088C199.665 23.256 199.785 23.388 199.937 23.484C200.093 23.58 200.269 23.628 200.465 23.628ZM202.992 20.298C202.912 20.298 202.842 20.268 202.782 20.208C202.722 20.148 202.692 20.078 202.692 19.998C202.692 19.91 202.722 19.838 202.782 19.782C202.842 19.722 202.912 19.692 202.992 19.692C203.076 19.692 203.148 19.722 203.208 19.782C203.268 19.838 203.298 19.91 203.298 19.998C203.298 20.078 203.268 20.148 203.208 20.208C203.148 20.268 203.076 20.298 202.992 20.298ZM202.326 25.29C202.178 25.29 201.99 25.238 201.762 25.134L201.942 24.732C202.038 24.768 202.118 24.796 202.182 24.816C202.25 24.836 202.304 24.846 202.344 24.846C202.616 24.846 202.752 24.672 202.752 24.324V21H203.232V24.336C203.232 24.648 203.156 24.884 203.004 25.044C202.852 25.208 202.626 25.29 202.326 25.29ZM205.305 24.072C205.013 24.072 204.755 24.006 204.531 23.874C204.307 23.738 204.131 23.552 204.003 23.316C203.879 23.08 203.817 22.808 203.817 22.5C203.817 22.192 203.879 21.92 204.003 21.684C204.131 21.448 204.305 21.264 204.525 21.132C204.749 20.996 205.005 20.928 205.293 20.928C205.573 20.928 205.815 20.998 206.019 21.138C206.223 21.274 206.381 21.466 206.493 21.714C206.605 21.962 206.661 22.254 206.661 22.59H204.303C204.323 22.918 204.427 23.174 204.615 23.358C204.803 23.542 205.041 23.634 205.329 23.634C205.541 23.634 205.719 23.584 205.863 23.484C206.011 23.384 206.125 23.252 206.205 23.088L206.619 23.298C206.543 23.454 206.441 23.59 206.313 23.706C206.189 23.822 206.041 23.912 205.869 23.976C205.701 24.04 205.513 24.072 205.305 24.072ZM204.339 22.188H206.145C206.133 22.016 206.087 21.868 206.007 21.744C205.931 21.62 205.831 21.524 205.707 21.456C205.583 21.388 205.443 21.354 205.287 21.354C205.135 21.354 204.989 21.388 204.849 21.456C204.709 21.52 204.593 21.616 204.501 21.744C204.409 21.868 204.355 22.016 204.339 22.188ZM208.274 24.072C207.982 24.072 207.756 23.996 207.596 23.844C207.436 23.692 207.356 23.478 207.356 23.202V21.426H206.834V21H207.356V20.064H207.836V21H208.736V21.426H207.836V23.154C207.836 23.306 207.876 23.424 207.956 23.508C208.04 23.588 208.156 23.628 208.304 23.628C208.352 23.628 208.398 23.622 208.442 23.61C208.49 23.594 208.552 23.558 208.628 23.502L208.814 23.892C208.71 23.96 208.616 24.006 208.532 24.03C208.448 24.058 208.362 24.072 208.274 24.072ZM209.498 24.084C209.406 24.084 209.326 24.052 209.258 23.988C209.194 23.92 209.162 23.842 209.162 23.754C209.162 23.662 209.194 23.584 209.258 23.52C209.326 23.452 209.406 23.418 209.498 23.418C209.59 23.418 209.668 23.452 209.732 23.52C209.796 23.584 209.828 23.662 209.828 23.754C209.828 23.842 209.796 23.92 209.732 23.988C209.668 24.052 209.59 24.084 209.498 24.084Z" fill="black"/>
</svg>
